AbhayaLibre-tamil-1.ufo
<glyph name="uni0964" format="1">
  <advance width="265"/>
  <unicode hex="0964"/>
  <outline>
    <contour>
      <point x="220" y="0" type="line"/>
      <point x="90" y="0" type="line"/>
      <point x="90" y="400" type="line"/>
      <point x="220" y="400" type="line"/>
      <point x="220" y="0" type="line"/>
    </contour>
  </outline>
</glyph>
<glyph name="uni0965" format="1">
  <advance width="485"/>
  <unicode hex="0965"/>
  <outline>
    <contour>
      <point x="440" y="0" type="line"/>
      <point x="310" y="0" type="line"/>
      <point x="310" y="400" type="line"/>
      <point x="440" y="400" type="line"/>
      <point x="440" y="0" type="line"/>
    </contour>
    <contour>
      <point x="220" y="0" type="line"/>
      <point x="90" y="0" type="line"/>
      <point x="90" y="400" type="line"/>
      <point x="220" y="400" type="line"/>
      <point x="220" y="0" type="line"/>
    </contour>
  </outline>
</glyph>
<glyph name="uni0B83" format="1">
  <advance width="720"/>
  <unicode hex="0B83"/>
  <outline>
    <contour>
      <point x="323" y="136" type="line"/>
      <point x="323" y="72"/>
      <point x="281" y="34" type="qcurve" smooth="yes"/>
      <point x="239" y="-5"/>
      <point x="170" y="-5" type="qcurve" smooth="yes"/>
      <point x="101" y="-5"/>
      <point x="59" y="34" type="qcurve" smooth="yes"/>
      <point x="17" y="72"/>
      <point x="17" y="136" type="qcurve" smooth="yes"/>
      <point x="17" y="201"/>
      <point x="59" y="240" type="qcurve" smooth="yes"/>
      <point x="101" y="279"/>
      <point x="170" y="279" type="qcurve" smooth="yes"/>
      <point x="239" y="279"/>
      <point x="281" y="240" type="qcurve" smooth="yes"/>
      <point x="323" y="201"/>
      <point x="323" y="136" type="qcurve"/>
    </contour>
    <contour>
      <point x="193" y="136" type="line"/>
      <point x="193" y="175"/>
      <point x="172" y="202" type="qcurve" smooth="yes"/>
      <point x="151" y="229"/>
      <point x="122" y="229" type="qcurve" smooth="yes"/>
      <point x="93" y="229"/>
      <point x="73" y="202" type="qcurve" smooth="yes"/>
      <point x="52" y="175"/>
      <point x="52" y="136" type="qcurve" smooth="yes"/>
      <point x="52" y="98"/>
      <point x="73" y="72" type="qcurve" smooth="yes"/>
      <point x="93" y="45"/>
      <point x="122" y="45" type="qcurve" smooth="yes"/>
      <point x="151" y="45"/>
      <point x="172" y="72" type="qcurve" smooth="yes"/>
      <point x="193" y="98"/>
      <point x="193" y="136" type="qcurve"/>
    </contour>
    <contour>
      <point x="703" y="136" type="line"/>
      <point x="703" y="72"/>
      <point x="661" y="34" type="qcurve" smooth="yes"/>
      <point x="619" y="-5"/>
      <point x="550" y="-5" type="qcurve" smooth="yes"/>
      <point x="481" y="-5"/>
      <point x="439" y="34" type="qcurve" smooth="yes"/>
      <point x="397" y="72"/>
      <point x="397" y="136" type="qcurve" smooth="yes"/>
      <point x="397" y="201"/>
      <point x="439" y="240" type="qcurve" smooth="yes"/>
      <point x="481" y="279"/>
      <point x="550" y="279" type="qcurve" smooth="yes"/>
      <point x="619" y="279"/>
      <point x="661" y="240" type="qcurve" smooth="yes"/>
      <point x="703" y="201"/>
      <point x="703" y="136" type="qcurve"/>
    </contour>
    <contour>
      <point x="573" y="136" type="line"/>
      <point x="573" y="175"/>
      <point x="552" y="202" type="qcurve" smooth="yes"/>
      <point x="531" y="229"/>
      <point x="502" y="229" type="qcurve" smooth="yes"/>
      <point x="473" y="229"/>
      <point x="453" y="202" type="qcurve" smooth="yes"/>
      <point x="432" y="175"/>
      <point x="432" y="136" type="qcurve" smooth="yes"/>
      <point x="432" y="98"/>
      <point x="453" y="72" type="qcurve" smooth="yes"/>
      <point x="473" y="45"/>
      <point x="502" y="45" type="qcurve" smooth="yes"/>
      <point x="531" y="45"/>
      <point x="552" y="72" type="qcurve" smooth="yes"/>
      <point x="573" y="98"/>
      <point x="573" y="136" type="qcurve"/>
    </contour>
    <contour>
      <point x="518" y="541" type="line"/>
      <point x="518" y="477"/>
      <point x="476" y="439" type="qcurve" smooth="yes"/>
      <point x="434" y="400"/>
      <point x="365" y="400" type="qcurve" smooth="yes"/>
      <point x="296" y="400"/>
      <point x="254" y="439" type="qcurve" smooth="yes"/>
      <point x="212" y="477"/>
      <point x="212" y="541" type="qcurve" smooth="yes"/>
      <point x="212" y="606"/>
      <point x="254" y="645" type="qcurve" smooth="yes"/>
      <point x="296" y="684"/>
      <point x="365" y="684" type="qcurve" smooth="yes"/>
      <point x="434" y="684"/>
      <point x="476" y="645" type="qcurve" smooth="yes"/>
      <point x="518" y="606"/>
      <point x="518" y="541" type="qcurve"/>
    </contour>
    <contour>
      <point x="388" y="541" type="line"/>
      <point x="388" y="580"/>
      <point x="367" y="607" type="qcurve" smooth="yes"/>
      <point x="346" y="634"/>
      <point x="317" y="634" type="qcurve" smooth="yes"/>
      <point x="288" y="634"/>
      <point x="268" y="607" type="qcurve" smooth="yes"/>
      <point x="247" y="580"/>
      <point x="247" y="541" type="qcurve" smooth="yes"/>
      <point x="247" y="503"/>
      <point x="268" y="477" type="qcurve" smooth="yes"/>
      <point x="288" y="450"/>
      <point x="317" y="450" type="qcurve" smooth="yes"/>
      <point x="346" y="450"/>
      <point x="367" y="477" type="qcurve" smooth="yes"/>
      <point x="388" y="503"/>
      <point x="388" y="541" type="qcurve"/>
    </contour>
  </outline>
</glyph>
<glyph name="uni0B85" format="1">
  <advance width="951"/>
  <unicode hex="0B85"/>
  <outline>
    <contour>
      <point x="8" y="32" type="line"/>
      <point x="8" y="53"/>
      <point x="24" y="68" type="qcurve" smooth="yes"/>
      <point x="40" y="83"/>
      <point x="62" y="83" type="qcurve" smooth="yes"/>
      <point x="572" y="83" type="line"/>
      <point x="602" y="139"/>
      <point x="602" y="215" type="qcurve" smooth="yes"/>
      <point x="602" y="282"/>
      <point x="565" y="330" type="qcurve" smooth="yes"/>
      <point x="528" y="377"/>
      <point x="475" y="377" type="qcurve"/>
      <point x="503" y="361"/>
      <point x="519" y="333" type="qcurve" smooth="yes"/>
      <point x="535" y="305"/>
      <point x="535" y="272" type="qcurve" smooth="yes"/>
      <point x="535" y="221"/>
      <point x="492" y="184" type="qcurve" smooth="yes"/>
      <point x="448" y="148"/>
      <point x="387" y="148" type="qcurve" smooth="yes"/>
      <point x="326" y="148"/>
      <point x="282" y="185" type="qcurve" smooth="yes"/>
      <point x="239" y="221"/>
      <point x="239" y="273" type="qcurve" smooth="yes"/>
      <point x="239" y="336"/>
      <point x="293" y="374" type="qcurve" smooth="yes"/>
      <point x="347" y="412"/>
      <point x="436" y="412" type="qcurve" smooth="yes"/>
      <point x="559" y="412"/>
      <point x="645" y="354" type="qcurve" smooth="yes"/>
      <point x="732" y="296"/>
      <point x="732" y="214" type="qcurve" smooth="yes"/>
      <point x="732" y="126"/>
      <point x="710" y="83" type="qcurve"/>
      <point x="776" y="83" type="line"/>
      <point x="776" y="400" type="line"/>
      <point x="906" y="400" type="line"/>
      <point x="906" y="-134" type="line"/>
      <point x="776" y="-134" type="line"/>
      <point x="776" y="48" type="line"/>
      <point x="702" y="48" type="line"/>
      <point x="657" y="-30"/>
      <point x="547" y="-75" type="qcurve" smooth="yes"/>
      <point x="437" y="-120"/>
      <point x="292" y="-120" type="qcurve" smooth="yes"/>
      <point x="174" y="-120"/>
      <point x="91" y="-75" type="qcurve" smooth="yes"/>
      <point x="8" y="-31"/>
      <point x="8" y="32" type="qcurve"/>
    </contour>
    <contour>
      <point x="405" y="270" type="line"/>
      <point x="405" y="306"/>
      <point x="385" y="332" type="qcurve" smooth="yes"/>
      <point x="365" y="358"/>
      <point x="337" y="358" type="qcurve" smooth="yes"/>
      <point x="311" y="358"/>
      <point x="292" y="332" type="qcurve" smooth="yes"/>
      <point x="274" y="306"/>
      <point x="274" y="270" type="qcurve" smooth="yes"/>
      <point x="274" y="238"/>
      <point x="292" y="216" type="qcurve" smooth="yes"/>
      <point x="311" y="193"/>
      <point x="337" y="193" type="qcurve" smooth="yes"/>
      <point x="365" y="193"/>
      <point x="385" y="216" type="qcurve" smooth="yes"/>
      <point x="405" y="238"/>
      <point x="405" y="270" type="qcurve"/>
    </contour>
    <contour>
      <point x="544" y="48" type="line"/>
      <point x="64" y="48" type="line" smooth="yes"/>
      <point x="55" y="48"/>
      <point x="49" y="42" type="qcurve" smooth="yes"/>
      <point x="43" y="36"/>
      <point x="43" y="28" type="qcurve" smooth="yes"/>
      <point x="43" y="-19"/>
      <point x="109" y="-52" type="qcurve" smooth="yes"/>
      <point x="175" y="-85"/>
      <point x="269" y="-85" type="qcurve" smooth="yes"/>
      <point x="357" y="-85"/>
      <point x="430" y="-50" type="qcurve" smooth="yes"/>
      <point x="504" y="-14"/>
      <point x="544" y="48" type="qcurve"/>
    </contour>
  </outline>
</glyph>
<glyph name="uni0B86" format="1">
  <advance width="1120"/>
  <unicode hex="0B86"/>
  <outline>
    <contour>
      <point x="1120" y="-48" type="line"/>
      <point x="1120" y="-161"/>
      <point x="1007" y="-230" type="qcurve" smooth="yes"/>
      <point x="894" y="-298"/>
      <point x="706" y="-298" type="qcurve" smooth="yes"/>
      <point x="589" y="-298"/>
      <point x="506" y="-267" type="qcurve" smooth="yes"/>
      <point x="423" y="-236"/>
      <point x="423" y="-193" type="qcurve" smooth="yes"/>
      <point x="423" y="-171"/>
      <point x="448" y="-156" type="qcurve" smooth="yes"/>
      <point x="472" y="-141"/>
      <point x="507" y="-141" type="qcurve" smooth="yes"/>
      <point x="638" y="-141" type="line"/>
      <point x="638" y="-176" type="line"/>
      <point x="505" y="-176" type="line" smooth="yes"/>
      <point x="486" y="-176"/>
      <point x="472" y="-181" type="qcurve" smooth="yes"/>
      <point x="458" y="-187"/>
      <point x="458" y="-194" type="qcurve" smooth="yes"/>
      <point x="458" y="-225"/>
      <point x="531" y="-245" type="qcurve" smooth="yes"/>
      <point x="600" y="-263"/>
      <point x="706" y="-263" type="qcurve" smooth="yes"/>
      <point x="835" y="-263"/>
      <point x="912" y="-205" type="qcurve" smooth="yes"/>
      <point x="990" y="-148"/>
      <point x="990" y="-52" type="qcurve" smooth="yes"/>
      <point x="990" y="-18"/>
      <point x="975" y="6" type="qcurve" smooth="yes"/>
      <point x="960" y="30"/>
      <point x="938" y="30" type="qcurve" smooth="yes"/>
      <point x="925" y="30"/>
      <point x="915" y="18" type="qcurve" smooth="yes"/>
      <point x="906" y="7"/>
      <point x="906" y="-10" type="qcurve" smooth="yes"/>
      <point x="906" y="-183" type="line"/>
      <point x="776" y="-183" type="line"/>
      <point x="776" y="48" type="line"/>
      <point x="702" y="48" type="line"/>
      <point x="657" y="-30"/>
      <point x="547" y="-75" type="qcurve" smooth="yes"/>
      <point x="437" y="-120"/>
      <point x="292" y="-120" type="qcurve" smooth="yes"/>
      <point x="174" y="-120"/>
      <point x="91" y="-75" type="qcurve" smooth="yes"/>
      <point x="8" y="-31"/>
      <point x="8" y="32" type="qcurve" smooth="yes"/>
      <point x="8" y="53"/>
      <point x="24" y="68" type="qcurve" smooth="yes"/>
      <point x="40" y="83"/>
      <point x="62" y="83" type="qcurve" smooth="yes"/>
      <point x="571" y="83" type="line"/>
      <point x="602" y="141"/>
      <point x="602" y="215" type="qcurve" smooth="yes"/>
      <point x="602" y="282"/>
      <point x="565" y="330" type="qcurve" smooth="yes"/>
      <point x="528" y="377"/>
      <point x="475" y="377" type="qcurve"/>
      <point x="503" y="361"/>
      <point x="519" y="333" type="qcurve" smooth="yes"/>
      <point x="535" y="305"/>
      <point x="535" y="272" type="qcurve" smooth="yes"/>
      <point x="535" y="221"/>
      <point x="491" y="184" type="qcurve" smooth="yes"/>
      <point x="447" y="148"/>
      <point x="385" y="148" type="qcurve" smooth="yes"/>
      <point x="325" y="148"/>
      <point x="282" y="185" type="qcurve" smooth="yes"/>
      <point x="240" y="221"/>
      <point x="240" y="273" type="qcurve" smooth="yes"/>
      <point x="240" y="336"/>
      <point x="294" y="374" type="qcurve" smooth="yes"/>
      <point x="347" y="412"/>
      <point x="436" y="412" type="qcurve" smooth="yes"/>
      <point x="559" y="412"/>
      <point x="645" y="354" type="qcurve" smooth="yes"/>
      <point x="732" y="296"/>
      <point x="732" y="214" type="qcurve" smooth="yes"/>
      <point x="732" y="126"/>
      <point x="710" y="83" type="qcurve"/>
      <point x="776" y="83" type="line"/>
      <point x="776" y="400" type="line"/>
      <point x="906" y="400" type="line"/>
      <point x="906" y="58" type="line"/>
      <point x="955" y="85"/>
      <point x="991" y="85" type="qcurve" smooth="yes"/>
      <point x="1050" y="85"/>
      <point x="1085" y="49" type="qcurve" smooth="yes"/>
      <point x="1120" y="12"/>
      <point x="1120" y="-48" type="qcurve"/>
    </contour>
    <contour>
      <point x="405" y="270" type="line"/>
      <point x="405" y="306"/>
      <point x="385" y="332" type="qcurve" smooth="yes"/>
      <point x="365" y="358"/>
      <point x="337" y="358" type="qcurve" smooth="yes"/>
      <point x="311" y="358"/>
      <point x="293" y="332" type="qcurve" smooth="yes"/>
      <point x="275" y="306"/>
      <point x="275" y="270" type="qcurve" smooth="yes"/>
      <point x="275" y="238"/>
      <point x="293" y="216" type="qcurve" smooth="yes"/>
      <point x="311" y="193"/>
      <point x="337" y="193" type="qcurve" smooth="yes"/>
      <point x="365" y="193"/>
      <point x="385" y="216" type="qcurve" smooth="yes"/>
      <point x="405" y="238"/>
      <point x="405" y="270" type="qcurve"/>
    </contour>
    <contour>
      <point x="545" y="48" type="line"/>
      <point x="64" y="48" type="line" smooth="yes"/>
      <point x="55" y="48"/>
      <point x="49" y="44" type="qcurve" smooth="yes"/>
      <point x="43" y="39"/>
      <point x="43" y="33" type="qcurve" smooth="yes"/>
      <point x="43" y="-16"/>
      <point x="109" y="-50" type="qcurve" smooth="yes"/>
      <point x="176" y="-85"/>
      <point x="270" y="-85" type="qcurve" smooth="yes"/>
      <point x="358" y="-85"/>
      <point x="431" y="-50" type="qcurve" smooth="yes"/>
      <point x="505" y="-14"/>
      <point x="545" y="48" type="qcurve"/>
    </contour>
  </outline>
</glyph>
<glyph name="uni0B87" format="1">
  <advance width="914"/>
  <unicode hex="0B87"/>
  <outline>
    <contour>
      <point x="875" y="-273" type="line"/>
      <point x="840" y="-273" type="line"/>
      <point x="840" y="189" type="line" smooth="yes"/>
      <point x="840" y="366"/>
      <point x="737" y="472" type="qcurve" smooth="yes"/>
      <point x="635" y="579"/>
      <point x="464" y="579" type="qcurve" smooth="yes"/>
      <point x="300" y="579"/>
      <point x="201" y="485" type="qcurve" smooth="yes"/>
      <point x="102" y="392"/>
      <point x="102" y="236" type="qcurve" smooth="yes"/>
      <point x="102" y="110"/>
      <point x="178" y="5" type="qcurve"/>
      <point x="272" y="53"/>
      <point x="429" y="53" type="qcurve" smooth="yes"/>
      <point x="491" y="53"/>
      <point x="552" y="39" type="qcurve"/>
      <point x="581" y="77"/>
      <point x="596" y="129" type="qcurve" smooth="yes"/>
      <point x="611" y="181"/>
      <point x="611" y="241" type="qcurve" smooth="yes"/>
      <point x="611" y="296"/>
      <point x="579" y="334" type="qcurve" smooth="yes"/>
      <point x="547" y="373"/>
      <point x="502" y="373" type="qcurve"/>
      <point x="530" y="358"/>
      <point x="546" y="328" type="qcurve" smooth="yes"/>
      <point x="562" y="297"/>
      <point x="562" y="261" type="qcurve" smooth="yes"/>
      <point x="562" y="197"/>
      <point x="521" y="159" type="qcurve" smooth="yes"/>
      <point x="480" y="121"/>
      <point x="412" y="121" type="qcurve" smooth="yes"/>
      <point x="344" y="121"/>
      <point x="304" y="161" type="qcurve" smooth="yes"/>
      <point x="263" y="200"/>
      <point x="263" y="266" type="qcurve" smooth="yes"/>
      <point x="263" y="342"/>
      <point x="318" y="387" type="qcurve" smooth="yes"/>
      <point x="374" y="433"/>
      <point x="466" y="433" type="qcurve" smooth="yes"/>
      <point x="589" y="433"/>
      <point x="662" y="378" type="qcurve" smooth="yes"/>
      <point x="736" y="324"/>
      <point x="736" y="233" type="qcurve" smooth="yes"/>
      <point x="736" y="99"/>
      <point x="668" y="2" type="qcurve"/>
      <point x="728" y="-22"/>
      <point x="764" y="-61" type="qcurve" smooth="yes"/>
      <point x="800" y="-99"/>
      <point x="800" y="-139" type="qcurve" smooth="yes"/>
      <point x="800" y="-199"/>
      <point x="732" y="-242" type="qcurve" smooth="yes"/>
      <point x="664" y="-285"/>
      <point x="568" y="-285" type="qcurve" smooth="yes"/>
      <point x="447" y="-285"/>
      <point x="357" y="-237" type="qcurve"/>
      <point x="270" y="-285"/>
      <point x="153" y="-285" type="qcurve" smooth="yes"/>
      <point x="90" y="-285"/>
      <point x="45" y="-256" type="qcurve" smooth="yes"/>
      <point x="0" y="-227"/>
      <point x="0" y="-186" type="qcurve" smooth="yes"/>
      <point x="0" y="-138"/>
      <point x="37" y="-91" type="qcurve" smooth="yes"/>
      <point x="73" y="-45"/>
      <point x="135" y="-15" type="qcurve"/>
      <point x="92" y="38"/>
      <point x="69" y="109" type="qcurve" smooth="yes"/>
      <point x="46" y="179"/>
      <point x="46" y="259" type="qcurve" smooth="yes"/>
      <point x="46" y="446"/>
      <point x="161" y="558" type="qcurve" smooth="yes"/>
      <point x="275" y="671"/>
      <point x="466" y="671" type="qcurve" smooth="yes"/>
      <point x="652" y="671"/>
      <point x="763" y="539" type="qcurve" smooth="yes"/>
      <point x="875" y="407"/>
      <point x="875" y="188" type="qcurve" smooth="yes"/>
      <point x="875" y="-273" type="line"/>
    </contour>
    <contour>
      <point x="432" y="262" type="line"/>
      <point x="432" y="298"/>
      <point x="411" y="324" type="qcurve" smooth="yes"/>
      <point x="391" y="349"/>
      <point x="362" y="349" type="qcurve" smooth="yes"/>
      <point x="335" y="349"/>
      <point x="317" y="324" type="qcurve" smooth="yes"/>
      <point x="298" y="299"/>
      <point x="298" y="264" type="qcurve" smooth="yes"/>
      <point x="298" y="228"/>
      <point x="317" y="202" type="qcurve" smooth="yes"/>
      <point x="335" y="176"/>
      <point x="362" y="176" type="qcurve" smooth="yes"/>
      <point x="391" y="176"/>
      <point x="411" y="201" type="qcurve" smooth="yes"/>
      <point x="432" y="226"/>
      <point x="432" y="262" type="qcurve"/>
    </contour>
    <contour>
      <point x="520" y="-9" type="line"/>
      <point x="468" y="7"/>
      <point x="414" y="7" type="qcurve" smooth="yes"/>
      <point x="279" y="7"/>
      <point x="202" y="-32" type="qcurve"/>
      <point x="276" y="-126"/>
      <point x="352" y="-174" type="qcurve"/>
      <point x="448" y="-112"/>
      <point x="520" y="-9" type="qcurve"/>
    </contour>
    <contour>
      <point x="670" y="-137" type="line"/>
      <point x="670" y="-110"/>
      <point x="655" y="-89" type="qcurve" smooth="yes"/>
      <point x="640" y="-67"/>
      <point x="616" y="-61" type="qcurve"/>
      <point x="527" y="-150"/>
      <point x="411" y="-204" type="qcurve"/>
      <point x="460" y="-229"/>
      <point x="537" y="-229" type="qcurve" smooth="yes"/>
      <point x="592" y="-229"/>
      <point x="631" y="-202" type="qcurve" smooth="yes"/>
      <point x="670" y="-175"/>
      <point x="670" y="-137" type="qcurve"/>
    </contour>
    <contour>
      <point x="303" y="-198" type="line"/>
      <point x="207" y="-128"/>
      <point x="153" y="-54" type="qcurve"/>
      <point x="100" y="-80"/>
      <point x="68" y="-115" type="qcurve" smooth="yes"/>
      <point x="37" y="-151"/>
      <point x="37" y="-185" type="qcurve" smooth="yes"/>
      <point x="37" y="-212"/>
      <point x="69" y="-231" type="qcurve" smooth="yes"/>
      <point x="101" y="-250"/>
      <point x="147" y="-250" type="qcurve" smooth="yes"/>
      <point x="226" y="-250"/>
      <point x="303" y="-198" type="qcurve"/>
    </contour>
  </outline>
</glyph>
<glyph name="uni0B88" format="1">
  <advance width="671"/>
  <unicode hex="0B88"/>
  <outline>
    <contour>
      <point x="659" y="370" type="line"/>
      <point x="452" y="370" type="line"/>
      <point x="452" y="0" type="line"/>
      <point x="322" y="0" type="line"/>
      <point x="322" y="370" type="line"/>
      <point x="80" y="370" type="line"/>
      <point x="80" y="0" type="line"/>
      <point x="45" y="0" type="line"/>
      <point x="45" y="400" type="line"/>
      <point x="659" y="400" type="line"/>
      <point x="659" y="370" type="line"/>
    </contour>
    <contour>
      <point x="278" y="199" type="line"/>
      <point x="278" y="170"/>
      <point x="257" y="149" type="qcurve" smooth="yes"/>
      <point x="236" y="128"/>
      <point x="207" y="128" type="qcurve" smooth="yes"/>
      <point x="178" y="128"/>
      <point x="158" y="149" type="qcurve" smooth="yes"/>
      <point x="138" y="170"/>
      <point x="138" y="199" type="qcurve" smooth="yes"/>
      <point x="138" y="228"/>
      <point x="158" y="248" type="qcurve" smooth="yes"/>
      <point x="178" y="269"/>
      <point x="207" y="269" type="qcurve" smooth="yes"/>
      <point x="236" y="269"/>
      <point x="257" y="248" type="qcurve" smooth="yes"/>
      <point x="278" y="228"/>
      <point x="278" y="199" type="qcurve"/>
    </contour>
    <contour>
      <point x="652" y="199" type="line"/>
      <point x="652" y="170"/>
      <point x="631" y="149" type="qcurve" smooth="yes"/>
      <point x="609" y="128"/>
      <point x="579" y="128" type="qcurve" smooth="yes"/>
      <point x="551" y="128"/>
      <point x="532" y="149" type="qcurve" smooth="yes"/>
      <point x="512" y="170"/>
      <point x="512" y="199" type="qcurve" smooth="yes"/>
      <point x="512" y="228"/>
      <point x="532" y="248" type="qcurve" smooth="yes"/>
      <point x="551" y="269"/>
      <point x="579" y="269" type="qcurve" smooth="yes"/>
      <point x="609" y="269"/>
      <point x="631" y="248" type="qcurve" smooth="yes"/>
      <point x="652" y="228"/>
      <point x="652" y="199" type="qcurve"/>
    </contour>
  </outline>
</glyph>
<glyph name="uni0B89" format="1">
  <advance width="743"/>
  <unicode hex="0B89"/>
  <outline>
    <contour>
      <point x="740" y="0" type="line"/>
      <point x="125" y="0" type="line" smooth="yes"/>
      <point x="81" y="0"/>
      <point x="49" y="19" type="qcurve" smooth="yes"/>
      <point x="18" y="37"/>
      <point x="18" y="64" type="qcurve" smooth="yes"/>
      <point x="18" y="91"/>
      <point x="45" y="111" type="qcurve" smooth="yes"/>
      <point x="72" y="130"/>
      <point x="111" y="130" type="qcurve" smooth="yes"/>
      <point x="270" y="130" type="line" smooth="yes"/>
      <point x="310" y="130"/>
      <point x="339" y="166" type="qcurve" smooth="yes"/>
      <point x="367" y="202"/>
      <point x="367" y="253" type="qcurve" smooth="yes"/>
      <point x="367" y="302"/>
      <point x="338" y="337" type="qcurve" smooth="yes"/>
      <point x="308" y="372"/>
      <point x="267" y="372" type="qcurve" smooth="yes"/>
      <point x="222" y="372" type="line"/>
      <point x="257" y="363"/>
      <point x="279" y="338" type="qcurve" smooth="yes"/>
      <point x="301" y="314"/>
      <point x="301" y="285" type="qcurve" smooth="yes"/>
      <point x="301" y="233"/>
      <point x="264" y="202" type="qcurve" smooth="yes"/>
      <point x="227" y="171"/>
      <point x="165" y="171" type="qcurve" smooth="yes"/>
      <point x="109" y="171"/>
      <point x="69" y="204" type="qcurve" smooth="yes"/>
      <point x="29" y="238"/>
      <point x="29" y="285" type="qcurve" smooth="yes"/>
      <point x="29" y="345"/>
      <point x="82" y="376" type="qcurve" smooth="yes"/>
      <point x="135" y="407"/>
      <point x="238" y="407" type="qcurve" smooth="yes"/>
      <point x="356" y="407"/>
      <point x="426" y="365" type="qcurve" smooth="yes"/>
      <point x="497" y="322"/>
      <point x="497" y="252" type="qcurve" smooth="yes"/>
      <point x="497" y="181"/>
      <point x="437" y="138" type="qcurve" smooth="yes"/>
      <point x="378" y="95"/>
      <point x="279" y="95" type="qcurve" smooth="yes"/>
      <point x="189" y="95" type="line" smooth="yes"/>
      <point x="172" y="95"/>
      <point x="160" y="86" type="qcurve" smooth="yes"/>
      <point x="148" y="76"/>
      <point x="148" y="63" type="qcurve" smooth="yes"/>
      <point x="148" y="49"/>
      <point x="161" y="40" type="qcurve" smooth="yes"/>
      <point x="174" y="30"/>
      <point x="192" y="30" type="qcurve" smooth="yes"/>
      <point x="740" y="30" type="line"/>
      <point x="740" y="0" type="line"/>
    </contour>
    <contour>
      <point x="171" y="286" type="line"/>
      <point x="171" y="315"/>
      <point x="155" y="335" type="qcurve" smooth="yes"/>
      <point x="138" y="356"/>
      <point x="115" y="356" type="qcurve" smooth="yes"/>
      <point x="94" y="356"/>
      <point x="79" y="335" type="qcurve" smooth="yes"/>
      <point x="64" y="315"/>
      <point x="64" y="286" type="qcurve" smooth="yes"/>
      <point x="64" y="257"/>
      <point x="79" y="237" type="qcurve" smooth="yes"/>
      <point x="94" y="216"/>
      <point x="115" y="216" type="qcurve" smooth="yes"/>
      <point x="138" y="216"/>
      <point x="155" y="237" type="qcurve" smooth="yes"/>
      <point x="171" y="257"/>
      <point x="171" y="286" type="qcurve"/>
    </contour>
  </outline>
</glyph>
<glyph name="uni0B8A" format="1">
  <advance width="1363"/>
  <unicode hex="0B8A"/>
  <outline>
    <contour>
      <point x="1279" y="370" type="line"/>
      <point x="1260" y="370" type="line"/>
      <point x="1260" y="95" type="line"/>
      <point x="1130" y="95" type="line"/>
      <point x="1130" y="370" type="line"/>
      <point x="1057" y="370" type="line"/>
      <point x="1057" y="95" type="line"/>
      <point x="927" y="95" type="line"/>
      <point x="927" y="285" type="line"/>
      <point x="894" y="325"/>
      <point x="849" y="348" type="qcurve" smooth="yes"/>
      <point x="804" y="370"/>
      <point x="755" y="370" type="qcurve" smooth="yes"/>
      <point x="685" y="370"/>
      <point x="635" y="327" type="qcurve" smooth="yes"/>
      <point x="586" y="284"/>
      <point x="586" y="224" type="qcurve" smooth="yes"/>
      <point x="586" y="196"/>
      <point x="599" y="170" type="qcurve" smooth="yes"/>
      <point x="613" y="144"/>
      <point x="637" y="125" type="qcurve"/>
      <point x="625" y="141"/>
      <point x="618" y="157" type="qcurve" smooth="yes"/>
      <point x="612" y="174"/>
      <point x="612" y="190" type="qcurve" smooth="yes"/>
      <point x="612" y="244"/>
      <point x="649" y="276" type="qcurve" smooth="yes"/>
      <point x="686" y="308"/>
      <point x="748" y="308" type="qcurve" smooth="yes"/>
      <point x="810" y="308"/>
      <point x="847" y="276" type="qcurve" smooth="yes"/>
      <point x="884" y="244"/>
      <point x="884" y="191" type="qcurve" smooth="yes"/>
      <point x="884" y="137"/>
      <point x="846" y="105" type="qcurve" smooth="yes"/>
      <point x="809" y="73"/>
      <point x="746" y="73" type="qcurve" smooth="yes"/>
      <point x="665" y="73"/>
      <point x="608" y="118" type="qcurve" smooth="yes"/>
      <point x="551" y="164"/>
      <point x="551" y="228" type="qcurve" smooth="yes"/>
      <point x="551" y="299"/>
      <point x="610" y="350" type="qcurve" smooth="yes"/>
      <point x="670" y="400"/>
      <point x="754" y="400" type="qcurve" smooth="yes"/>
      <point x="824" y="400"/>
      <point x="877" y="383" type="qcurve" smooth="yes"/>
      <point x="931" y="365"/>
      <point x="958" y="334" type="qcurve"/>
      <point x="958" y="400" type="line"/>
      <point x="1279" y="400" type="line"/>
      <point x="1279" y="370" type="line"/>
    </contour>
    <contour>
      <point x="754" y="189" type="line"/>
      <point x="754" y="220"/>
      <point x="738" y="241" type="qcurve" smooth="yes"/>
      <point x="721" y="263"/>
      <point x="698" y="263" type="qcurve" smooth="yes"/>
      <point x="677" y="263"/>
      <point x="662" y="241" type="qcurve" smooth="yes"/>
      <point x="647" y="219"/>
      <point x="647" y="188" type="qcurve" smooth="yes"/>
      <point x="647" y="159"/>
      <point x="662" y="139" type="qcurve" smooth="yes"/>
      <point x="677" y="118"/>
      <point x="698" y="118" type="qcurve" smooth="yes"/>
      <point x="721" y="118"/>
      <point x="738" y="139" type="qcurve" smooth="yes"/>
      <point x="754" y="160"/>
      <point x="754" y="189" type="qcurve"/>
    </contour>
    <contour>
      <point x="1360" y="0" type="line"/>
      <point x="110" y="0" type="line" smooth="yes"/>
      <point x="72" y="0"/>
      <point x="45" y="19" type="qcurve" smooth="yes"/>
      <point x="18" y="37"/>
      <point x="18" y="64" type="qcurve" smooth="yes"/>
      <point x="18" y="91"/>
      <point x="45" y="111" type="qcurve" smooth="yes"/>
      <point x="72" y="130"/>
      <point x="111" y="130" type="qcurve" smooth="yes"/>
      <point x="270" y="130" type="line" smooth="yes"/>
      <point x="310" y="130"/>
      <point x="339" y="166" type="qcurve" smooth="yes"/>
      <point x="367" y="202"/>
      <point x="367" y="253" type="qcurve" smooth="yes"/>
      <point x="367" y="302"/>
      <point x="338" y="337" type="qcurve" smooth="yes"/>
      <point x="308" y="372"/>
      <point x="267" y="372" type="qcurve" smooth="yes"/>
      <point x="222" y="372" type="line"/>
      <point x="257" y="363"/>
      <point x="279" y="338" type="qcurve" smooth="yes"/>
      <point x="301" y="314"/>
      <point x="301" y="285" type="qcurve" smooth="yes"/>
      <point x="301" y="233"/>
      <point x="264" y="202" type="qcurve" smooth="yes"/>
      <point x="227" y="171"/>
      <point x="165" y="171" type="qcurve" smooth="yes"/>
      <point x="109" y="171"/>
      <point x="69" y="204" type="qcurve" smooth="yes"/>
      <point x="29" y="238"/>
      <point x="29" y="285" type="qcurve" smooth="yes"/>
      <point x="29" y="345"/>
      <point x="82" y="376" type="qcurve" smooth="yes"/>
      <point x="135" y="407"/>
      <point x="238" y="407" type="qcurve" smooth="yes"/>
      <point x="356" y="407"/>
      <point x="426" y="365" type="qcurve" smooth="yes"/>
      <point x="497" y="322"/>
      <point x="497" y="252" type="qcurve" smooth="yes"/>
      <point x="497" y="181"/>
      <point x="437" y="138" type="qcurve" smooth="yes"/>
      <point x="378" y="95"/>
      <point x="279" y="95" type="qcurve" smooth="yes"/>
      <point x="189" y="95" type="line" smooth="yes"/>
      <point x="172" y="95"/>
      <point x="160" y="86" type="qcurve" smooth="yes"/>
      <point x="148" y="76"/>
      <point x="148" y="63" type="qcurve" smooth="yes"/>
      <point x="148" y="49"/>
      <point x="161" y="40" type="qcurve" smooth="yes"/>
      <point x="174" y="30"/>
      <point x="192" y="30" type="qcurve" smooth="yes"/>
      <point x="1360" y="30" type="line"/>
      <point x="1360" y="0" type="line"/>
    </contour>
    <contour>
      <point x="171" y="286" type="line"/>
      <point x="171" y="315"/>
      <point x="155" y="335" type="qcurve" smooth="yes"/>
      <point x="138" y="356"/>
      <point x="115" y="356" type="qcurve" smooth="yes"/>
      <point x="94" y="356"/>
      <point x="79" y="335" type="qcurve" smooth="yes"/>
      <point x="64" y="315"/>
      <point x="64" y="286" type="qcurve" smooth="yes"/>
      <point x="64" y="257"/>
      <point x="79" y="237" type="qcurve" smooth="yes"/>
      <point x="94" y="216"/>
      <point x="115" y="216" type="qcurve" smooth="yes"/>
      <point x="138" y="216"/>
      <point x="155" y="237" type="qcurve" smooth="yes"/>
      <point x="171" y="257"/>
      <point x="171" y="286" type="qcurve"/>
    </contour>
  </outline>
</glyph>
<glyph name="uni0B8E" format="1">
  <advance width="726"/>
  <unicode hex="0B8E"/>
  <outline>
    <contour>
      <point x="507" y="0" type="line"/>
      <point x="507" y="370" type="line"/>
      <point x="247" y="370" type="line" smooth="yes"/>
      <point x="167" y="370"/>
      <point x="111" y="314" type="qcurve" smooth="yes"/>
      <point x="54" y="259"/>
      <point x="54" y="180" type="qcurve" smooth="yes"/>
      <point x="54" y="138"/>
      <point x="70" y="105" type="qcurve" smooth="yes"/>
      <point x="86" y="72"/>
      <point x="113" y="59" type="qcurve"/>
      <point x="102" y="73"/>
      <point x="96" y="89" type="qcurve" smooth="yes"/>
      <point x="90" y="105"/>
      <point x="90" y="120" type="qcurve" smooth="yes"/>
      <point x="90" y="178"/>
      <point x="135" y="219" type="qcurve" smooth="yes"/>
      <point x="179" y="260"/>
      <point x="242" y="260" type="qcurve" smooth="yes"/>
      <point x="305" y="260"/>
      <point x="349" y="222" type="qcurve" smooth="yes"/>
      <point x="394" y="184"/>
      <point x="394" y="130" type="qcurve" smooth="yes"/>
      <point x="394" y="72"/>
      <point x="348" y="31" type="qcurve" smooth="yes"/>
      <point x="301" y="-10"/>
      <point x="236" y="-10" type="qcurve" smooth="yes"/>
      <point x="146" y="-10"/>
      <point x="83" y="47" type="qcurve" smooth="yes"/>
      <point x="19" y="103"/>
      <point x="19" y="183" type="qcurve" smooth="yes"/>
      <point x="19" y="273"/>
      <point x="86" y="336" type="qcurve" smooth="yes"/>
      <point x="153" y="400"/>
      <point x="247" y="400" type="qcurve" smooth="yes"/>
      <point x="723" y="400" type="line"/>
      <point x="723" y="370" type="line"/>
      <point x="637" y="370" type="line"/>
      <point x="637" y="0" type="line"/>
      <point x="507" y="0" type="line"/>
    </contour>
    <contour>
      <point x="264" y="119" type="line"/>
      <point x="264" y="153"/>
      <point x="243" y="176" type="qcurve" smooth="yes"/>
      <point x="222" y="200"/>
      <point x="192" y="200" type="qcurve" smooth="yes"/>
      <point x="164" y="200"/>
      <point x="145" y="176" type="qcurve" smooth="yes"/>
      <point x="125" y="151"/>
      <point x="125" y="117" type="qcurve" smooth="yes"/>
      <point x="125" y="84"/>
      <point x="145" y="60" type="qcurve" smooth="yes"/>
      <point x="164" y="37"/>
      <point x="192" y="37" type="qcurve" smooth="yes"/>
      <point x="222" y="37"/>
      <point x="243" y="61" type="qcurve" smooth="yes"/>
      <point x="264" y="85"/>
      <point x="264" y="119" type="qcurve"/>
    </contour>
  </outline>
</glyph>
<glyph name="uni0B8F" format="1">
  <advance width="726"/>
  <unicode hex="0B8F"/>
  <outline>
    <contour>
      <point x="262" y="-117" type="line"/>
      <point x="509" y="-1" type="line"/>
      <point x="509" y="370" type="line"/>
      <point x="247" y="370" type="line" smooth="yes"/>
      <point x="167" y="370"/>
      <point x="111" y="314" type="qcurve" smooth="yes"/>
      <point x="54" y="259"/>
      <point x="54" y="180" type="qcurve" smooth="yes"/>
      <point x="54" y="138"/>
      <point x="70" y="105" type="qcurve" smooth="yes"/>
      <point x="86" y="72"/>
      <point x="114" y="59" type="qcurve"/>
      <point x="102" y="74"/>
      <point x="96" y="90" type="qcurve" smooth="yes"/>
      <point x="90" y="105"/>
      <point x="90" y="120" type="qcurve" smooth="yes"/>
      <point x="90" y="178"/>
      <point x="134" y="219" type="qcurve" smooth="yes"/>
      <point x="178" y="260"/>
      <point x="241" y="260" type="qcurve" smooth="yes"/>
      <point x="304" y="260"/>
      <point x="349" y="221" type="qcurve" smooth="yes"/>
      <point x="394" y="183"/>
      <point x="394" y="128" type="qcurve" smooth="yes"/>
      <point x="394" y="71"/>
      <point x="348" y="30" type="qcurve" smooth="yes"/>
      <point x="301" y="-10"/>
      <point x="236" y="-10" type="qcurve" smooth="yes"/>
      <point x="146" y="-10"/>
      <point x="83" y="47" type="qcurve" smooth="yes"/>
      <point x="19" y="103"/>
      <point x="19" y="183" type="qcurve" smooth="yes"/>
      <point x="19" y="273"/>
      <point x="86" y="336" type="qcurve" smooth="yes"/>
      <point x="153" y="400"/>
      <point x="247" y="400" type="qcurve" smooth="yes"/>
      <point x="723" y="400" type="line"/>
      <point x="723" y="370" type="line"/>
      <point x="639" y="370" type="line"/>
      <point x="639" y="0" type="line"/>
      <point x="277" y="-141" type="line"/>
      <point x="262" y="-117" type="line"/>
    </contour>
    <contour>
      <point x="264" y="119" type="line"/>
      <point x="264" y="153"/>
      <point x="243" y="176" type="qcurve" smooth="yes"/>
      <point x="222" y="200"/>
      <point x="192" y="200" type="qcurve" smooth="yes"/>
      <point x="164" y="200"/>
      <point x="145" y="176" type="qcurve" smooth="yes"/>
      <point x="125" y="151"/>
      <point x="125" y="117" type="qcurve" smooth="yes"/>
      <point x="125" y="84"/>
      <point x="145" y="60" type="qcurve" smooth="yes"/>
      <point x="164" y="37"/>
      <point x="192" y="37" type="qcurve" smooth="yes"/>
      <point x="222" y="37"/>
      <point x="243" y="61" type="qcurve" smooth="yes"/>
      <point x="264" y="85"/>
      <point x="264" y="119" type="qcurve"/>
    </contour>
  </outline>
</glyph>
<glyph name="uni0B90" format="1">
  <advance width="759"/>
  <unicode hex="0B90"/>
  <outline>
    <contour>
      <point x="17" y="258" type="line"/>
      <point x="17" y="322"/>
      <point x="73" y="368" type="qcurve" smooth="yes"/>
      <point x="129" y="413"/>
      <point x="209" y="413" type="qcurve" smooth="yes"/>
      <point x="273" y="413"/>
      <point x="326" y="388" type="qcurve" smooth="yes"/>
      <point x="379" y="364"/>
      <point x="407" y="320" type="qcurve"/>
      <point x="423" y="362"/>
      <point x="459" y="388" type="qcurve" smooth="yes"/>
      <point x="495" y="413"/>
      <point x="538" y="413" type="qcurve" smooth="yes"/>
      <point x="630" y="413"/>
      <point x="685" y="362" type="qcurve" smooth="yes"/>
      <point x="740" y="312"/>
      <point x="740" y="228" type="qcurve" smooth="yes"/>
      <point x="740" y="147"/>
      <point x="675" y="99" type="qcurve" smooth="yes"/>
      <point x="611" y="50"/>
      <point x="503" y="50" type="qcurve" smooth="yes"/>
      <point x="257" y="50" type="line" smooth="yes"/>
      <point x="211" y="50"/>
      <point x="179" y="18" type="qcurve" smooth="yes"/>
      <point x="147" y="-14"/>
      <point x="147" y="-59" type="qcurve" smooth="yes"/>
      <point x="147" y="-103"/>
      <point x="175" y="-135" type="qcurve" smooth="yes"/>
      <point x="203" y="-166"/>
      <point x="243" y="-166" type="qcurve" smooth="yes"/>
      <point x="285" y="-166"/>
      <point x="315" y="-135" type="qcurve" smooth="yes"/>
      <point x="345" y="-104"/>
      <point x="345" y="-61" type="qcurve" smooth="yes"/>
      <point x="345" y="2" type="line"/>
      <point x="475" y="2" type="line"/>
      <point x="475" y="-71" type="line" smooth="yes"/>
      <point x="475" y="-114"/>
      <point x="502" y="-145" type="qcurve" smooth="yes"/>
      <point x="529" y="-176"/>
      <point x="567" y="-176" type="qcurve" smooth="yes"/>
      <point x="601" y="-176"/>
      <point x="625" y="-144" type="qcurve" smooth="yes"/>
      <point x="649" y="-112"/>
      <point x="649" y="-67" type="qcurve" smooth="yes"/>
      <point x="649" y="2" type="line"/>
      <point x="684" y="2" type="line"/>
      <point x="684" y="-67" type="line" smooth="yes"/>
      <point x="684" y="-137"/>
      <point x="641" y="-179" type="qcurve" smooth="yes"/>
      <point x="598" y="-221"/>
      <point x="527" y="-221" type="qcurve" smooth="yes"/>
      <point x="475" y="-221"/>
      <point x="432" y="-198" type="qcurve" smooth="yes"/>
      <point x="390" y="-174"/>
      <point x="371" y="-135" type="qcurve"/>
      <point x="343" y="-175"/>
      <point x="297" y="-198" type="qcurve" smooth="yes"/>
      <point x="252" y="-221"/>
      <point x="199" y="-221" type="qcurve" smooth="yes"/>
      <point x="115" y="-221"/>
      <point x="65" y="-177" type="qcurve" smooth="yes"/>
      <point x="14" y="-133"/>
      <point x="14" y="-59" type="qcurve" smooth="yes"/>
      <point x="14" y="6"/>
      <point x="65" y="46" type="qcurve" smooth="yes"/>
      <point x="117" y="85"/>
      <point x="202" y="85" type="qcurve" smooth="yes"/>
      <point x="504" y="85" type="line" smooth="yes"/>
      <point x="548" y="85"/>
      <point x="579" y="128" type="qcurve" smooth="yes"/>
      <point x="610" y="171"/>
      <point x="610" y="231" type="qcurve" smooth="yes"/>
      <point x="610" y="292"/>
      <point x="586" y="335" type="qcurve" smooth="yes"/>
      <point x="561" y="378"/>
      <point x="527" y="378" type="qcurve" smooth="yes"/>
      <point x="505" y="378"/>
      <point x="490" y="346" type="qcurve" smooth="yes"/>
      <point x="475" y="315"/>
      <point x="475" y="270" type="qcurve" smooth="yes"/>
      <point x="475" y="138" type="line"/>
      <point x="345" y="138" type="line"/>
      <point x="345" y="259" type="line" smooth="yes"/>
      <point x="345" y="308"/>
      <point x="303" y="343" type="qcurve" smooth="yes"/>
      <point x="261" y="378"/>
      <point x="201" y="378" type="qcurve" smooth="yes"/>
      <point x="139" y="378"/>
      <point x="96" y="343" type="qcurve" smooth="yes"/>
      <point x="52" y="307"/>
      <point x="52" y="257" type="qcurve" smooth="yes"/>
      <point x="52" y="225"/>
      <point x="68" y="199" type="qcurve" smooth="yes"/>
      <point x="84" y="174"/>
      <point x="111" y="164" type="qcurve"/>
      <point x="97" y="178"/>
      <point x="90" y="195" type="qcurve" smooth="yes"/>
      <point x="82" y="212"/>
      <point x="82" y="229" type="qcurve" smooth="yes"/>
      <point x="82" y="271"/>
      <point x="113" y="300" type="qcurve" smooth="yes"/>
      <point x="145" y="330"/>
      <point x="189" y="330" type="qcurve" smooth="yes"/>
      <point x="238" y="330"/>
      <point x="267" y="303" type="qcurve" smooth="yes"/>
      <point x="296" y="275"/>
      <point x="296" y="230" type="qcurve" smooth="yes"/>
      <point x="296" y="183"/>
      <point x="260" y="155" type="qcurve" smooth="yes"/>
      <point x="223" y="127"/>
      <point x="163" y="127" type="qcurve" smooth="yes"/>
      <point x="103" y="127"/>
      <point x="60" y="165" type="qcurve" smooth="yes"/>
      <point x="17" y="204"/>
      <point x="17" y="258" type="qcurve"/>
    </contour>
    <contour>
      <point x="210" y="225" type="line"/>
      <point x="210" y="254"/>
      <point x="196" y="274" type="qcurve" smooth="yes"/>
      <point x="181" y="295"/>
      <point x="161" y="295" type="qcurve" smooth="yes"/>
      <point x="143" y="295"/>
      <point x="130" y="276" type="qcurve" smooth="yes"/>
      <point x="117" y="256"/>
      <point x="117" y="229" type="qcurve" smooth="yes"/>
      <point x="117" y="201"/>
      <point x="130" y="182" type="qcurve" smooth="yes"/>
      <point x="143" y="162"/>
      <point x="161" y="162" type="qcurve" smooth="yes"/>
      <point x="181" y="162"/>
      <point x="196" y="180" type="qcurve" smooth="yes"/>
      <point x="210" y="199"/>
      <point x="210" y="225" type="qcurve"/>
    </contour>
  </outline>
</glyph>
<glyph name="uni0B92" format="1">
  <advance width="767"/>
  <unicode hex="0B92"/>
  <outline>
    <contour>
      <point x="20" y="156" type="line"/>
      <point x="20" y="276"/>
      <point x="110" y="348" type="qcurve" smooth="yes"/>
      <point x="200" y="420"/>
      <point x="350" y="420" type="qcurve" smooth="yes"/>
      <point x="531" y="420"/>
      <point x="639" y="347" type="qcurve" smooth="yes"/>
      <point x="748" y="275"/>
      <point x="748" y="154" type="qcurve" smooth="yes"/>
      <point x="748" y="83"/>
      <point x="702" y="41" type="qcurve" smooth="yes"/>
      <point x="657" y="-2"/>
      <point x="581" y="-2" type="qcurve" smooth="yes"/>
      <point x="525" y="-2"/>
      <point x="486" y="30" type="qcurve" smooth="yes"/>
      <point x="446" y="62"/>
      <point x="446" y="108" type="qcurve"/>
      <point x="451" y="131" type="line"/>
      <point x="429" y="116"/>
      <point x="416" y="91" type="qcurve" smooth="yes"/>
      <point x="404" y="67"/>
      <point x="404" y="40" type="qcurve" smooth="yes"/>
      <point x="404" y="-5"/>
      <point x="442" y="-37" type="qcurve" smooth="yes"/>
      <point x="481" y="-69"/>
      <point x="535" y="-69" type="qcurve" smooth="yes"/>
      <point x="644" y="-69" type="line"/>
      <point x="644" y="-104" type="line"/>
      <point x="489" y="-104" type="line" smooth="yes"/>
      <point x="469" y="-104"/>
      <point x="454" y="-125" type="qcurve" smooth="yes"/>
      <point x="440" y="-146"/>
      <point x="440" y="-176" type="qcurve" smooth="yes"/>
      <point x="440" y="-224"/>
      <point x="378" y="-253" type="qcurve" smooth="yes"/>
      <point x="315" y="-282"/>
      <point x="212" y="-282" type="qcurve" smooth="yes"/>
      <point x="141" y="-282"/>
      <point x="98" y="-251" type="qcurve" smooth="yes"/>
      <point x="55" y="-220"/>
      <point x="55" y="-168" type="qcurve" smooth="yes"/>
      <point x="55" y="-148"/>
      <point x="69" y="-128" type="qcurve" smooth="yes"/>
      <point x="83" y="-107"/>
      <point x="108" y="-92" type="qcurve"/>
      <point x="125" y="-110" type="line"/>
      <point x="108" y="-123"/>
      <point x="99" y="-138" type="qcurve" smooth="yes"/>
      <point x="90" y="-154"/>
      <point x="90" y="-169" type="qcurve" smooth="yes"/>
      <point x="90" y="-204"/>
      <point x="118" y="-226" type="qcurve" smooth="yes"/>
      <point x="147" y="-247"/>
      <point x="194" y="-247" type="qcurve" smooth="yes"/>
      <point x="247" y="-247"/>
      <point x="278" y="-227" type="qcurve" smooth="yes"/>
      <point x="310" y="-207"/>
      <point x="310" y="-174" type="qcurve" smooth="yes"/>
      <point x="310" y="-135"/>
      <point x="349" y="-108" type="qcurve" smooth="yes"/>
      <point x="387" y="-80"/>
      <point x="442" y="-80" type="qcurve"/>
      <point x="409" y="-69"/>
      <point x="389" y="-35" type="qcurve" smooth="yes"/>
      <point x="369" y="-1"/>
      <point x="369" y="43" type="qcurve" smooth="yes"/>
      <point x="369" y="97"/>
      <point x="407" y="135" type="qcurve" smooth="yes"/>
      <point x="445" y="173"/>
      <point x="498" y="173" type="qcurve"/>
      <point x="490" y="164"/>
      <point x="485" y="147" type="qcurve" smooth="yes"/>
      <point x="481" y="130"/>
      <point x="481" y="109" type="qcurve" smooth="yes"/>
      <point x="481" y="80"/>
      <point x="500" y="60" type="qcurve" smooth="yes"/>
      <point x="520" y="40"/>
      <point x="547" y="40" type="qcurve" smooth="yes"/>
      <point x="579" y="40"/>
      <point x="599" y="71" type="qcurve" smooth="yes"/>
      <point x="618" y="102"/>
      <point x="618" y="153" type="qcurve" smooth="yes"/>
      <point x="618" y="249"/>
      <point x="538" y="317" type="qcurve" smooth="yes"/>
      <point x="457" y="385"/>
      <point x="344" y="385" type="qcurve" smooth="yes"/>
      <point x="224" y="385"/>
      <point x="140" y="318" type="qcurve" smooth="yes"/>
      <point x="55" y="251"/>
      <point x="55" y="156" type="qcurve" smooth="yes"/>
      <point x="55" y="111"/>
      <point x="75" y="76" type="qcurve" smooth="yes"/>
      <point x="94" y="40"/>
      <point x="127" y="28" type="qcurve"/>
      <point x="109" y="44"/>
      <point x="100" y="64" type="qcurve" smooth="yes"/>
      <point x="90" y="84"/>
      <point x="90" y="105" type="qcurve" smooth="yes"/>
      <point x="90" y="154"/>
      <point x="127" y="188" type="qcurve" smooth="yes"/>
      <point x="163" y="223"/>
      <point x="215" y="223" type="qcurve" smooth="yes"/>
      <point x="272" y="223"/>
      <point x="306" y="189" type="qcurve" smooth="yes"/>
      <point x="340" y="156"/>
      <point x="340" y="100" type="qcurve" smooth="yes"/>
      <point x="340" y="50"/>
      <point x="304" y="20" type="qcurve" smooth="yes"/>
      <point x="268" y="-10"/>
      <point x="208" y="-10" type="qcurve" smooth="yes"/>
      <point x="123" y="-10"/>
      <point x="71" y="35" type="qcurve" smooth="yes"/>
      <point x="20" y="81"/>
      <point x="20" y="156" type="qcurve"/>
    </contour>
    <contour>
      <point x="243" y="104" type="line"/>
      <point x="243" y="133"/>
      <point x="226" y="153" type="qcurve" smooth="yes"/>
      <point x="209" y="173"/>
      <point x="185" y="173" type="qcurve" smooth="yes"/>
      <point x="160" y="173"/>
      <point x="143" y="153" type="qcurve" smooth="yes"/>
      <point x="125" y="134"/>
      <point x="125" y="106" type="qcurve" smooth="yes"/>
      <point x="125" y="79"/>
      <point x="143" y="59" type="qcurve" smooth="yes"/>
      <point x="160" y="40"/>
      <point x="185" y="40" type="qcurve" smooth="yes"/>
      <point x="209" y="40"/>
      <point x="226" y="59" type="qcurve" smooth="yes"/>
      <point x="243" y="77"/>
      <point x="243" y="104" type="qcurve"/>
    </contour>
  </outline>
</glyph>
<glyph name="uni0B93" format="1">
  <advance width="767"/>
  <unicode hex="0B93"/>
  <outline>
    <contour>
      <point x="20" y="156" type="line"/>
      <point x="20" y="276"/>
      <point x="110" y="348" type="qcurve" smooth="yes"/>
      <point x="200" y="420"/>
      <point x="350" y="420" type="qcurve" smooth="yes"/>
      <point x="531" y="420"/>
      <point x="639" y="347" type="qcurve" smooth="yes"/>
      <point x="748" y="275"/>
      <point x="748" y="154" type="qcurve" smooth="yes"/>
      <point x="748" y="83"/>
      <point x="702" y="41" type="qcurve" smooth="yes"/>
      <point x="657" y="-2"/>
      <point x="581" y="-2" type="qcurve" smooth="yes"/>
      <point x="525" y="-2"/>
      <point x="486" y="30" type="qcurve" smooth="yes"/>
      <point x="446" y="62"/>
      <point x="446" y="108" type="qcurve"/>
      <point x="451" y="131" type="line"/>
      <point x="429" y="116"/>
      <point x="416" y="91" type="qcurve" smooth="yes"/>
      <point x="404" y="67"/>
      <point x="404" y="40" type="qcurve" smooth="yes"/>
      <point x="404" y="-5"/>
      <point x="442" y="-37" type="qcurve" smooth="yes"/>
      <point x="481" y="-69"/>
      <point x="535" y="-69" type="qcurve" smooth="yes"/>
      <point x="644" y="-69" type="line"/>
      <point x="644" y="-104" type="line"/>
      <point x="534" y="-104" type="line" smooth="yes"/>
      <point x="498" y="-104"/>
      <point x="472" y="-125" type="qcurve" smooth="yes"/>
      <point x="446" y="-146"/>
      <point x="446" y="-176" type="qcurve" smooth="yes"/>
      <point x="446" y="-233"/>
      <point x="382" y="-268" type="qcurve" smooth="yes"/>
      <point x="319" y="-302"/>
      <point x="213" y="-302" type="qcurve" smooth="yes"/>
      <point x="141" y="-302"/>
      <point x="91" y="-264" type="qcurve" smooth="yes"/>
      <point x="40" y="-226"/>
      <point x="40" y="-173" type="qcurve" smooth="yes"/>
      <point x="40" y="-120"/>
      <point x="84" y="-82" type="qcurve" smooth="yes"/>
      <point x="128" y="-44"/>
      <point x="191" y="-44" type="qcurve" smooth="yes"/>
      <point x="235" y="-44"/>
      <point x="266" y="-71" type="qcurve" smooth="yes"/>
      <point x="297" y="-98"/>
      <point x="297" y="-137" type="qcurve" smooth="yes"/>
      <point x="297" y="-176"/>
      <point x="272" y="-203" type="qcurve" smooth="yes"/>
      <point x="247" y="-230"/>
      <point x="211" y="-230" type="qcurve" smooth="yes"/>
      <point x="173" y="-230"/>
      <point x="147" y="-209" type="qcurve" smooth="yes"/>
      <point x="120" y="-188"/>
      <point x="120" y="-158" type="qcurve" smooth="yes"/>
      <point x="120" y="-146"/>
      <point x="125" y="-135" type="qcurve" smooth="yes"/>
      <point x="129" y="-123"/>
      <point x="138" y="-115" type="qcurve"/>
      <point x="114" y="-115"/>
      <point x="97" y="-132" type="qcurve" smooth="yes"/>
      <point x="80" y="-150"/>
      <point x="80" y="-174" type="qcurve" smooth="yes"/>
      <point x="80" y="-216"/>
      <point x="117" y="-242" type="qcurve" smooth="yes"/>
      <point x="153" y="-267"/>
      <point x="214" y="-267" type="qcurve" smooth="yes"/>
      <point x="258" y="-267"/>
      <point x="284" y="-242" type="qcurve" smooth="yes"/>
      <point x="310" y="-216"/>
      <point x="310" y="-174" type="qcurve" smooth="yes"/>
      <point x="310" y="-135"/>
      <point x="349" y="-108" type="qcurve" smooth="yes"/>
      <point x="387" y="-80"/>
      <point x="442" y="-80" type="qcurve"/>
      <point x="409" y="-69"/>
      <point x="389" y="-36" type="qcurve" smooth="yes"/>
      <point x="369" y="-4"/>
      <point x="369" y="38" type="qcurve" smooth="yes"/>
      <point x="369" y="94"/>
      <point x="407" y="133" type="qcurve" smooth="yes"/>
      <point x="445" y="173"/>
      <point x="498" y="173" type="qcurve"/>
      <point x="490" y="164"/>
      <point x="485" y="147" type="qcurve" smooth="yes"/>
      <point x="481" y="130"/>
      <point x="481" y="109" type="qcurve" smooth="yes"/>
      <point x="481" y="80"/>
      <point x="500" y="59" type="qcurve" smooth="yes"/>
      <point x="520" y="38"/>
      <point x="547" y="38" type="qcurve" smooth="yes"/>
      <point x="576" y="38"/>
      <point x="597" y="72" type="qcurve" smooth="yes"/>
      <point x="618" y="105"/>
      <point x="618" y="153" type="qcurve" smooth="yes"/>
      <point x="618" y="258"/>
      <point x="543" y="322" type="qcurve" smooth="yes"/>
      <point x="468" y="385"/>
      <point x="344" y="385" type="qcurve" smooth="yes"/>
      <point x="213" y="385"/>
      <point x="134" y="322" type="qcurve" smooth="yes"/>
      <point x="55" y="260"/>
      <point x="55" y="156" type="qcurve" smooth="yes"/>
      <point x="55" y="111"/>
      <point x="75" y="76" type="qcurve" smooth="yes"/>
      <point x="94" y="40"/>
      <point x="127" y="28" type="qcurve"/>
      <point x="109" y="44"/>
      <point x="100" y="64" type="qcurve" smooth="yes"/>
      <point x="90" y="84"/>
      <point x="90" y="105" type="qcurve" smooth="yes"/>
      <point x="90" y="154"/>
      <point x="126" y="188" type="qcurve" smooth="yes"/>
      <point x="163" y="223"/>
      <point x="214" y="223" type="qcurve" smooth="yes"/>
      <point x="271" y="223"/>
      <point x="306" y="189" type="qcurve" smooth="yes"/>
      <point x="340" y="156"/>
      <point x="340" y="100" type="qcurve" smooth="yes"/>
      <point x="340" y="50"/>
      <point x="304" y="20" type="qcurve" smooth="yes"/>
      <point x="268" y="-10"/>
      <point x="208" y="-10" type="qcurve" smooth="yes"/>
      <point x="123" y="-10"/>
      <point x="71" y="35" type="qcurve" smooth="yes"/>
      <point x="20" y="81"/>
      <point x="20" y="156" type="qcurve"/>
    </contour>
    <contour>
      <point x="243" y="106" type="line"/>
      <point x="243" y="134"/>
      <point x="226" y="153" type="qcurve" smooth="yes"/>
      <point x="209" y="173"/>
      <point x="185" y="173" type="qcurve" smooth="yes"/>
      <point x="160" y="173"/>
      <point x="143" y="153" type="qcurve" smooth="yes"/>
      <point x="125" y="134"/>
      <point x="125" y="106" type="qcurve" smooth="yes"/>
      <point x="125" y="79"/>
      <point x="143" y="59" type="qcurve" smooth="yes"/>
      <point x="160" y="40"/>
      <point x="185" y="40" type="qcurve" smooth="yes"/>
      <point x="209" y="40"/>
      <point x="226" y="59" type="qcurve" smooth="yes"/>
      <point x="243" y="79"/>
      <point x="243" y="106" type="qcurve"/>
    </contour>
    <contour>
      <point x="251" y="-159" type="line"/>
      <point x="251" y="-142"/>
      <point x="238" y="-129" type="qcurve" smooth="yes"/>
      <point x="225" y="-117"/>
      <point x="207" y="-117" type="qcurve" smooth="yes"/>
      <point x="188" y="-117"/>
      <point x="175" y="-129" type="qcurve" smooth="yes"/>
      <point x="162" y="-142"/>
      <point x="162" y="-159" type="qcurve" smooth="yes"/>
      <point x="162" y="-176"/>
      <point x="175" y="-188" type="qcurve" smooth="yes"/>
      <point x="188" y="-200"/>
      <point x="207" y="-200" type="qcurve" smooth="yes"/>
      <point x="225" y="-200"/>
      <point x="238" y="-188" type="qcurve" smooth="yes"/>
      <point x="251" y="-176"/>
      <point x="251" y="-159" type="qcurve"/>
    </contour>
  </outline>
</glyph>
<glyph name="uni0B95" format="1">
  <advance width="619"/>
  <unicode hex="0B95"/>
  <outline>
    <contour>
      <point x="138" y="400" type="line"/>
      <point x="522" y="400" type="line"/>
      <point x="522" y="370" type="line"/>
      <point x="399" y="370" type="line"/>
      <point x="399" y="220" type="line"/>
      <point x="480" y="220" type="line" smooth="yes"/>
      <point x="537" y="220"/>
      <point x="571" y="191" type="qcurve" smooth="yes"/>
      <point x="605" y="162"/>
      <point x="605" y="114" type="qcurve" smooth="yes"/>
      <point x="605" y="53"/>
      <point x="557" y="26" type="qcurve" smooth="yes"/>
      <point x="509" y="0"/>
      <point x="399" y="0" type="qcurve"/>
      <point x="399" y="30" type="line"/>
      <point x="441" y="30"/>
      <point x="458" y="48" type="qcurve" smooth="yes"/>
      <point x="475" y="67"/>
      <point x="475" y="113" type="qcurve" smooth="yes"/>
      <point x="475" y="149"/>
      <point x="461" y="167" type="qcurve" smooth="yes"/>
      <point x="447" y="185"/>
      <point x="420" y="185" type="qcurve" smooth="yes"/>
      <point x="399" y="185" type="line"/>
      <point x="399" y="131" type="line" smooth="yes"/>
      <point x="399" y="65"/>
      <point x="340" y="32" type="qcurve" smooth="yes"/>
      <point x="282" y="-2"/>
      <point x="167" y="-2" type="qcurve" smooth="yes"/>
      <point x="103" y="-2"/>
      <point x="58" y="38" type="qcurve" smooth="yes"/>
      <point x="13" y="78"/>
      <point x="13" y="134" type="qcurve" smooth="yes"/>
      <point x="13" y="173"/>
      <point x="40" y="197" type="qcurve" smooth="yes"/>
      <point x="68" y="220"/>
      <point x="113" y="220" type="qcurve" smooth="yes"/>
      <point x="138" y="220" type="line"/>
      <point x="138" y="400" type="line"/>
    </contour>
    <contour>
      <point x="283" y="220" type="line"/>
      <point x="283" y="370" type="line"/>
      <point x="173" y="370" type="line"/>
      <point x="173" y="220" type="line"/>
      <point x="283" y="220" type="line"/>
    </contour>
    <contour>
      <point x="283" y="138" type="line"/>
      <point x="283" y="185" type="line"/>
      <point x="115" y="185" type="line" smooth="yes"/>
      <point x="85" y="185"/>
      <point x="66" y="171" type="qcurve" smooth="yes"/>
      <point x="48" y="158"/>
      <point x="48" y="135" type="qcurve" smooth="yes"/>
      <point x="48" y="89"/>
      <point x="81" y="61" type="qcurve" smooth="yes"/>
      <point x="114" y="33"/>
      <point x="168" y="33" type="qcurve" smooth="yes"/>
      <point x="216" y="33"/>
      <point x="249" y="64" type="qcurve" smooth="yes"/>
      <point x="283" y="95"/>
      <point x="283" y="138" type="qcurve"/>
    </contour>
  </outline>
</glyph>
<glyph name="uni0B99" format="1">
  <advance width="790"/>
  <unicode hex="0B99"/>
  <outline>
    <contour>
      <point x="745" y="0" type="line"/>
      <point x="218" y="0" type="line"/>
      <point x="218" y="30" type="line"/>
      <point x="384" y="30" type="line"/>
      <point x="412" y="45"/>
      <point x="428" y="77" type="qcurve" smooth="yes"/>
      <point x="444" y="108"/>
      <point x="444" y="147" type="qcurve" smooth="yes"/>
      <point x="444" y="186"/>
      <point x="426" y="213" type="qcurve" smooth="yes"/>
      <point x="408" y="240"/>
      <point x="383" y="240" type="qcurve" smooth="yes"/>
      <point x="369" y="240"/>
      <point x="358" y="227" type="qcurve" smooth="yes"/>
      <point x="348" y="215"/>
      <point x="348" y="197" type="qcurve" smooth="yes"/>
      <point x="348" y="110" type="line"/>
      <point x="218" y="110" type="line"/>
      <point x="218" y="370" type="line"/>
      <point x="80" y="370" type="line"/>
      <point x="80" y="0" type="line"/>
      <point x="45" y="0" type="line"/>
      <point x="45" y="400" type="line"/>
      <point x="509" y="400" type="line"/>
      <point x="509" y="370" type="line"/>
      <point x="348" y="370" type="line"/>
      <point x="348" y="257" type="line"/>
      <point x="390" y="285"/>
      <point x="442" y="285" type="qcurve" smooth="yes"/>
      <point x="502" y="285"/>
      <point x="538" y="247" type="qcurve" smooth="yes"/>
      <point x="574" y="210"/>
      <point x="574" y="147" type="qcurve" smooth="yes"/>
      <point x="574" y="109"/>
      <point x="551" y="77" type="qcurve" smooth="yes"/>
      <point x="528" y="45"/>
      <point x="490" y="30" type="qcurve"/>
      <point x="615" y="30" type="line"/>
      <point x="615" y="400" type="line"/>
      <point x="745" y="400" type="line"/>
      <point x="745" y="0" type="line"/>
    </contour>
  </outline>
</glyph>
<glyph name="uni0B9A" format="1">
  <advance width="532"/>
  <unicode hex="0B9A"/>
  <outline>
    <contour>
      <point x="524" y="185" type="line"/>
      <point x="414" y="185" type="line"/>
      <point x="414" y="137" type="line" smooth="yes"/>
      <point x="414" y="74"/>
      <point x="354" y="36" type="qcurve" smooth="yes"/>
      <point x="293" y="-2"/>
      <point x="193" y="-2" type="qcurve" smooth="yes"/>
      <point x="112" y="-2"/>
      <point x="63" y="36" type="qcurve" smooth="yes"/>
      <point x="14" y="74"/>
      <point x="14" y="137" type="qcurve" smooth="yes"/>
      <point x="14" y="175"/>
      <point x="41" y="197" type="qcurve" smooth="yes"/>
      <point x="69" y="220"/>
      <point x="114" y="220" type="qcurve" smooth="yes"/>
      <point x="128" y="220" type="line"/>
      <point x="128" y="400" type="line"/>
      <point x="524" y="400" type="line"/>
      <point x="524" y="370" type="line"/>
      <point x="414" y="370" type="line"/>
      <point x="414" y="220" type="line"/>
      <point x="524" y="220" type="line"/>
      <point x="524" y="185" type="line"/>
    </contour>
    <contour>
      <point x="284" y="220" type="line"/>
      <point x="284" y="370" type="line"/>
      <point x="163" y="370" type="line"/>
      <point x="163" y="220" type="line"/>
      <point x="284" y="220" type="line"/>
    </contour>
    <contour>
      <point x="284" y="137" type="line"/>
      <point x="284" y="185" type="line"/>
      <point x="116" y="185" type="line" smooth="yes"/>
      <point x="86" y="185"/>
      <point x="67" y="172" type="qcurve" smooth="yes"/>
      <point x="49" y="159"/>
      <point x="49" y="137" type="qcurve" smooth="yes"/>
      <point x="49" y="90"/>
      <point x="89" y="61" type="qcurve" smooth="yes"/>
      <point x="128" y="33"/>
      <point x="194" y="33" type="qcurve" smooth="yes"/>
      <point x="235" y="33"/>
      <point x="259" y="61" type="qcurve" smooth="yes"/>
      <point x="284" y="90"/>
      <point x="284" y="137" type="qcurve"/>
    </contour>
  </outline>
</glyph>
<glyph name="uni0B9C" format="1">
  <advance width="771"/>
  <unicode hex="0B9C"/>
  <outline>
    <contour>
      <point x="751" y="233" type="line"/>
      <point x="751" y="142"/>
      <point x="686" y="96" type="qcurve" smooth="yes"/>
      <point x="621" y="50"/>
      <point x="493" y="50" type="qcurve" smooth="yes"/>
      <point x="237" y="50" type="line" smooth="yes"/>
      <point x="187" y="50"/>
      <point x="152" y="17" type="qcurve" smooth="yes"/>
      <point x="117" y="-17"/>
      <point x="117" y="-64" type="qcurve" smooth="yes"/>
      <point x="117" y="-113"/>
      <point x="143" y="-148" type="qcurve" smooth="yes"/>
      <point x="170" y="-183"/>
      <point x="207" y="-183" type="qcurve" smooth="yes"/>
      <point x="237" y="-183"/>
      <point x="277" y="-158" type="qcurve" smooth="yes"/>
      <point x="317" y="-134"/>
      <point x="361" y="-88" type="qcurve" smooth="yes"/>
      <point x="406" y="-42"/>
      <point x="458" y="-16" type="qcurve" smooth="yes"/>
      <point x="510" y="9"/>
      <point x="560" y="9" type="qcurve" smooth="yes"/>
      <point x="647" y="9"/>
      <point x="699" y="-25" type="qcurve" smooth="yes"/>
      <point x="751" y="-58"/>
      <point x="751" y="-114" type="qcurve" smooth="yes"/>
      <point x="751" y="-166"/>
      <point x="698" y="-197" type="qcurve" smooth="yes"/>
      <point x="646" y="-228"/>
      <point x="558" y="-228" type="qcurve" smooth="yes"/>
      <point x="519" y="-228"/>
      <point x="486" y="-216" type="qcurve" smooth="yes"/>
      <point x="453" y="-204"/>
      <point x="431" y="-181" type="qcurve"/>
      <point x="446" y="-157" type="line"/>
      <point x="467" y="-174"/>
      <point x="496" y="-184" type="qcurve" smooth="yes"/>
      <point x="525" y="-193"/>
      <point x="558" y="-193" type="qcurve" smooth="yes"/>
      <point x="584" y="-193"/>
      <point x="603" y="-170" type="qcurve" smooth="yes"/>
      <point x="621" y="-146"/>
      <point x="621" y="-113" type="qcurve" smooth="yes"/>
      <point x="621" y="-77"/>
      <point x="600" y="-51" type="qcurve" smooth="yes"/>
      <point x="579" y="-26"/>
      <point x="549" y="-26" type="qcurve" smooth="yes"/>
      <point x="479" y="-26"/>
      <point x="376" y="-122" type="qcurve" smooth="yes"/>
      <point x="273" y="-218"/>
      <point x="203" y="-218" type="qcurve" smooth="yes"/>
      <point x="115" y="-218"/>
      <point x="61" y="-176" type="qcurve" smooth="yes"/>
      <point x="8" y="-134"/>
      <point x="8" y="-64" type="qcurve" smooth="yes"/>
      <point x="8" y="-2"/>
      <point x="68" y="41" type="qcurve" smooth="yes"/>
      <point x="128" y="85"/>
      <point x="212" y="85" type="qcurve" smooth="yes"/>
      <point x="494" y="85" type="line" smooth="yes"/>
      <point x="547" y="85"/>
      <point x="584" y="128" type="qcurve" smooth="yes"/>
      <point x="621" y="171"/>
      <point x="621" y="231" type="qcurve" smooth="yes"/>
      <point x="621" y="290"/>
      <point x="600" y="331" type="qcurve" smooth="yes"/>
      <point x="578" y="373"/>
      <point x="548" y="373" type="qcurve" smooth="yes"/>
      <point x="519" y="373"/>
      <point x="498" y="343" type="qcurve" smooth="yes"/>
      <point x="477" y="313"/>
      <point x="477" y="271" type="qcurve" smooth="yes"/>
      <point x="477" y="138" type="line"/>
      <point x="347" y="138" type="line"/>
      <point x="347" y="259" type="line" smooth="yes"/>
      <point x="347" y="306"/>
      <point x="301" y="340" type="qcurve" smooth="yes"/>
      <point x="255" y="373"/>
      <point x="190" y="373" type="qcurve" smooth="yes"/>
      <point x="133" y="373"/>
      <point x="92" y="339" type="qcurve" smooth="yes"/>
      <point x="52" y="305"/>
      <point x="52" y="257" type="qcurve" smooth="yes"/>
      <point x="52" y="216"/>
      <point x="72" y="186" type="qcurve" smooth="yes"/>
      <point x="92" y="157"/>
      <point x="121" y="154" type="qcurve"/>
      <point x="104" y="160"/>
      <point x="93" y="180" type="qcurve" smooth="yes"/>
      <point x="82" y="201"/>
      <point x="82" y="229" type="qcurve" smooth="yes"/>
      <point x="82" y="275"/>
      <point x="111" y="302" type="qcurve" smooth="yes"/>
      <point x="140" y="330"/>
      <point x="189" y="330" type="qcurve" smooth="yes"/>
      <point x="238" y="330"/>
      <point x="267" y="301" type="qcurve" smooth="yes"/>
      <point x="296" y="273"/>
      <point x="296" y="225" type="qcurve" smooth="yes"/>
      <point x="296" y="181"/>
      <point x="261" y="154" type="qcurve" smooth="yes"/>
      <point x="226" y="127"/>
      <point x="168" y="127" type="qcurve" smooth="yes"/>
      <point x="99" y="127"/>
      <point x="58" y="163" type="qcurve" smooth="yes"/>
      <point x="17" y="199"/>
      <point x="17" y="258" type="qcurve" smooth="yes"/>
      <point x="17" y="320"/>
      <point x="73" y="364" type="qcurve" smooth="yes"/>
      <point x="129" y="408"/>
      <point x="209" y="408" type="qcurve" smooth="yes"/>
      <point x="275" y="408"/>
      <point x="328" y="385" type="qcurve" smooth="yes"/>
      <point x="380" y="361"/>
      <point x="407" y="320" type="qcurve"/>
      <point x="422" y="360"/>
      <point x="464" y="384" type="qcurve" smooth="yes"/>
      <point x="506" y="408"/>
      <point x="560" y="408" type="qcurve" smooth="yes"/>
      <point x="655" y="408"/>
      <point x="703" y="364" type="qcurve" smooth="yes"/>
      <point x="751" y="320"/>
      <point x="751" y="233" type="qcurve"/>
    </contour>
    <contour>
      <point x="210" y="225" type="line"/>
      <point x="210" y="254"/>
      <point x="196" y="274" type="qcurve" smooth="yes"/>
      <point x="181" y="295"/>
      <point x="161" y="295" type="qcurve" smooth="yes"/>
      <point x="143" y="295"/>
      <point x="130" y="276" type="qcurve" smooth="yes"/>
      <point x="117" y="256"/>
      <point x="117" y="229" type="qcurve" smooth="yes"/>
      <point x="117" y="201"/>
      <point x="130" y="182" type="qcurve" smooth="yes"/>
      <point x="143" y="162"/>
      <point x="161" y="162" type="qcurve" smooth="yes"/>
      <point x="181" y="162"/>
      <point x="196" y="180" type="qcurve" smooth="yes"/>
      <point x="210" y="199"/>
      <point x="210" y="225" type="qcurve"/>
    </contour>
  </outline>
</glyph>
<glyph name="uni0B9E" format="1">
  <advance width="1016"/>
  <unicode hex="0B9E"/>
  <outline>
    <contour>
      <point x="998" y="88" type="line"/>
      <point x="998" y="-77"/>
      <point x="856" y="-168" type="qcurve" smooth="yes"/>
      <point x="713" y="-259"/>
      <point x="456" y="-259" type="qcurve" smooth="yes"/>
      <point x="269" y="-259"/>
      <point x="146" y="-150" type="qcurve" smooth="yes"/>
      <point x="24" y="-41"/>
      <point x="24" y="126" type="qcurve" smooth="yes"/>
      <point x="24" y="195"/>
      <point x="56" y="265" type="qcurve" smooth="yes"/>
      <point x="89" y="335"/>
      <point x="149" y="395" type="qcurve"/>
      <point x="169" y="373" type="line"/>
      <point x="116" y="318"/>
      <point x="88" y="254" type="qcurve" smooth="yes"/>
      <point x="59" y="190"/>
      <point x="59" y="125" type="qcurve" smooth="yes"/>
      <point x="59" y="-26"/>
      <point x="172" y="-125" type="qcurve" smooth="yes"/>
      <point x="284" y="-224"/>
      <point x="456" y="-224" type="qcurve" smooth="yes"/>
      <point x="651" y="-224"/>
      <point x="760" y="-142" type="qcurve" smooth="yes"/>
      <point x="868" y="-59"/>
      <point x="868" y="89" type="qcurve" smooth="yes"/>
      <point x="868" y="136"/>
      <point x="842" y="169" type="qcurve" smooth="yes"/>
      <point x="816" y="202"/>
      <point x="779" y="202" type="qcurve" smooth="yes"/>
      <point x="763" y="202"/>
      <point x="752" y="188" type="qcurve" smooth="yes"/>
      <point x="741" y="174"/>
      <point x="741" y="155" type="qcurve" smooth="yes"/>
      <point x="741" y="0" type="line"/>
      <point x="611" y="0" type="line"/>
      <point x="611" y="370" type="line"/>
      <point x="442" y="370" type="line" smooth="yes"/>
      <point x="344" y="370"/>
      <point x="274" y="316" type="qcurve" smooth="yes"/>
      <point x="205" y="262"/>
      <point x="205" y="185" type="qcurve" smooth="yes"/>
      <point x="205" y="138"/>
      <point x="221" y="102" type="qcurve" smooth="yes"/>
      <point x="238" y="66"/>
      <point x="266" y="50" type="qcurve"/>
      <point x="255" y="62"/>
      <point x="250" y="80" type="qcurve" smooth="yes"/>
      <point x="244" y="98"/>
      <point x="244" y="120" type="qcurve" smooth="yes"/>
      <point x="244" y="184"/>
      <point x="285" y="223" type="qcurve" smooth="yes"/>
      <point x="326" y="262"/>
      <point x="394" y="262" type="qcurve" smooth="yes"/>
      <point x="462" y="262"/>
      <point x="503" y="226" type="qcurve" smooth="yes"/>
      <point x="544" y="189"/>
      <point x="544" y="129" type="qcurve" smooth="yes"/>
      <point x="544" y="69"/>
      <point x="496" y="33" type="qcurve" smooth="yes"/>
      <point x="449" y="-3"/>
      <point x="370" y="-3" type="qcurve" smooth="yes"/>
      <point x="279" y="-3"/>
      <point x="225" y="48" type="qcurve" smooth="yes"/>
      <point x="170" y="99"/>
      <point x="170" y="184" type="qcurve" smooth="yes"/>
      <point x="170" y="278"/>
      <point x="248" y="339" type="qcurve" smooth="yes"/>
      <point x="325" y="400"/>
      <point x="444" y="400" type="qcurve" smooth="yes"/>
      <point x="837" y="400" type="line"/>
      <point x="837" y="370" type="line"/>
      <point x="741" y="370" type="line"/>
      <point x="741" y="228" type="line"/>
      <point x="778" y="252"/>
      <point x="824" y="252" type="qcurve" smooth="yes"/>
      <point x="903" y="252"/>
      <point x="950" y="207" type="qcurve" smooth="yes"/>
      <point x="998" y="162"/>
      <point x="998" y="88" type="qcurve"/>
    </contour>
    <contour>
      <point x="414" y="119" type="line"/>
      <point x="414" y="154"/>
      <point x="393" y="178" type="qcurve" smooth="yes"/>
      <point x="373" y="203"/>
      <point x="344" y="203" type="qcurve" smooth="yes"/>
      <point x="317" y="203"/>
      <point x="298" y="178" type="qcurve" smooth="yes"/>
      <point x="279" y="153"/>
      <point x="279" y="117" type="qcurve" smooth="yes"/>
      <point x="279" y="82"/>
      <point x="298" y="57" type="qcurve" smooth="yes"/>
      <point x="317" y="32"/>
      <point x="344" y="32" type="qcurve" smooth="yes"/>
      <point x="373" y="32"/>
      <point x="393" y="57" type="qcurve" smooth="yes"/>
      <point x="414" y="83"/>
      <point x="414" y="119" type="qcurve"/>
    </contour>
  </outline>
</glyph>
<glyph name="uni0B9F" format="1">
  <advance width="802"/>
  <unicode hex="0B9F"/>
  <outline>
    <contour>
      <point x="799" y="0" type="line"/>
      <point x="45" y="0" type="line"/>
      <point x="45" y="400" type="line"/>
      <point x="175" y="400" type="line"/>
      <point x="175" y="30" type="line"/>
      <point x="799" y="30" type="line"/>
      <point x="799" y="0" type="line"/>
    </contour>
  </outline>
</glyph>
<glyph name="uni0BA3" format="1">
  <advance width="1229"/>
  <unicode hex="0BA3"/>
  <outline>
    <contour>
      <point x="20" y="173" type="line"/>
      <point x="20" y="278"/>
      <point x="98" y="342" type="qcurve" smooth="yes"/>
      <point x="176" y="405"/>
      <point x="306" y="405" type="qcurve" smooth="yes"/>
      <point x="387" y="405"/>
      <point x="444" y="393" type="qcurve" smooth="yes"/>
      <point x="501" y="382"/>
      <point x="528" y="360" type="qcurve"/>
      <point x="555" y="382"/>
      <point x="589" y="393" type="qcurve" smooth="yes"/>
      <point x="623" y="405"/>
      <point x="660" y="405" type="qcurve" smooth="yes"/>
      <point x="714" y="405"/>
      <point x="759" y="393" type="qcurve" smooth="yes"/>
      <point x="803" y="380"/>
      <point x="833" y="357" type="qcurve"/>
      <point x="892" y="400"/>
      <point x="960" y="400" type="qcurve" smooth="yes"/>
      <point x="1226" y="400" type="line"/>
      <point x="1226" y="370" type="line"/>
      <point x="1144" y="370" type="line"/>
      <point x="1144" y="0" type="line"/>
      <point x="1014" y="0" type="line"/>
      <point x="1014" y="370" type="line"/>
      <point x="963" y="370" type="line" smooth="yes"/>
      <point x="913" y="370"/>
      <point x="873" y="340" type="qcurve"/>
      <point x="919" y="297"/>
      <point x="945" y="244" type="qcurve" smooth="yes"/>
      <point x="970" y="191"/>
      <point x="970" y="137" type="qcurve" smooth="yes"/>
      <point x="970" y="76"/>
      <point x="929" y="32" type="qcurve" smooth="yes"/>
      <point x="889" y="-11"/>
      <point x="831" y="-11" type="qcurve" smooth="yes"/>
      <point x="774" y="-11"/>
      <point x="733" y="32" type="qcurve" smooth="yes"/>
      <point x="693" y="76"/>
      <point x="693" y="137" type="qcurve" smooth="yes"/>
      <point x="693" y="187"/>
      <point x="711" y="234" type="qcurve" smooth="yes"/>
      <point x="729" y="282"/>
      <point x="762" y="320" type="qcurve"/>
      <point x="741" y="344"/>
      <point x="712" y="357" type="qcurve" smooth="yes"/>
      <point x="684" y="370"/>
      <point x="653" y="370" type="qcurve" smooth="yes"/>
      <point x="631" y="370"/>
      <point x="608" y="361" type="qcurve" smooth="yes"/>
      <point x="585" y="352"/>
      <point x="564" y="335" type="qcurve"/>
      <point x="613" y="292"/>
      <point x="640" y="241" type="qcurve" smooth="yes"/>
      <point x="667" y="189"/>
      <point x="667" y="137" type="qcurve" smooth="yes"/>
      <point x="667" y="76"/>
      <point x="625" y="32" type="qcurve" smooth="yes"/>
      <point x="583" y="-11"/>
      <point x="524" y="-11" type="qcurve" smooth="yes"/>
      <point x="465" y="-11"/>
      <point x="423" y="32" type="qcurve" smooth="yes"/>
      <point x="381" y="76"/>
      <point x="381" y="137" type="qcurve" smooth="yes"/>
      <point x="381" y="189"/>
      <point x="399" y="236" type="qcurve" smooth="yes"/>
      <point x="417" y="283"/>
      <point x="450" y="317" type="qcurve"/>
      <point x="421" y="343"/>
      <point x="378" y="356" type="qcurve" smooth="yes"/>
      <point x="336" y="370"/>
      <point x="286" y="370" type="qcurve" smooth="yes"/>
      <point x="190" y="370"/>
      <point x="123" y="313" type="qcurve" smooth="yes"/>
      <point x="55" y="256"/>
      <point x="55" y="175" type="qcurve" smooth="yes"/>
      <point x="55" y="125"/>
      <point x="73" y="87" type="qcurve" smooth="yes"/>
      <point x="91" y="50"/>
      <point x="121" y="39" type="qcurve"/>
      <point x="108" y="53"/>
      <point x="102" y="74" type="qcurve" smooth="yes"/>
      <point x="95" y="94"/>
      <point x="95" y="118" type="qcurve" smooth="yes"/>
      <point x="95" y="180"/>
      <point x="132" y="217" type="qcurve" smooth="yes"/>
      <point x="169" y="254"/>
      <point x="230" y="254" type="qcurve" smooth="yes"/>
      <point x="286" y="254"/>
      <point x="326" y="215" type="qcurve" smooth="yes"/>
      <point x="366" y="176"/>
      <point x="366" y="120" type="qcurve" smooth="yes"/>
      <point x="366" y="61"/>
      <point x="318" y="25" type="qcurve" smooth="yes"/>
      <point x="269" y="-11"/>
      <point x="189" y="-11" type="qcurve" smooth="yes"/>
      <point x="119" y="-11"/>
      <point x="69" y="43" type="qcurve" smooth="yes"/>
      <point x="20" y="97"/>
      <point x="20" y="173" type="qcurve"/>
    </contour>
    <contour>
      <point x="840" y="137" type="line"/>
      <point x="840" y="182"/>
      <point x="825" y="221" type="qcurve" smooth="yes"/>
      <point x="811" y="260"/>
      <point x="784" y="288" type="qcurve"/>
      <point x="757" y="261"/>
      <point x="743" y="222" type="qcurve" smooth="yes"/>
      <point x="728" y="183"/>
      <point x="728" y="137" type="qcurve" smooth="yes"/>
      <point x="728" y="98"/>
      <point x="745" y="71" type="qcurve" smooth="yes"/>
      <point x="762" y="44"/>
      <point x="786" y="44" type="qcurve" smooth="yes"/>
      <point x="808" y="44"/>
      <point x="824" y="71" type="qcurve" smooth="yes"/>
      <point x="840" y="98"/>
      <point x="840" y="137" type="qcurve"/>
    </contour>
    <contour>
      <point x="537" y="137" type="line"/>
      <point x="537" y="180"/>
      <point x="521" y="219" type="qcurve" smooth="yes"/>
      <point x="505" y="259"/>
      <point x="476" y="289" type="qcurve"/>
      <point x="447" y="258"/>
      <point x="432" y="219" type="qcurve" smooth="yes"/>
      <point x="416" y="179"/>
      <point x="416" y="137" type="qcurve" smooth="yes"/>
      <point x="416" y="98"/>
      <point x="434" y="71" type="qcurve" smooth="yes"/>
      <point x="451" y="44"/>
      <point x="476" y="44" type="qcurve" smooth="yes"/>
      <point x="501" y="44"/>
      <point x="519" y="71" type="qcurve" smooth="yes"/>
      <point x="537" y="98"/>
      <point x="537" y="137" type="qcurve"/>
    </contour>
    <contour>
      <point x="236" y="118" type="line"/>
      <point x="236" y="147"/>
      <point x="220" y="168" type="qcurve" smooth="yes"/>
      <point x="203" y="189"/>
      <point x="180" y="189" type="qcurve" smooth="yes"/>
      <point x="159" y="189"/>
      <point x="145" y="168" type="qcurve" smooth="yes"/>
      <point x="130" y="147"/>
      <point x="130" y="117" type="qcurve" smooth="yes"/>
      <point x="130" y="87"/>
      <point x="145" y="65" type="qcurve" smooth="yes"/>
      <point x="159" y="44"/>
      <point x="180" y="44" type="qcurve" smooth="yes"/>
      <point x="203" y="44"/>
      <point x="220" y="66" type="qcurve" smooth="yes"/>
      <point x="236" y="87"/>
      <point x="236" y="118" type="qcurve"/>
    </contour>
  </outline>
</glyph>
<glyph name="uni0BA4" format="1">
  <advance width="638"/>
  <unicode hex="0BA4"/>
  <outline>
    <contour>
      <point x="622" y="85" type="line"/>
      <point x="622" y="2"/>
      <point x="551" y="-48" type="qcurve" smooth="yes"/>
      <point x="480" y="-98"/>
      <point x="362" y="-98" type="qcurve" smooth="yes"/>
      <point x="111" y="-98" type="line" smooth="yes"/>
      <point x="79" y="-98"/>
      <point x="56" y="-112" type="qcurve" smooth="yes"/>
      <point x="33" y="-127"/>
      <point x="33" y="-147" type="qcurve"/>
      <point x="40" y="-141"/>
      <point x="48" y="-138" type="qcurve" smooth="yes"/>
      <point x="56" y="-135"/>
      <point x="65" y="-135" type="qcurve" smooth="yes"/>
      <point x="89" y="-135"/>
      <point x="106" y="-148" type="qcurve" smooth="yes"/>
      <point x="123" y="-160"/>
      <point x="123" y="-178" type="qcurve" smooth="yes"/>
      <point x="123" y="-196"/>
      <point x="103" y="-209" type="qcurve" smooth="yes"/>
      <point x="83" y="-222"/>
      <point x="55" y="-222" type="qcurve" smooth="yes"/>
      <point x="29" y="-222"/>
      <point x="11" y="-206" type="qcurve" smooth="yes"/>
      <point x="-7" y="-191"/>
      <point x="-7" y="-169" type="qcurve" smooth="yes"/>
      <point x="-7" y="-125"/>
      <point x="29" y="-94" type="qcurve" smooth="yes"/>
      <point x="64" y="-63"/>
      <point x="115" y="-63" type="qcurve" smooth="yes"/>
      <point x="341" y="-63" type="line" smooth="yes"/>
      <point x="404" y="-63"/>
      <point x="448" y="-19" type="qcurve" smooth="yes"/>
      <point x="492" y="25"/>
      <point x="492" y="88" type="qcurve" smooth="yes"/>
      <point x="492" y="128"/>
      <point x="476" y="157" type="qcurve" smooth="yes"/>
      <point x="460" y="185"/>
      <point x="438" y="185" type="qcurve" smooth="yes"/>
      <point x="413" y="185" type="line"/>
      <point x="413" y="131" type="line" smooth="yes"/>
      <point x="413" y="65"/>
      <point x="354" y="32" type="qcurve" smooth="yes"/>
      <point x="296" y="-2"/>
      <point x="181" y="-2" type="qcurve" smooth="yes"/>
      <point x="111" y="-2"/>
      <point x="62" y="38" type="qcurve" smooth="yes"/>
      <point x="13" y="78"/>
      <point x="13" y="134" type="qcurve" smooth="yes"/>
      <point x="13" y="173"/>
      <point x="41" y="197" type="qcurve" smooth="yes"/>
      <point x="70" y="220"/>
      <point x="117" y="220" type="qcurve" smooth="yes"/>
      <point x="133" y="220" type="line"/>
      <point x="133" y="400" type="line"/>
      <point x="522" y="400" type="line"/>
      <point x="522" y="370" type="line"/>
      <point x="413" y="370" type="line"/>
      <point x="413" y="220" type="line"/>
      <point x="484" y="220" type="line" smooth="yes"/>
      <point x="541" y="220"/>
      <point x="582" y="180" type="qcurve" smooth="yes"/>
      <point x="622" y="141"/>
      <point x="622" y="85" type="qcurve"/>
    </contour>
    <contour>
      <point x="283" y="220" type="line"/>
      <point x="283" y="370" type="line"/>
      <point x="168" y="370" type="line"/>
      <point x="168" y="220" type="line"/>
      <point x="283" y="220" type="line"/>
    </contour>
    <contour>
      <point x="283" y="138" type="line"/>
      <point x="283" y="185" type="line"/>
      <point x="115" y="185" type="line" smooth="yes"/>
      <point x="87" y="185"/>
      <point x="68" y="170" type="qcurve" smooth="yes"/>
      <point x="48" y="156"/>
      <point x="48" y="135" type="qcurve" smooth="yes"/>
      <point x="48" y="89"/>
      <point x="85" y="61" type="qcurve" smooth="yes"/>
      <point x="121" y="33"/>
      <point x="182" y="33" type="qcurve" smooth="yes"/>
      <point x="224" y="33"/>
      <point x="253" y="64" type="qcurve" smooth="yes"/>
      <point x="283" y="95"/>
      <point x="283" y="138" type="qcurve"/>
    </contour>
  </outline>
</glyph>
<glyph name="uni0BA8" format="1">
  <advance width="614"/>
  <unicode hex="0BA8"/>
  <outline>
    <contour>
      <point x="596" y="103" type="line"/>
      <point x="596" y="8"/>
      <point x="518" y="-45" type="qcurve" smooth="yes"/>
      <point x="441" y="-98"/>
      <point x="301" y="-98" type="qcurve" smooth="yes"/>
      <point x="124" y="-98" type="line" smooth="yes"/>
      <point x="93" y="-98"/>
      <point x="72" y="-111" type="qcurve" smooth="yes"/>
      <point x="50" y="-124"/>
      <point x="50" y="-142" type="qcurve"/>
      <point x="55" y="-141"/>
      <point x="63" y="-138" type="qcurve" smooth="yes"/>
      <point x="70" y="-135"/>
      <point x="73" y="-135" type="qcurve" smooth="yes"/>
      <point x="97" y="-135"/>
      <point x="113" y="-148" type="qcurve" smooth="yes"/>
      <point x="130" y="-162"/>
      <point x="130" y="-181" type="qcurve" smooth="yes"/>
      <point x="130" y="-197"/>
      <point x="112" y="-209" type="qcurve" smooth="yes"/>
      <point x="93" y="-220"/>
      <point x="67" y="-220" type="qcurve" smooth="yes"/>
      <point x="41" y="-220"/>
      <point x="23" y="-205" type="qcurve" smooth="yes"/>
      <point x="5" y="-190"/>
      <point x="5" y="-169" type="qcurve" smooth="yes"/>
      <point x="5" y="-125"/>
      <point x="41" y="-94" type="qcurve" smooth="yes"/>
      <point x="77" y="-63"/>
      <point x="128" y="-63" type="qcurve" smooth="yes"/>
      <point x="304" y="-63" type="line" smooth="yes"/>
      <point x="388" y="-63"/>
      <point x="427" y="-22" type="qcurve" smooth="yes"/>
      <point x="466" y="18"/>
      <point x="466" y="105" type="qcurve" smooth="yes"/>
      <point x="466" y="151"/>
      <point x="444" y="184" type="qcurve" smooth="yes"/>
      <point x="422" y="217"/>
      <point x="391" y="217" type="qcurve" smooth="yes"/>
      <point x="374" y="217"/>
      <point x="363" y="206" type="qcurve" smooth="yes"/>
      <point x="351" y="195"/>
      <point x="351" y="179" type="qcurve" smooth="yes"/>
      <point x="351" y="0" type="line"/>
      <point x="221" y="0" type="line"/>
      <point x="221" y="370" type="line"/>
      <point x="80" y="370" type="line"/>
      <point x="80" y="0" type="line"/>
      <point x="45" y="0" type="line"/>
      <point x="45" y="400" type="line"/>
      <point x="512" y="400" type="line"/>
      <point x="512" y="370" type="line"/>
      <point x="351" y="370" type="line"/>
      <point x="351" y="230" type="line"/>
      <point x="388" y="257"/>
      <point x="440" y="257" type="qcurve" smooth="yes"/>
      <point x="505" y="257"/>
      <point x="550" y="212" type="qcurve" smooth="yes"/>
      <point x="596" y="167"/>
      <point x="596" y="103" type="qcurve"/>
    </contour>
  </outline>
</glyph>
<glyph name="uni0BA9" format="1">
  <advance width="926"/>
  <unicode hex="0BA9"/>
  <outline>
    <contour>
      <point x="922" y="367" type="line"/>
      <point x="840" y="367" type="line"/>
      <point x="840" y="0" type="line"/>
      <point x="710" y="0" type="line"/>
      <point x="710" y="367" type="line"/>
      <point x="659" y="367" type="line" smooth="yes"/>
      <point x="629" y="367"/>
      <point x="606" y="360" type="qcurve" smooth="yes"/>
      <point x="584" y="354"/>
      <point x="573" y="342" type="qcurve"/>
      <point x="615" y="307"/>
      <point x="638" y="253" type="qcurve" smooth="yes"/>
      <point x="661" y="199"/>
      <point x="661" y="137" type="qcurve" smooth="yes"/>
      <point x="661" y="73"/>
      <point x="623" y="34" type="qcurve" smooth="yes"/>
      <point x="586" y="-5"/>
      <point x="523" y="-5" type="qcurve" smooth="yes"/>
      <point x="460" y="-5"/>
      <point x="423" y="34" type="qcurve" smooth="yes"/>
      <point x="385" y="73"/>
      <point x="385" y="137" type="qcurve" smooth="yes"/>
      <point x="385" y="195"/>
      <point x="403" y="242" type="qcurve" smooth="yes"/>
      <point x="421" y="289"/>
      <point x="453" y="317" type="qcurve"/>
      <point x="417" y="346"/>
      <point x="375" y="362" type="qcurve" smooth="yes"/>
      <point x="333" y="377"/>
      <point x="289" y="377" type="qcurve" smooth="yes"/>
      <point x="183" y="377"/>
      <point x="120" y="321" type="qcurve" smooth="yes"/>
      <point x="56" y="265"/>
      <point x="56" y="172" type="qcurve" smooth="yes"/>
      <point x="56" y="121"/>
      <point x="77" y="83" type="qcurve" smooth="yes"/>
      <point x="98" y="45"/>
      <point x="131" y="35" type="qcurve"/>
      <point x="115" y="46"/>
      <point x="105" y="70" type="qcurve" smooth="yes"/>
      <point x="96" y="95"/>
      <point x="96" y="127" type="qcurve" smooth="yes"/>
      <point x="96" y="185"/>
      <point x="133" y="219" type="qcurve" smooth="yes"/>
      <point x="170" y="254"/>
      <point x="231" y="254" type="qcurve" smooth="yes"/>
      <point x="293" y="254"/>
      <point x="330" y="219" type="qcurve" smooth="yes"/>
      <point x="367" y="184"/>
      <point x="367" y="125" type="qcurve" smooth="yes"/>
      <point x="367" y="66"/>
      <point x="323" y="31" type="qcurve" smooth="yes"/>
      <point x="280" y="-5"/>
      <point x="207" y="-5" type="qcurve" smooth="yes"/>
      <point x="123" y="-5"/>
      <point x="72" y="43" type="qcurve" smooth="yes"/>
      <point x="21" y="91"/>
      <point x="21" y="170" type="qcurve" smooth="yes"/>
      <point x="21" y="280"/>
      <point x="98" y="346" type="qcurve" smooth="yes"/>
      <point x="174" y="412"/>
      <point x="302" y="412" type="qcurve" smooth="yes"/>
      <point x="382" y="412"/>
      <point x="442" y="398" type="qcurve" smooth="yes"/>
      <point x="502" y="384"/>
      <point x="536" y="358" type="qcurve"/>
      <point x="553" y="378"/>
      <point x="586" y="389" type="qcurve" smooth="yes"/>
      <point x="618" y="400"/>
      <point x="660" y="400" type="qcurve" smooth="yes"/>
      <point x="922" y="400" type="line"/>
      <point x="922" y="367" type="line"/>
    </contour>
    <contour>
      <point x="531" y="137" type="line"/>
      <point x="531" y="186"/>
      <point x="516" y="226" type="qcurve" smooth="yes"/>
      <point x="501" y="266"/>
      <point x="473" y="289" type="qcurve"/>
      <point x="448" y="270"/>
      <point x="434" y="230" type="qcurve" smooth="yes"/>
      <point x="420" y="190"/>
      <point x="420" y="137" type="qcurve" smooth="yes"/>
      <point x="420" y="98"/>
      <point x="436" y="70" type="qcurve" smooth="yes"/>
      <point x="451" y="42"/>
      <point x="473" y="42" type="qcurve" smooth="yes"/>
      <point x="497" y="42"/>
      <point x="514" y="70" type="qcurve" smooth="yes"/>
      <point x="531" y="98"/>
      <point x="531" y="137" type="qcurve"/>
    </contour>
    <contour>
      <point x="237" y="120" type="line"/>
      <point x="237" y="153"/>
      <point x="221" y="176" type="qcurve" smooth="yes"/>
      <point x="204" y="199"/>
      <point x="181" y="199" type="qcurve" smooth="yes"/>
      <point x="160" y="199"/>
      <point x="146" y="176" type="qcurve" smooth="yes"/>
      <point x="131" y="154"/>
      <point x="131" y="122" type="qcurve" smooth="yes"/>
      <point x="131" y="89"/>
      <point x="146" y="65" type="qcurve" smooth="yes"/>
      <point x="160" y="42"/>
      <point x="181" y="42" type="qcurve" smooth="yes"/>
      <point x="204" y="42"/>
      <point x="221" y="65" type="qcurve" smooth="yes"/>
      <point x="237" y="88"/>
      <point x="237" y="120" type="qcurve"/>
    </contour>
  </outline>
</glyph>
<glyph name="uni0BAA" format="1">
  <advance width="692"/>
  <unicode hex="0BAA"/>
  <outline>
    <contour>
      <point x="647" y="0" type="line"/>
      <point x="45" y="0" type="line"/>
      <point x="45" y="400" type="line"/>
      <point x="175" y="400" type="line"/>
      <point x="175" y="30" type="line"/>
      <point x="517" y="30" type="line"/>
      <point x="517" y="400" type="line"/>
      <point x="647" y="400" type="line"/>
      <point x="647" y="0" type="line"/>
    </contour>
  </outline>
</glyph>
<glyph name="uni0BAE" format="1">
  <advance width="667"/>
  <unicode hex="0BAE"/>
  <outline>
    <contour>
      <point x="319" y="272" type="line"/>
      <point x="319" y="328"/>
      <point x="361" y="367" type="qcurve" smooth="yes"/>
      <point x="403" y="406"/>
      <point x="462" y="406" type="qcurve" smooth="yes"/>
      <point x="544" y="406"/>
      <point x="594" y="344" type="qcurve" smooth="yes"/>
      <point x="643" y="281"/>
      <point x="643" y="178" type="qcurve" smooth="yes"/>
      <point x="643" y="97"/>
      <point x="610" y="49" type="qcurve" smooth="yes"/>
      <point x="577" y="0"/>
      <point x="522" y="0" type="qcurve" smooth="yes"/>
      <point x="45" y="0" type="line"/>
      <point x="45" y="400" type="line"/>
      <point x="175" y="400" type="line"/>
      <point x="175" y="30" type="line"/>
      <point x="319" y="30" type="line"/>
      <point x="319" y="272" type="line"/>
    </contour>
    <contour>
      <point x="449" y="275" type="line"/>
      <point x="449" y="30" type="line"/>
      <point x="512" y="30" type="line" smooth="yes"/>
      <point x="556" y="30"/>
      <point x="582" y="71" type="qcurve" smooth="yes"/>
      <point x="608" y="112"/>
      <point x="608" y="180" type="qcurve" smooth="yes"/>
      <point x="608" y="262"/>
      <point x="580" y="312" type="qcurve" smooth="yes"/>
      <point x="552" y="361"/>
      <point x="505" y="361" type="qcurve" smooth="yes"/>
      <point x="482" y="361"/>
      <point x="465" y="336" type="qcurve" smooth="yes"/>
      <point x="449" y="311"/>
      <point x="449" y="275" type="qcurve"/>
    </contour>
  </outline>
</glyph>
<glyph name="uni0BAF" format="1">
  <advance width="712"/>
  <unicode hex="0BAF"/>
  <outline>
    <contour>
      <point x="667" y="0" type="line"/>
      <point x="247" y="0" type="line"/>
      <point x="247" y="66" type="line"/>
      <point x="239" y="33"/>
      <point x="213" y="12" type="qcurve" smooth="yes"/>
      <point x="187" y="-9"/>
      <point x="155" y="-9" type="qcurve" smooth="yes"/>
      <point x="107" y="-9"/>
      <point x="74" y="28" type="qcurve" smooth="yes"/>
      <point x="40" y="66"/>
      <point x="40" y="119" type="qcurve" smooth="yes"/>
      <point x="40" y="400" type="line"/>
      <point x="170" y="400" type="line"/>
      <point x="170" y="113" type="line" smooth="yes"/>
      <point x="170" y="87"/>
      <point x="178" y="69" type="qcurve" smooth="yes"/>
      <point x="186" y="51"/>
      <point x="198" y="51" type="qcurve" smooth="yes"/>
      <point x="211" y="51"/>
      <point x="220" y="69" type="qcurve" smooth="yes"/>
      <point x="229" y="87"/>
      <point x="229" y="112" type="qcurve" smooth="yes"/>
      <point x="229" y="400" type="line"/>
      <point x="359" y="400" type="line"/>
      <point x="359" y="30" type="line"/>
      <point x="537" y="30" type="line"/>
      <point x="537" y="400" type="line"/>
      <point x="667" y="400" type="line"/>
      <point x="667" y="0" type="line"/>
    </contour>
  </outline>
</glyph>
<glyph name="uni0BB0" format="1">
  <advance width="454"/>
  <unicode hex="0BB0"/>
  <outline>
    <contour>
      <point x="451" y="370" type="line"/>
      <point x="354" y="370" type="line"/>
      <point x="354" y="14" type="line"/>
      <point x="58" y="-165" type="line"/>
      <point x="42" y="-142" type="line"/>
      <point x="224" y="0" type="line"/>
      <point x="224" y="370" type="line"/>
      <point x="80" y="370" type="line"/>
      <point x="80" y="0" type="line"/>
      <point x="45" y="0" type="line"/>
      <point x="45" y="400" type="line"/>
      <point x="451" y="400" type="line"/>
      <point x="451" y="370" type="line"/>
    </contour>
  </outline>
</glyph>
<glyph name="uni0BB1" format="1">
  <advance width="647"/>
  <unicode hex="0BB1"/>
  <outline>
    <contour>
      <point x="622" y="172" type="line"/>
      <point x="622" y="60"/>
      <point x="540" y="-19" type="qcurve" smooth="yes"/>
      <point x="457" y="-98"/>
      <point x="341" y="-98" type="qcurve" smooth="yes"/>
      <point x="128" y="-98" type="line" smooth="yes"/>
      <point x="96" y="-98"/>
      <point x="73" y="-110" type="qcurve" smooth="yes"/>
      <point x="50" y="-123"/>
      <point x="45" y="-142" type="qcurve"/>
      <point x="73" y="-135" type="line"/>
      <point x="94" y="-135"/>
      <point x="109" y="-148" type="qcurve" smooth="yes"/>
      <point x="124" y="-162"/>
      <point x="124" y="-181" type="qcurve" smooth="yes"/>
      <point x="124" y="-197"/>
      <point x="108" y="-209" type="qcurve" smooth="yes"/>
      <point x="93" y="-220"/>
      <point x="71" y="-220" type="qcurve" smooth="yes"/>
      <point x="45" y="-220"/>
      <point x="27" y="-205" type="qcurve" smooth="yes"/>
      <point x="9" y="-190"/>
      <point x="9" y="-169" type="qcurve" smooth="yes"/>
      <point x="9" y="-125"/>
      <point x="44" y="-94" type="qcurve" smooth="yes"/>
      <point x="78" y="-63"/>
      <point x="127" y="-63" type="qcurve" smooth="yes"/>
      <point x="337" y="-63" type="line" smooth="yes"/>
      <point x="401" y="-63"/>
      <point x="447" y="6" type="qcurve" smooth="yes"/>
      <point x="492" y="75"/>
      <point x="492" y="172" type="qcurve" smooth="yes"/>
      <point x="492" y="256"/>
      <point x="467" y="315" type="qcurve" smooth="yes"/>
      <point x="442" y="374"/>
      <point x="407" y="374" type="qcurve" smooth="yes"/>
      <point x="378" y="374"/>
      <point x="358" y="342" type="qcurve" smooth="yes"/>
      <point x="338" y="311"/>
      <point x="338" y="266" type="qcurve" smooth="yes"/>
      <point x="338" y="0" type="line"/>
      <point x="208" y="0" type="line"/>
      <point x="208" y="305" type="line" smooth="yes"/>
      <point x="208" y="334"/>
      <point x="188" y="354" type="qcurve" smooth="yes"/>
      <point x="168" y="374"/>
      <point x="139" y="374" type="qcurve" smooth="yes"/>
      <point x="113" y="374"/>
      <point x="94" y="353" type="qcurve" smooth="yes"/>
      <point x="76" y="333"/>
      <point x="76" y="304" type="qcurve" smooth="yes"/>
      <point x="76" y="0" type="line"/>
      <point x="41" y="0" type="line"/>
      <point x="41" y="307" type="line" smooth="yes"/>
      <point x="41" y="349"/>
      <point x="75" y="379" type="qcurve" smooth="yes"/>
      <point x="109" y="409"/>
      <point x="157" y="409" type="qcurve" smooth="yes"/>
      <point x="207" y="409"/>
      <point x="246" y="388" type="qcurve" smooth="yes"/>
      <point x="284" y="366"/>
      <point x="298" y="331" type="qcurve"/>
      <point x="313" y="366"/>
      <point x="344" y="388" type="qcurve" smooth="yes"/>
      <point x="374" y="409"/>
      <point x="410" y="409" type="qcurve" smooth="yes"/>
      <point x="519" y="409"/>
      <point x="571" y="352" type="qcurve" smooth="yes"/>
      <point x="622" y="294"/>
      <point x="622" y="172" type="qcurve"/>
    </contour>
  </outline>
</glyph>
<glyph name="uni0BB2" format="1">
  <advance width="746"/>
  <unicode hex="0BB2"/>
  <outline>
    <contour>
      <point x="718" y="204" type="line"/>
      <point x="718" y="101"/>
      <point x="675" y="49" type="qcurve" smooth="yes"/>
      <point x="632" y="-4"/>
      <point x="548" y="-4" type="qcurve" smooth="yes"/>
      <point x="477" y="-4"/>
      <point x="435" y="28" type="qcurve" smooth="yes"/>
      <point x="392" y="60"/>
      <point x="392" y="114" type="qcurve" smooth="yes"/>
      <point x="392" y="247" type="line" smooth="yes"/>
      <point x="392" y="302"/>
      <point x="356" y="336" type="qcurve" smooth="yes"/>
      <point x="320" y="369"/>
      <point x="261" y="369" type="qcurve" smooth="yes"/>
      <point x="175" y="369"/>
      <point x="115" y="314" type="qcurve" smooth="yes"/>
      <point x="54" y="259"/>
      <point x="54" y="182" type="qcurve" smooth="yes"/>
      <point x="54" y="137"/>
      <point x="71" y="100" type="qcurve" smooth="yes"/>
      <point x="89" y="64"/>
      <point x="119" y="44" type="qcurve"/>
      <point x="107" y="56"/>
      <point x="100" y="77" type="qcurve" smooth="yes"/>
      <point x="93" y="98"/>
      <point x="93" y="123" type="qcurve" smooth="yes"/>
      <point x="93" y="179"/>
      <point x="132" y="218" type="qcurve" smooth="yes"/>
      <point x="171" y="258"/>
      <point x="226" y="258" type="qcurve" smooth="yes"/>
      <point x="287" y="258"/>
      <point x="323" y="220" type="qcurve" smooth="yes"/>
      <point x="360" y="183"/>
      <point x="360" y="120" type="qcurve" smooth="yes"/>
      <point x="360" y="64"/>
      <point x="319" y="30" type="qcurve" smooth="yes"/>
      <point x="278" y="-4"/>
      <point x="210" y="-4" type="qcurve" smooth="yes"/>
      <point x="131" y="-4"/>
      <point x="75" y="50" type="qcurve" smooth="yes"/>
      <point x="19" y="104"/>
      <point x="19" y="180" type="qcurve" smooth="yes"/>
      <point x="19" y="273"/>
      <point x="91" y="338" type="qcurve" smooth="yes"/>
      <point x="163" y="404"/>
      <point x="265" y="404" type="qcurve" smooth="yes"/>
      <point x="382" y="404"/>
      <point x="452" y="361" type="qcurve" smooth="yes"/>
      <point x="522" y="318"/>
      <point x="522" y="246" type="qcurve" smooth="yes"/>
      <point x="522" y="117" type="line" smooth="yes"/>
      <point x="522" y="83"/>
      <point x="542" y="60" type="qcurve" smooth="yes"/>
      <point x="561" y="36"/>
      <point x="589" y="36" type="qcurve" smooth="yes"/>
      <point x="632" y="36"/>
      <point x="657" y="82" type="qcurve" smooth="yes"/>
      <point x="683" y="128"/>
      <point x="683" y="204" type="qcurve" smooth="yes"/>
      <point x="683" y="244"/>
      <point x="660" y="285" type="qcurve" smooth="yes"/>
      <point x="638" y="326"/>
      <point x="597" y="360" type="qcurve" smooth="yes"/>
      <point x="590" y="366"/>
      <point x="587" y="373" type="qcurve" smooth="yes"/>
      <point x="583" y="380"/>
      <point x="583" y="387" type="qcurve" smooth="yes"/>
      <point x="583" y="401"/>
      <point x="595" y="412" type="qcurve" smooth="yes"/>
      <point x="606" y="422"/>
      <point x="623" y="422" type="qcurve" smooth="yes"/>
      <point x="662" y="422"/>
      <point x="690" y="358" type="qcurve" smooth="yes"/>
      <point x="718" y="294"/>
      <point x="718" y="204" type="qcurve"/>
    </contour>
    <contour>
      <point x="230" y="114" type="line"/>
      <point x="230" y="149"/>
      <point x="214" y="173" type="qcurve" smooth="yes"/>
      <point x="198" y="198"/>
      <point x="176" y="198" type="qcurve" smooth="yes"/>
      <point x="156" y="198"/>
      <point x="142" y="173" type="qcurve" smooth="yes"/>
      <point x="128" y="149"/>
      <point x="128" y="114" type="qcurve" smooth="yes"/>
      <point x="128" y="80"/>
      <point x="142" y="55" type="qcurve" smooth="yes"/>
      <point x="156" y="31"/>
      <point x="176" y="31" type="qcurve" smooth="yes"/>
      <point x="198" y="31"/>
      <point x="214" y="55" type="qcurve" smooth="yes"/>
      <point x="230" y="80"/>
      <point x="230" y="114" type="qcurve"/>
    </contour>
  </outline>
</glyph>
<glyph name="uni0BB3" format="1">
  <advance width="917"/>
  <unicode hex="0BB3"/>
  <outline>
    <contour>
      <point x="913" y="367" type="line"/>
      <point x="844" y="367" type="line"/>
      <point x="844" y="0" type="line"/>
      <point x="714" y="0" type="line"/>
      <point x="714" y="367" type="line"/>
      <point x="582" y="367" type="line"/>
      <point x="582" y="0" type="line"/>
      <point x="452" y="0" type="line"/>
      <point x="452" y="218" type="line"/>
      <point x="428" y="285"/>
      <point x="376" y="326" type="qcurve" smooth="yes"/>
      <point x="324" y="367"/>
      <point x="264" y="367" type="qcurve" smooth="yes"/>
      <point x="177" y="367"/>
      <point x="116" y="317" type="qcurve" smooth="yes"/>
      <point x="54" y="266"/>
      <point x="54" y="195" type="qcurve" smooth="yes"/>
      <point x="54" y="138"/>
      <point x="76" y="96" type="qcurve" smooth="yes"/>
      <point x="98" y="53"/>
      <point x="134" y="41" type="qcurve"/>
      <point x="121" y="55"/>
      <point x="114" y="77" type="qcurve" smooth="yes"/>
      <point x="107" y="100"/>
      <point x="107" y="127" type="qcurve" smooth="yes"/>
      <point x="107" y="187"/>
      <point x="144" y="224" type="qcurve" smooth="yes"/>
      <point x="181" y="260"/>
      <point x="243" y="260" type="qcurve" smooth="yes"/>
      <point x="305" y="260"/>
      <point x="342" y="222" type="qcurve" smooth="yes"/>
      <point x="379" y="185"/>
      <point x="379" y="122" type="qcurve" smooth="yes"/>
      <point x="379" y="66"/>
      <point x="331" y="33" type="qcurve" smooth="yes"/>
      <point x="284" y="-1"/>
      <point x="205" y="-1" type="qcurve" smooth="yes"/>
      <point x="128" y="-1"/>
      <point x="73" y="56" type="qcurve" smooth="yes"/>
      <point x="19" y="113"/>
      <point x="19" y="193" type="qcurve" smooth="yes"/>
      <point x="19" y="280"/>
      <point x="91" y="341" type="qcurve" smooth="yes"/>
      <point x="163" y="402"/>
      <point x="264" y="402" type="qcurve" smooth="yes"/>
      <point x="328" y="402"/>
      <point x="384" y="378" type="qcurve" smooth="yes"/>
      <point x="439" y="353"/>
      <point x="475" y="309" type="qcurve"/>
      <point x="475" y="400" type="line"/>
      <point x="913" y="400" type="line"/>
      <point x="913" y="367" type="line"/>
    </contour>
    <contour>
      <point x="249" y="119" type="line"/>
      <point x="249" y="150"/>
      <point x="233" y="173" type="qcurve" smooth="yes"/>
      <point x="216" y="195"/>
      <point x="193" y="195" type="qcurve" smooth="yes"/>
      <point x="172" y="195"/>
      <point x="157" y="172" type="qcurve" smooth="yes"/>
      <point x="142" y="150"/>
      <point x="142" y="118" type="qcurve" smooth="yes"/>
      <point x="142" y="83"/>
      <point x="157" y="59" type="qcurve" smooth="yes"/>
      <point x="172" y="34"/>
      <point x="193" y="34" type="qcurve" smooth="yes"/>
      <point x="216" y="34"/>
      <point x="233" y="59" type="qcurve" smooth="yes"/>
      <point x="249" y="84"/>
      <point x="249" y="119" type="qcurve"/>
    </contour>
  </outline>
</glyph>
<glyph name="uni0BB4" format="1">
  <advance width="667"/>
  <unicode hex="0BB4"/>
  <outline>
    <contour>
      <point x="45" y="0" type="line"/>
      <point x="45" y="400" type="line"/>
      <point x="175" y="400" type="line"/>
      <point x="175" y="30" type="line"/>
      <point x="319" y="30" type="line"/>
      <point x="319" y="267" type="line" smooth="yes"/>
      <point x="319" y="327"/>
      <point x="367" y="369" type="qcurve" smooth="yes"/>
      <point x="414" y="411"/>
      <point x="482" y="411" type="qcurve" smooth="yes"/>
      <point x="549" y="411"/>
      <point x="596" y="347" type="qcurve" smooth="yes"/>
      <point x="643" y="283"/>
      <point x="643" y="193" type="qcurve" smooth="yes"/>
      <point x="643" y="105"/>
      <point x="610" y="53" type="qcurve" smooth="yes"/>
      <point x="576" y="0"/>
      <point x="521" y="0" type="qcurve" smooth="yes"/>
      <point x="448" y="0" type="line"/>
      <point x="448" y="-26"/>
      <point x="466" y="-45" type="qcurve" smooth="yes"/>
      <point x="483" y="-63"/>
      <point x="508" y="-63" type="qcurve" smooth="yes"/>
      <point x="616" y="-63" type="line"/>
      <point x="616" y="-98" type="line"/>
      <point x="508" y="-98" type="line" smooth="yes"/>
      <point x="462" y="-98"/>
      <point x="429" y="-123" type="qcurve" smooth="yes"/>
      <point x="396" y="-149"/>
      <point x="396" y="-185" type="qcurve" smooth="yes"/>
      <point x="396" y="-224"/>
      <point x="333" y="-252" type="qcurve" smooth="yes"/>
      <point x="270" y="-280"/>
      <point x="181" y="-280" type="qcurve" smooth="yes"/>
      <point x="110" y="-280"/>
      <point x="67" y="-251" type="qcurve" smooth="yes"/>
      <point x="24" y="-222"/>
      <point x="24" y="-173" type="qcurve" smooth="yes"/>
      <point x="24" y="-127"/>
      <point x="64" y="-95" type="qcurve" smooth="yes"/>
      <point x="103" y="-63"/>
      <point x="159" y="-63" type="qcurve" smooth="yes"/>
      <point x="198" y="-63"/>
      <point x="225" y="-80" type="qcurve" smooth="yes"/>
      <point x="252" y="-97"/>
      <point x="252" y="-121" type="qcurve" smooth="yes"/>
      <point x="252" y="-138"/>
      <point x="228" y="-151" type="qcurve" smooth="yes"/>
      <point x="204" y="-163"/>
      <point x="170" y="-163" type="qcurve" smooth="yes"/>
      <point x="150" y="-163"/>
      <point x="136" y="-152" type="qcurve" smooth="yes"/>
      <point x="122" y="-141"/>
      <point x="122" y="-126" type="qcurve" smooth="yes"/>
      <point x="120" y="-117"/>
      <point x="123" y="-109" type="qcurve" smooth="yes"/>
      <point x="125" y="-102"/>
      <point x="131" y="-98" type="qcurve"/>
      <point x="101" y="-98"/>
      <point x="80" y="-120" type="qcurve" smooth="yes"/>
      <point x="59" y="-143"/>
      <point x="59" y="-174" type="qcurve" smooth="yes"/>
      <point x="59" y="-203"/>
      <point x="94" y="-224" type="qcurve" smooth="yes"/>
      <point x="130" y="-245"/>
      <point x="180" y="-245" type="qcurve" smooth="yes"/>
      <point x="216" y="-245"/>
      <point x="241" y="-220" type="qcurve" smooth="yes"/>
      <point x="266" y="-195"/>
      <point x="266" y="-160" type="qcurve" smooth="yes"/>
      <point x="266" y="-120"/>
      <point x="294" y="-91" type="qcurve" smooth="yes"/>
      <point x="322" y="-63"/>
      <point x="362" y="-63" type="qcurve"/>
      <point x="343" y="-60"/>
      <point x="332" y="-43" type="qcurve" smooth="yes"/>
      <point x="319" y="-25"/>
      <point x="319" y="0" type="qcurve"/>
    </contour>
    <contour>
      <point x="449" y="30" type="line"/>
      <point x="522" y="30" type="line" smooth="yes"/>
      <point x="558" y="30"/>
      <point x="583" y="78" type="qcurve" smooth="yes"/>
      <point x="608" y="127"/>
      <point x="608" y="195" type="qcurve" smooth="yes"/>
      <point x="608" y="267"/>
      <point x="576" y="319" type="qcurve" smooth="yes"/>
      <point x="545" y="370"/>
      <point x="500" y="370" type="qcurve" smooth="yes"/>
      <point x="479" y="370"/>
      <point x="464" y="341" type="qcurve" smooth="yes"/>
      <point x="449" y="312"/>
      <point x="449" y="271" type="qcurve" smooth="yes"/>
    </contour>
  </outline>
</glyph>
<glyph name="uni0BB6" format="1">
  <advance width="761"/>
  <unicode hex="0BB6"/>
  <outline>
    <contour>
      <point x="38" y="130" type="line"/>
      <point x="38" y="400" type="line"/>
      <point x="73" y="400" type="line"/>
      <point x="73" y="130" type="line" smooth="yes"/>
      <point x="73" y="102"/>
      <point x="93" y="82" type="qcurve" smooth="yes"/>
      <point x="113" y="62"/>
      <point x="142" y="62" type="qcurve" smooth="yes"/>
      <point x="173" y="62"/>
      <point x="195" y="82" type="qcurve" smooth="yes"/>
      <point x="217" y="102"/>
      <point x="217" y="130" type="qcurve" smooth="yes"/>
      <point x="217" y="400" type="line"/>
      <point x="724" y="400" type="line"/>
      <point x="724" y="131" type="line" smooth="yes"/>
      <point x="724" y="77"/>
      <point x="674" y="38" type="qcurve" smooth="yes"/>
      <point x="624" y="0"/>
      <point x="554" y="0" type="qcurve" smooth="yes"/>
      <point x="496" y="0"/>
      <point x="456" y="38" type="qcurve" smooth="yes"/>
      <point x="415" y="77"/>
      <point x="415" y="131" type="qcurve" smooth="yes"/>
      <point x="415" y="370" type="line"/>
      <point x="347" y="370" type="line"/>
      <point x="347" y="133" type="line" smooth="yes"/>
      <point x="347" y="78"/>
      <point x="297" y="39" type="qcurve" smooth="yes"/>
      <point x="247" y="0"/>
      <point x="177" y="0" type="qcurve" smooth="yes"/>
      <point x="119" y="0"/>
      <point x="79" y="38" type="qcurve" smooth="yes"/>
      <point x="38" y="76"/>
      <point x="38" y="130" type="qcurve"/>
    </contour>
    <contour>
      <point x="450" y="370" type="line"/>
      <point x="450" y="131" type="line" smooth="yes"/>
      <point x="450" y="102"/>
      <point x="470" y="82" type="qcurve" smooth="yes"/>
      <point x="490" y="62"/>
      <point x="519" y="62" type="qcurve" smooth="yes"/>
      <point x="550" y="62"/>
      <point x="572" y="82" type="qcurve" smooth="yes"/>
      <point x="594" y="102"/>
      <point x="594" y="131" type="qcurve" smooth="yes"/>
      <point x="594" y="370" type="line"/>
      <point x="450" y="370" type="line"/>
    </contour>
  </outline>
</glyph>
<glyph name="uni0BB7" format="1">
  <advance width="1060"/>
  <unicode hex="0BB7"/>
  <outline>
    <contour>
      <point x="1026" y="0" type="line"/>
      <point x="837" y="0" type="line"/>
      <point x="837" y="-242" type="line"/>
      <point x="707" y="-242" type="line"/>
      <point x="707" y="0" type="line"/>
      <point x="347" y="0" type="line"/>
      <point x="347" y="30" type="line"/>
      <point x="387" y="52"/>
      <point x="411" y="97" type="qcurve" smooth="yes"/>
      <point x="434" y="141"/>
      <point x="434" y="196" type="qcurve" smooth="yes"/>
      <point x="434" y="275"/>
      <point x="382" y="322" type="qcurve" smooth="yes"/>
      <point x="330" y="370"/>
      <point x="244" y="370" type="qcurve" smooth="yes"/>
      <point x="158" y="370"/>
      <point x="107" y="319" type="qcurve" smooth="yes"/>
      <point x="55" y="267"/>
      <point x="55" y="182" type="qcurve" smooth="yes"/>
      <point x="55" y="139"/>
      <point x="74" y="102" type="qcurve" smooth="yes"/>
      <point x="92" y="65"/>
      <point x="125" y="44" type="qcurve"/>
      <point x="112" y="59"/>
      <point x="106" y="78" type="qcurve" smooth="yes"/>
      <point x="99" y="97"/>
      <point x="99" y="118" type="qcurve" smooth="yes"/>
      <point x="99" y="175"/>
      <point x="136" y="209" type="qcurve" smooth="yes"/>
      <point x="172" y="243"/>
      <point x="233" y="243" type="qcurve" smooth="yes"/>
      <point x="294" y="243"/>
      <point x="330" y="210" type="qcurve" smooth="yes"/>
      <point x="367" y="177"/>
      <point x="367" y="122" type="qcurve" smooth="yes"/>
      <point x="367" y="67"/>
      <point x="323" y="33" type="qcurve" smooth="yes"/>
      <point x="279" y="0"/>
      <point x="206" y="0" type="qcurve" smooth="yes"/>
      <point x="129" y="0"/>
      <point x="74" y="54" type="qcurve" smooth="yes"/>
      <point x="20" y="108"/>
      <point x="20" y="185" type="qcurve" smooth="yes"/>
      <point x="20" y="289"/>
      <point x="94" y="352" type="qcurve" smooth="yes"/>
      <point x="169" y="415"/>
      <point x="292" y="415" type="qcurve" smooth="yes"/>
      <point x="415" y="415"/>
      <point x="490" y="355" type="qcurve" smooth="yes"/>
      <point x="564" y="295"/>
      <point x="564" y="195" type="qcurve" smooth="yes"/>
      <point x="564" y="142"/>
      <point x="545" y="99" type="qcurve" smooth="yes"/>
      <point x="525" y="55"/>
      <point x="491" y="30" type="qcurve"/>
      <point x="707" y="30" type="line"/>
      <point x="707" y="164" type="line"/>
      <point x="652" y="164"/>
      <point x="613" y="198" type="qcurve" smooth="yes"/>
      <point x="574" y="233"/>
      <point x="574" y="281" type="qcurve" smooth="yes"/>
      <point x="574" y="335"/>
      <point x="608" y="367" type="qcurve" smooth="yes"/>
      <point x="643" y="400"/>
      <point x="700" y="400" type="qcurve" smooth="yes"/>
      <point x="757" y="400"/>
      <point x="797" y="372" type="qcurve" smooth="yes"/>
      <point x="837" y="344"/>
      <point x="837" y="304" type="qcurve" smooth="yes"/>
      <point x="837" y="193" type="line"/>
      <point x="870" y="193"/>
      <point x="904" y="223" type="qcurve" smooth="yes"/>
      <point x="939" y="253"/>
      <point x="965" y="304" type="qcurve"/>
      <point x="1026" y="304" type="line"/>
      <point x="1026" y="0" type="line"/>
    </contour>
    <contour>
      <point x="707" y="192" type="line"/>
      <point x="707" y="302" type="line" smooth="yes"/>
      <point x="707" y="324"/>
      <point x="694" y="339" type="qcurve" smooth="yes"/>
      <point x="682" y="354"/>
      <point x="664" y="354" type="qcurve" smooth="yes"/>
      <point x="641" y="354"/>
      <point x="625" y="333" type="qcurve" smooth="yes"/>
      <point x="609" y="311"/>
      <point x="609" y="281" type="qcurve" smooth="yes"/>
      <point x="609" y="244"/>
      <point x="638" y="218" type="qcurve" smooth="yes"/>
      <point x="666" y="192"/>
      <point x="707" y="192" type="qcurve"/>
    </contour>
    <contour>
      <point x="237" y="119" type="line"/>
      <point x="237" y="149"/>
      <point x="221" y="171" type="qcurve" smooth="yes"/>
      <point x="205" y="192"/>
      <point x="183" y="192" type="qcurve" smooth="yes"/>
      <point x="163" y="192"/>
      <point x="148" y="171" type="qcurve" smooth="yes"/>
      <point x="134" y="150"/>
      <point x="134" y="120" type="qcurve" smooth="yes"/>
      <point x="134" y="89"/>
      <point x="148" y="68" type="qcurve" smooth="yes"/>
      <point x="163" y="46"/>
      <point x="183" y="46" type="qcurve" smooth="yes"/>
      <point x="205" y="46"/>
      <point x="221" y="67" type="qcurve" smooth="yes"/>
      <point x="237" y="89"/>
      <point x="237" y="119" type="qcurve"/>
    </contour>
    <contour>
      <point x="896" y="30" type="line"/>
      <point x="896" y="179" type="line"/>
      <point x="886" y="172"/>
      <point x="870" y="168" type="qcurve" smooth="yes"/>
      <point x="855" y="164"/>
      <point x="837" y="164" type="qcurve"/>
      <point x="837" y="30" type="line"/>
      <point x="896" y="30" type="line"/>
    </contour>
  </outline>
</glyph>
<glyph name="uni0BB8" format="1">
  <advance width="1049"/>
  <unicode hex="0BB8"/>
  <outline>
    <contour>
      <point x="20" y="188" type="line"/>
      <point x="20" y="289"/>
      <point x="88" y="350" type="qcurve" smooth="yes"/>
      <point x="157" y="411"/>
      <point x="270" y="411" type="qcurve" smooth="yes"/>
      <point x="359" y="411"/>
      <point x="425" y="382" type="qcurve" smooth="yes"/>
      <point x="492" y="354"/>
      <point x="517" y="305" type="qcurve"/>
      <point x="530" y="352"/>
      <point x="571" y="381" type="qcurve" smooth="yes"/>
      <point x="612" y="411"/>
      <point x="664" y="411" type="qcurve" smooth="yes"/>
      <point x="734" y="411"/>
      <point x="783" y="366" type="qcurve" smooth="yes"/>
      <point x="832" y="320"/>
      <point x="832" y="256" type="qcurve" smooth="yes"/>
      <point x="832" y="117" type="line" smooth="yes"/>
      <point x="832" y="85"/>
      <point x="848" y="62" type="qcurve" smooth="yes"/>
      <point x="864" y="39"/>
      <point x="887" y="39" type="qcurve" smooth="yes"/>
      <point x="932" y="39"/>
      <point x="960" y="84" type="qcurve" smooth="yes"/>
      <point x="987" y="129"/>
      <point x="987" y="204" type="qcurve" smooth="yes"/>
      <point x="987" y="249"/>
      <point x="961" y="288" type="qcurve" smooth="yes"/>
      <point x="941" y="319"/>
      <point x="900" y="360" type="qcurve" smooth="yes"/>
      <point x="896" y="364"/>
      <point x="894" y="370" type="qcurve" smooth="yes"/>
      <point x="892" y="375"/>
      <point x="892" y="382" type="qcurve" smooth="yes"/>
      <point x="892" y="399"/>
      <point x="902" y="410" type="qcurve" smooth="yes"/>
      <point x="913" y="422"/>
      <point x="927" y="422" type="qcurve" smooth="yes"/>
      <point x="966" y="422"/>
      <point x="994" y="358" type="qcurve" smooth="yes"/>
      <point x="1022" y="294"/>
      <point x="1022" y="204" type="qcurve" smooth="yes"/>
      <point x="1022" y="106"/>
      <point x="977" y="48" type="qcurve" smooth="yes"/>
      <point x="932" y="-11"/>
      <point x="857" y="-11" type="qcurve" smooth="yes"/>
      <point x="787" y="-11"/>
      <point x="744" y="23" type="qcurve" smooth="yes"/>
      <point x="702" y="57"/>
      <point x="702" y="114" type="qcurve" smooth="yes"/>
      <point x="702" y="257" type="line" smooth="yes"/>
      <point x="702" y="306"/>
      <point x="682" y="341" type="qcurve" smooth="yes"/>
      <point x="662" y="376"/>
      <point x="634" y="376" type="qcurve" smooth="yes"/>
      <point x="603" y="376"/>
      <point x="580" y="345" type="qcurve" smooth="yes"/>
      <point x="558" y="313"/>
      <point x="558" y="269" type="qcurve" smooth="yes"/>
      <point x="558" y="0" type="line"/>
      <point x="428" y="0" type="line"/>
      <point x="428" y="235" type="line" smooth="yes"/>
      <point x="428" y="293"/>
      <point x="381" y="335" type="qcurve" smooth="yes"/>
      <point x="335" y="376"/>
      <point x="269" y="376" type="qcurve" smooth="yes"/>
      <point x="172" y="376"/>
      <point x="113" y="325" type="qcurve" smooth="yes"/>
      <point x="55" y="274"/>
      <point x="55" y="190" type="qcurve" smooth="yes"/>
      <point x="55" y="135"/>
      <point x="76" y="94" type="qcurve" smooth="yes"/>
      <point x="96" y="53"/>
      <point x="130" y="41" type="qcurve"/>
      <point x="116" y="57"/>
      <point x="109" y="78" type="qcurve" smooth="yes"/>
      <point x="102" y="99"/>
      <point x="102" y="124" type="qcurve" smooth="yes"/>
      <point x="102" y="183"/>
      <point x="140" y="219" type="qcurve" smooth="yes"/>
      <point x="178" y="255"/>
      <point x="241" y="255" type="qcurve" smooth="yes"/>
      <point x="304" y="255"/>
      <point x="342" y="219" type="qcurve" smooth="yes"/>
      <point x="380" y="182"/>
      <point x="380" y="122" type="qcurve" smooth="yes"/>
      <point x="380" y="67"/>
      <point x="333" y="28" type="qcurve" smooth="yes"/>
      <point x="287" y="-11"/>
      <point x="221" y="-11" type="qcurve" smooth="yes"/>
      <point x="138" y="-11"/>
      <point x="79" y="47" type="qcurve" smooth="yes"/>
      <point x="20" y="106"/>
      <point x="20" y="188" type="qcurve"/>
    </contour>
    <contour>
      <point x="250" y="119" type="line"/>
      <point x="250" y="150"/>
      <point x="233" y="173" type="qcurve" smooth="yes"/>
      <point x="215" y="195"/>
      <point x="191" y="195" type="qcurve" smooth="yes"/>
      <point x="169" y="195"/>
      <point x="153" y="174" type="qcurve" smooth="yes"/>
      <point x="137" y="152"/>
      <point x="137" y="122" type="qcurve" smooth="yes"/>
      <point x="137" y="90"/>
      <point x="153" y="67" type="qcurve" smooth="yes"/>
      <point x="169" y="44"/>
      <point x="191" y="44" type="qcurve" smooth="yes"/>
      <point x="215" y="44"/>
      <point x="233" y="66" type="qcurve" smooth="yes"/>
      <point x="250" y="88"/>
      <point x="250" y="119" type="qcurve"/>
    </contour>
  </outline>
</glyph>
<glyph name="uni0BBE" format="1">
  <advance width="454"/>
  <unicode hex="0BBE"/>
  <outline>
    <contour>
      <point x="451" y="370" type="line"/>
      <point x="354" y="370" type="line"/>
      <point x="354" y="0" type="line"/>
      <point x="224" y="0" type="line"/>
      <point x="224" y="370" type="line"/>
      <point x="80" y="370" type="line"/>
      <point x="80" y="0" type="line"/>
      <point x="45" y="0" type="line"/>
      <point x="45" y="400" type="line"/>
      <point x="451" y="400" type="line"/>
      <point x="451" y="370" type="line"/>
    </contour>
  </outline>
</glyph>
<glyph name="uni0BBF" format="1">
  <advance width="390"/>
  <unicode hex="0BBF"/>
  <outline>
    <contour>
      <point x="81" y="400" type="line"/>
      <point x="45" y="460"/>
      <point x="45" y="505" type="qcurve" smooth="yes"/>
      <point x="45" y="569"/>
      <point x="89" y="615" type="qcurve" smooth="yes"/>
      <point x="133" y="660"/>
      <point x="195" y="660" type="qcurve" smooth="yes"/>
      <point x="257" y="660"/>
      <point x="301" y="608" type="qcurve" smooth="yes"/>
      <point x="345" y="557"/>
      <point x="345" y="484" type="qcurve" smooth="yes"/>
      <point x="345" y="0" type="line"/>
      <point x="310" y="0" type="line"/>
      <point x="310" y="482" type="line" smooth="yes"/>
      <point x="310" y="527"/>
      <point x="273" y="559" type="qcurve" smooth="yes"/>
      <point x="237" y="591"/>
      <point x="185" y="591" type="qcurve" smooth="yes"/>
      <point x="142" y="591"/>
      <point x="111" y="560" type="qcurve" smooth="yes"/>
      <point x="80" y="529"/>
      <point x="80" y="486" type="qcurve" smooth="yes"/>
      <point x="80" y="464"/>
      <point x="90" y="442" type="qcurve" smooth="yes"/>
      <point x="101" y="419"/>
      <point x="120" y="400" type="qcurve"/>
      <point x="81" y="400" type="line"/>
    </contour>
  </outline>
</glyph>
<glyph name="uni0BC0" format="1">
  <advance width="495"/>
  <unicode hex="0BC0"/>
  <outline>
    <contour>
      <point x="320" y="535" type="line"/>
      <point x="320" y="560"/>
      <point x="307" y="577" type="qcurve" smooth="yes"/>
      <point x="293" y="595"/>
      <point x="274" y="595" type="qcurve" smooth="yes"/>
      <point x="255" y="595"/>
      <point x="241" y="578" type="qcurve" smooth="yes"/>
      <point x="228" y="560"/>
      <point x="228" y="536" type="qcurve" smooth="yes"/>
      <point x="228" y="511"/>
      <point x="241" y="494" type="qcurve" smooth="yes"/>
      <point x="255" y="476"/>
      <point x="274" y="476" type="qcurve" smooth="yes"/>
      <point x="293" y="476"/>
      <point x="307" y="493" type="qcurve" smooth="yes"/>
      <point x="320" y="511"/>
      <point x="320" y="535" type="qcurve"/>
    </contour>
    <contour>
      <point x="45" y="489" type="line"/>
      <point x="45" y="557"/>
      <point x="104" y="606" type="qcurve" smooth="yes"/>
      <point x="162" y="654"/>
      <point x="245" y="654" type="qcurve" smooth="yes"/>
      <point x="338" y="654"/>
      <point x="394" y="621" type="qcurve" smooth="yes"/>
      <point x="450" y="589"/>
      <point x="450" y="535" type="qcurve" smooth="yes"/>
      <point x="450" y="483"/>
      <point x="415" y="452" type="qcurve" smooth="yes"/>
      <point x="380" y="421"/>
      <point x="321" y="421" type="qcurve" smooth="yes"/>
      <point x="263" y="421"/>
      <point x="228" y="452" type="qcurve" smooth="yes"/>
      <point x="193" y="483"/>
      <point x="193" y="535" type="qcurve" smooth="yes"/>
      <point x="193" y="557"/>
      <point x="201" y="577" type="qcurve" smooth="yes"/>
      <point x="209" y="597"/>
      <point x="223" y="610" type="qcurve"/>
      <point x="164" y="610"/>
      <point x="122" y="576" type="qcurve" smooth="yes"/>
      <point x="80" y="541"/>
      <point x="80" y="493" type="qcurve" smooth="yes"/>
      <point x="80" y="469"/>
      <point x="92" y="445" type="qcurve" smooth="yes"/>
      <point x="105" y="420"/>
      <point x="127" y="400" type="qcurve"/>
      <point x="82" y="400" type="line"/>
      <point x="64" y="426"/>
      <point x="54" y="449" type="qcurve" smooth="yes"/>
      <point x="45" y="471"/>
      <point x="45" y="489" type="qcurve"/>
    </contour>
  </outline>
</glyph>
<glyph name="uni0BC1" format="1">
  <advance width="356"/>
  <unicode hex="0BC1"/>
  <outline>
    <contour>
      <point x="-87" y="370" type="line"/>
      <point x="-87" y="400" type="line"/>
      <point x="340" y="400" type="line"/>
      <point x="340" y="320" type="line" smooth="yes"/>
      <point x="340" y="273"/>
      <point x="300" y="239" type="qcurve" smooth="yes"/>
      <point x="260" y="206"/>
      <point x="203" y="206" type="qcurve" smooth="yes"/>
      <point x="147" y="206"/>
      <point x="107" y="239" type="qcurve" smooth="yes"/>
      <point x="67" y="273"/>
      <point x="67" y="320" type="qcurve" smooth="yes"/>
      <point x="67" y="370" type="line"/>
      <point x="-87" y="370" type="line"/>
    </contour>
    <contour>
      <point x="210" y="321" type="line"/>
      <point x="210" y="370" type="line"/>
      <point x="102" y="370" type="line"/>
      <point x="102" y="320" type="line" smooth="yes"/>
      <point x="102" y="293"/>
      <point x="118" y="275" type="qcurve" smooth="yes"/>
      <point x="134" y="256"/>
      <point x="156" y="256" type="qcurve" smooth="yes"/>
      <point x="178" y="256"/>
      <point x="194" y="275" type="qcurve" smooth="yes"/>
      <point x="210" y="294"/>
      <point x="210" y="321" type="qcurve"/>
    </contour>
  </outline>
</glyph>
<glyph name="uni0BC2" format="1">
  <advance width="621"/>
  <unicode hex="0BC2"/>
  <outline>
    <contour>
      <point x="598" y="289" type="line"/>
      <point x="598" y="165"/>
      <point x="516" y="102" type="qcurve" smooth="yes"/>
      <point x="434" y="39"/>
      <point x="274" y="39" type="qcurve" smooth="yes"/>
      <point x="175" y="39"/>
      <point x="115" y="98" type="qcurve" smooth="yes"/>
      <point x="55" y="157"/>
      <point x="55" y="255" type="qcurve"/>
      <point x="84" y="255" type="line"/>
      <point x="84" y="173"/>
      <point x="136" y="123" type="qcurve" smooth="yes"/>
      <point x="187" y="74"/>
      <point x="273" y="74" type="qcurve" smooth="yes"/>
      <point x="361" y="74"/>
      <point x="415" y="132" type="qcurve" smooth="yes"/>
      <point x="468" y="191"/>
      <point x="468" y="288" type="qcurve" smooth="yes"/>
      <point x="468" y="388"/>
      <point x="426" y="449" type="qcurve" smooth="yes"/>
      <point x="385" y="509"/>
      <point x="316" y="509" type="qcurve" smooth="yes"/>
      <point x="256" y="509"/>
      <point x="213" y="477" type="qcurve" smooth="yes"/>
      <point x="170" y="445"/>
      <point x="170" y="400" type="qcurve"/>
      <point x="410" y="400" type="line"/>
      <point x="410" y="320" type="line" smooth="yes"/>
      <point x="410" y="272"/>
      <point x="370" y="239" type="qcurve" smooth="yes"/>
      <point x="331" y="205"/>
      <point x="275" y="205" type="qcurve" smooth="yes"/>
      <point x="219" y="205"/>
      <point x="180" y="239" type="qcurve" smooth="yes"/>
      <point x="140" y="274"/>
      <point x="140" y="322" type="qcurve" smooth="yes"/>
      <point x="140" y="370" type="line"/>
      <point x="-87" y="370" type="line"/>
      <point x="-87" y="400" type="line"/>
      <point x="143" y="400" type="line"/>
      <point x="143" y="460"/>
      <point x="195" y="502" type="qcurve" smooth="yes"/>
      <point x="246" y="544"/>
      <point x="319" y="544" type="qcurve" smooth="yes"/>
      <point x="457" y="544"/>
      <point x="528" y="480" type="qcurve" smooth="yes"/>
      <point x="598" y="415"/>
      <point x="598" y="289" type="qcurve"/>
    </contour>
    <contour>
      <point x="280" y="321" type="line"/>
      <point x="280" y="370" type="line"/>
      <point x="175" y="370" type="line"/>
      <point x="175" y="320" type="line" smooth="yes"/>
      <point x="175" y="293"/>
      <point x="190" y="274" type="qcurve" smooth="yes"/>
      <point x="205" y="255"/>
      <point x="227" y="255" type="qcurve" smooth="yes"/>
      <point x="249" y="255"/>
      <point x="264" y="274" type="qcurve" smooth="yes"/>
      <point x="280" y="294"/>
      <point x="280" y="321" type="qcurve"/>
    </contour>
  </outline>
</glyph>
<glyph name="uni0BC6" format="1">
  <advance width="703"/>
  <unicode hex="0BC6"/>
  <outline>
    <contour>
      <point x="658" y="0" type="line"/>
      <point x="623" y="0" type="line"/>
      <point x="623" y="349" type="line" smooth="yes"/>
      <point x="623" y="453"/>
      <point x="540" y="526" type="qcurve" smooth="yes"/>
      <point x="458" y="599"/>
      <point x="341" y="599" type="qcurve" smooth="yes"/>
      <point x="213" y="599"/>
      <point x="136" y="520" type="qcurve" smooth="yes"/>
      <point x="59" y="442"/>
      <point x="59" y="311" type="qcurve" smooth="yes"/>
      <point x="59" y="187"/>
      <point x="125" y="112" type="qcurve" smooth="yes"/>
      <point x="190" y="37"/>
      <point x="299" y="37" type="qcurve" smooth="yes"/>
      <point x="322" y="37"/>
      <point x="334" y="41" type="qcurve"/>
      <point x="296" y="59"/>
      <point x="273" y="93" type="qcurve" smooth="yes"/>
      <point x="250" y="128"/>
      <point x="250" y="168" type="qcurve" smooth="yes"/>
      <point x="250" y="225"/>
      <point x="296" y="266" type="qcurve" smooth="yes"/>
      <point x="341" y="306"/>
      <point x="406" y="306" type="qcurve" smooth="yes"/>
      <point x="477" y="306"/>
      <point x="520" y="266" type="qcurve" smooth="yes"/>
      <point x="563" y="227"/>
      <point x="563" y="161" type="qcurve" smooth="yes"/>
      <point x="563" y="87"/>
      <point x="491" y="42" type="qcurve" smooth="yes"/>
      <point x="419" y="-3"/>
      <point x="300" y="-3" type="qcurve" smooth="yes"/>
      <point x="175" y="-3"/>
      <point x="99" y="83" type="qcurve" smooth="yes"/>
      <point x="24" y="169"/>
      <point x="24" y="312" type="qcurve" smooth="yes"/>
      <point x="24" y="476"/>
      <point x="110" y="574" type="qcurve" smooth="yes"/>
      <point x="196" y="673"/>
      <point x="338" y="673" type="qcurve" smooth="yes"/>
      <point x="483" y="673"/>
      <point x="571" y="585" type="qcurve" smooth="yes"/>
      <point x="658" y="496"/>
      <point x="658" y="349" type="qcurve" smooth="yes"/>
      <point x="658" y="0" type="line"/>
    </contour>
    <contour>
      <point x="433" y="159" type="line"/>
      <point x="433" y="198"/>
      <point x="412" y="226" type="qcurve" smooth="yes"/>
      <point x="391" y="254"/>
      <point x="361" y="254" type="qcurve" smooth="yes"/>
      <point x="330" y="254"/>
      <point x="307" y="228" type="qcurve" smooth="yes"/>
      <point x="285" y="201"/>
      <point x="285" y="164" type="qcurve" smooth="yes"/>
      <point x="285" y="125"/>
      <point x="307" y="93" type="qcurve" smooth="yes"/>
      <point x="329" y="61"/>
      <point x="365" y="46" type="qcurve"/>
      <point x="396" y="57"/>
      <point x="414" y="88" type="qcurve" smooth="yes"/>
      <point x="433" y="119"/>
      <point x="433" y="159" type="qcurve"/>
    </contour>
  </outline>
</glyph>
<glyph name="uni0BC7" format="1">
  <advance width="649"/>
  <unicode hex="0BC7"/>
  <outline>
    <contour>
      <point x="633" y="170" type="line"/>
      <point x="633" y="92"/>
      <point x="552" y="46" type="qcurve" smooth="yes"/>
      <point x="471" y="-1"/>
      <point x="337" y="-1" type="qcurve" smooth="yes"/>
      <point x="206" y="-1"/>
      <point x="114" y="96" type="qcurve" smooth="yes"/>
      <point x="21" y="193"/>
      <point x="21" y="330" type="qcurve" smooth="yes"/>
      <point x="21" y="468"/>
      <point x="115" y="565" type="qcurve" smooth="yes"/>
      <point x="209" y="663"/>
      <point x="342" y="663" type="qcurve" smooth="yes"/>
      <point x="474" y="663"/>
      <point x="554" y="615" type="qcurve" smooth="yes"/>
      <point x="633" y="567"/>
      <point x="633" y="487" type="qcurve" smooth="yes"/>
      <point x="633" y="433"/>
      <point x="596" y="401" type="qcurve" smooth="yes"/>
      <point x="558" y="369"/>
      <point x="496" y="369" type="qcurve" smooth="yes"/>
      <point x="434" y="369"/>
      <point x="397" y="401" type="qcurve" smooth="yes"/>
      <point x="360" y="432"/>
      <point x="360" y="485" type="qcurve" smooth="yes"/>
      <point x="360" y="522"/>
      <point x="381" y="552" type="qcurve" smooth="yes"/>
      <point x="402" y="582"/>
      <point x="436" y="594" type="qcurve"/>
      <point x="399" y="612"/>
      <point x="335" y="612" type="qcurve" smooth="yes"/>
      <point x="219" y="612"/>
      <point x="138" y="530" type="qcurve" smooth="yes"/>
      <point x="56" y="447"/>
      <point x="56" y="331" type="qcurve" smooth="yes"/>
      <point x="56" y="213"/>
      <point x="137" y="129" type="qcurve" smooth="yes"/>
      <point x="218" y="46"/>
      <point x="332" y="46" type="qcurve" smooth="yes"/>
      <point x="369" y="46"/>
      <point x="395" y="51" type="qcurve" smooth="yes"/>
      <point x="421" y="55"/>
      <point x="434" y="64" type="qcurve"/>
      <point x="402" y="70"/>
      <point x="381" y="102" type="qcurve" smooth="yes"/>
      <point x="360" y="133"/>
      <point x="360" y="175" type="qcurve" smooth="yes"/>
      <point x="360" y="231"/>
      <point x="397" y="264" type="qcurve" smooth="yes"/>
      <point x="434" y="298"/>
      <point x="496" y="298" type="qcurve" smooth="yes"/>
      <point x="558" y="298"/>
      <point x="596" y="263" type="qcurve" smooth="yes"/>
      <point x="633" y="228"/>
      <point x="633" y="170" type="qcurve"/>
    </contour>
    <contour>
      <point x="503" y="482" type="line"/>
      <point x="503" y="512"/>
      <point x="487" y="533" type="qcurve" smooth="yes"/>
      <point x="471" y="554"/>
      <point x="449" y="554" type="qcurve" smooth="yes"/>
      <point x="427" y="554"/>
      <point x="411" y="533" type="qcurve" smooth="yes"/>
      <point x="395" y="512"/>
      <point x="395" y="482" type="qcurve" smooth="yes"/>
      <point x="395" y="454"/>
      <point x="411" y="434" type="qcurve" smooth="yes"/>
      <point x="427" y="414"/>
      <point x="449" y="414" type="qcurve" smooth="yes"/>
      <point x="471" y="414"/>
      <point x="487" y="434" type="qcurve" smooth="yes"/>
      <point x="503" y="454"/>
      <point x="503" y="482" type="qcurve"/>
    </contour>
    <contour>
      <point x="503" y="174" type="line"/>
      <point x="503" y="205"/>
      <point x="487" y="226" type="qcurve" smooth="yes"/>
      <point x="471" y="248"/>
      <point x="449" y="248" type="qcurve" smooth="yes"/>
      <point x="427" y="248"/>
      <point x="411" y="226" type="qcurve" smooth="yes"/>
      <point x="395" y="205"/>
      <point x="395" y="174" type="qcurve" smooth="yes"/>
      <point x="395" y="143"/>
      <point x="411" y="122" type="qcurve" smooth="yes"/>
      <point x="427" y="100"/>
      <point x="449" y="100" type="qcurve" smooth="yes"/>
      <point x="471" y="100"/>
      <point x="487" y="122" type="qcurve" smooth="yes"/>
      <point x="503" y="143"/>
      <point x="503" y="174" type="qcurve"/>
    </contour>
  </outline>
</glyph>
<glyph name="uni0BC8" format="1">
  <advance width="916"/>
  <unicode hex="0BC8"/>
  <outline>
    <contour>
      <point x="895" y="203" type="line"/>
      <point x="895" y="121"/>
      <point x="844" y="61" type="qcurve" smooth="yes"/>
      <point x="793" y="1"/>
      <point x="718" y="-7" type="qcurve"/>
      <point x="709" y="25" type="line"/>
      <point x="765" y="102"/>
      <point x="765" y="202" type="qcurve" smooth="yes"/>
      <point x="765" y="274"/>
      <point x="734" y="326" type="qcurve" smooth="yes"/>
      <point x="703" y="377"/>
      <point x="659" y="377" type="qcurve" smooth="yes"/>
      <point x="629" y="377"/>
      <point x="604" y="370" type="qcurve" smooth="yes"/>
      <point x="579" y="364"/>
      <point x="563" y="351" type="qcurve"/>
      <point x="610" y="310"/>
      <point x="635" y="257" type="qcurve" smooth="yes"/>
      <point x="661" y="204"/>
      <point x="661" y="147" type="qcurve" smooth="yes"/>
      <point x="661" y="79"/>
      <point x="622" y="38" type="qcurve" smooth="yes"/>
      <point x="584" y="-3"/>
      <point x="520" y="-3" type="qcurve" smooth="yes"/>
      <point x="456" y="-3"/>
      <point x="418" y="38" type="qcurve" smooth="yes"/>
      <point x="380" y="79"/>
      <point x="380" y="147" type="qcurve" smooth="yes"/>
      <point x="380" y="191"/>
      <point x="399" y="237" type="qcurve" smooth="yes"/>
      <point x="418" y="283"/>
      <point x="454" y="326" type="qcurve"/>
      <point x="425" y="351"/>
      <point x="381" y="364" type="qcurve" smooth="yes"/>
      <point x="338" y="377"/>
      <point x="286" y="377" type="qcurve" smooth="yes"/>
      <point x="190" y="377"/>
      <point x="122" y="317" type="qcurve" smooth="yes"/>
      <point x="54" y="257"/>
      <point x="54" y="172" type="qcurve" smooth="yes"/>
      <point x="54" y="121"/>
      <point x="75" y="83" type="qcurve" smooth="yes"/>
      <point x="96" y="45"/>
      <point x="129" y="35" type="qcurve"/>
      <point x="113" y="46"/>
      <point x="103" y="69" type="qcurve" smooth="yes"/>
      <point x="94" y="92"/>
      <point x="94" y="122" type="qcurve" smooth="yes"/>
      <point x="94" y="182"/>
      <point x="131" y="218" type="qcurve" smooth="yes"/>
      <point x="168" y="254"/>
      <point x="229" y="254" type="qcurve" smooth="yes"/>
      <point x="291" y="254"/>
      <point x="328" y="220" type="qcurve" smooth="yes"/>
      <point x="365" y="186"/>
      <point x="365" y="130" type="qcurve" smooth="yes"/>
      <point x="365" y="67"/>
      <point x="316" y="30" type="qcurve" smooth="yes"/>
      <point x="267" y="-8"/>
      <point x="185" y="-8" type="qcurve" smooth="yes"/>
      <point x="116" y="-8"/>
      <point x="68" y="44" type="qcurve" smooth="yes"/>
      <point x="19" y="96"/>
      <point x="19" y="170" type="qcurve" smooth="yes"/>
      <point x="19" y="270"/>
      <point x="103" y="341" type="qcurve" smooth="yes"/>
      <point x="187" y="412"/>
      <point x="305" y="412" type="qcurve" smooth="yes"/>
      <point x="385" y="412"/>
      <point x="442" y="401" type="qcurve" smooth="yes"/>
      <point x="498" y="390"/>
      <point x="526" y="369" type="qcurve"/>
      <point x="547" y="390"/>
      <point x="581" y="401" type="qcurve" smooth="yes"/>
      <point x="616" y="412"/>
      <point x="660" y="412" type="qcurve" smooth="yes"/>
      <point x="767" y="412"/>
      <point x="831" y="355" type="qcurve" smooth="yes"/>
      <point x="895" y="298"/>
      <point x="895" y="203" type="qcurve"/>
    </contour>
    <contour>
      <point x="531" y="147" type="line"/>
      <point x="531" y="189"/>
      <point x="515" y="227" type="qcurve" smooth="yes"/>
      <point x="499" y="265"/>
      <point x="470" y="292" type="qcurve"/>
      <point x="443" y="263"/>
      <point x="429" y="225" type="qcurve" smooth="yes"/>
      <point x="415" y="188"/>
      <point x="415" y="147" type="qcurve" smooth="yes"/>
      <point x="415" y="99"/>
      <point x="430" y="71" type="qcurve" smooth="yes"/>
      <point x="445" y="42"/>
      <point x="470" y="42" type="qcurve" smooth="yes"/>
      <point x="498" y="42"/>
      <point x="514" y="71" type="qcurve" smooth="yes"/>
      <point x="531" y="99"/>
      <point x="531" y="147" type="qcurve"/>
    </contour>
    <contour>
      <point x="235" y="120" type="line"/>
      <point x="235" y="153"/>
      <point x="219" y="176" type="qcurve" smooth="yes"/>
      <point x="202" y="199"/>
      <point x="179" y="199" type="qcurve" smooth="yes"/>
      <point x="158" y="199"/>
      <point x="144" y="176" type="qcurve" smooth="yes"/>
      <point x="129" y="153"/>
      <point x="129" y="120" type="qcurve" smooth="yes"/>
      <point x="129" y="84"/>
      <point x="144" y="58" type="qcurve" smooth="yes"/>
      <point x="158" y="32"/>
      <point x="179" y="32" type="qcurve" smooth="yes"/>
      <point x="202" y="32"/>
      <point x="219" y="58" type="qcurve" smooth="yes"/>
      <point x="235" y="84"/>
      <point x="235" y="120" type="qcurve"/>
    </contour>
  </outline>
</glyph>
<glyph name="uni0BCD" format="1">
  <advance width="320"/>
  <unicode hex="0BCD"/>
  <outline>
    <contour>
      <point x="240" y="543" type="line"/>
      <point x="240" y="514"/>
      <point x="216" y="493" type="qcurve" smooth="yes"/>
      <point x="193" y="472"/>
      <point x="159" y="472" type="qcurve" smooth="yes"/>
      <point x="126" y="472"/>
      <point x="103" y="493" type="qcurve" smooth="yes"/>
      <point x="80" y="514"/>
      <point x="80" y="543" type="qcurve" smooth="yes"/>
      <point x="80" y="572"/>
      <point x="103" y="592" type="qcurve" smooth="yes"/>
      <point x="126" y="613"/>
      <point x="159" y="613" type="qcurve" smooth="yes"/>
      <point x="193" y="613"/>
      <point x="216" y="592" type="qcurve" smooth="yes"/>
      <point x="240" y="572"/>
      <point x="240" y="543" type="qcurve"/>
    </contour>
  </outline>
</glyph>
<glyph name="uni0BD0" format="1">
  <advance width="768"/>
  <unicode hex="0BD0"/>
  <outline>
    <contour>
      <point x="18" y="156" type="line"/>
      <point x="18" y="262"/>
      <point x="109" y="326" type="qcurve" smooth="yes"/>
      <point x="201" y="390"/>
      <point x="353" y="390" type="qcurve" smooth="yes"/>
      <point x="534" y="390"/>
      <point x="642" y="326" type="qcurve" smooth="yes"/>
      <point x="751" y="261"/>
      <point x="751" y="154" type="qcurve" smooth="yes"/>
      <point x="751" y="88"/>
      <point x="699" y="48" type="qcurve" smooth="yes"/>
      <point x="647" y="8"/>
      <point x="560" y="8" type="qcurve" smooth="yes"/>
      <point x="514" y="8"/>
      <point x="482" y="37" type="qcurve" smooth="yes"/>
      <point x="449" y="67"/>
      <point x="449" y="108" type="qcurve" smooth="yes"/>
      <point x="449" y="121"/>
      <point x="454" y="131" type="qcurve"/>
      <point x="436" y="118"/>
      <point x="425" y="94" type="qcurve" smooth="yes"/>
      <point x="415" y="70"/>
      <point x="415" y="40" type="qcurve" smooth="yes"/>
      <point x="415" y="-5"/>
      <point x="466" y="-37" type="qcurve" smooth="yes"/>
      <point x="518" y="-69"/>
      <point x="590" y="-69" type="qcurve" smooth="yes"/>
      <point x="699" y="-69" type="line"/>
      <point x="699" y="-104" type="line"/>
      <point x="594" y="-104" type="line" smooth="yes"/>
      <point x="565" y="-104"/>
      <point x="544" y="-125" type="qcurve" smooth="yes"/>
      <point x="523" y="-146"/>
      <point x="523" y="-176" type="qcurve" smooth="yes"/>
      <point x="523" y="-224"/>
      <point x="447" y="-253" type="qcurve" smooth="yes"/>
      <point x="372" y="-282"/>
      <point x="246" y="-282" type="qcurve" smooth="yes"/>
      <point x="140" y="-282"/>
      <point x="76" y="-240" type="qcurve" smooth="yes"/>
      <point x="12" y="-199"/>
      <point x="12" y="-130" type="qcurve" smooth="yes"/>
      <point x="12" y="-95"/>
      <point x="34" y="-70" type="qcurve" smooth="yes"/>
      <point x="57" y="-45"/>
      <point x="88" y="-45" type="qcurve" smooth="yes"/>
      <point x="113" y="-45"/>
      <point x="131" y="-63" type="qcurve" smooth="yes"/>
      <point x="149" y="-80"/>
      <point x="149" y="-105" type="qcurve" smooth="yes"/>
      <point x="149" y="-148" type="line"/>
      <point x="224" y="-148" type="line"/>
      <point x="224" y="-111" type="line" smooth="yes"/>
      <point x="224" y="-87"/>
      <point x="245" y="-71" type="qcurve" smooth="yes"/>
      <point x="267" y="-54"/>
      <point x="297" y="-54" type="qcurve" smooth="yes"/>
      <point x="332" y="-54"/>
      <point x="356" y="-77" type="qcurve" smooth="yes"/>
      <point x="381" y="-100"/>
      <point x="381" y="-133" type="qcurve" smooth="yes"/>
      <point x="381" y="-183" type="line"/>
      <point x="114" y="-183" type="line"/>
      <point x="114" y="-105" type="line" smooth="yes"/>
      <point x="114" y="-95"/>
      <point x="106" y="-87" type="qcurve" smooth="yes"/>
      <point x="99" y="-80"/>
      <point x="88" y="-80" type="qcurve" smooth="yes"/>
      <point x="71" y="-80"/>
      <point x="59" y="-94" type="qcurve" smooth="yes"/>
      <point x="47" y="-109"/>
      <point x="47" y="-129" type="qcurve" smooth="yes"/>
      <point x="47" y="-183"/>
      <point x="102" y="-215" type="qcurve" smooth="yes"/>
      <point x="156" y="-247"/>
      <point x="247" y="-247" type="qcurve" smooth="yes"/>
      <point x="313" y="-247"/>
      <point x="353" y="-224" type="qcurve" smooth="yes"/>
      <point x="393" y="-202"/>
      <point x="393" y="-164" type="qcurve" smooth="yes"/>
      <point x="393" y="-129"/>
      <point x="415" y="-105" type="qcurve" smooth="yes"/>
      <point x="436" y="-80"/>
      <point x="467" y="-80" type="qcurve"/>
      <point x="429" y="-70"/>
      <point x="404" y="-36" type="qcurve" smooth="yes"/>
      <point x="380" y="-2"/>
      <point x="380" y="43" type="qcurve" smooth="yes"/>
      <point x="380" y="97"/>
      <point x="415" y="135" type="qcurve" smooth="yes"/>
      <point x="451" y="173"/>
      <point x="501" y="173" type="qcurve"/>
      <point x="493" y="164"/>
      <point x="488" y="147" type="qcurve" smooth="yes"/>
      <point x="484" y="130"/>
      <point x="484" y="109" type="qcurve" smooth="yes"/>
      <point x="484" y="82"/>
      <point x="503" y="62" type="qcurve" smooth="yes"/>
      <point x="523" y="43"/>
      <point x="550" y="43" type="qcurve" smooth="yes"/>
      <point x="579" y="43"/>
      <point x="600" y="75" type="qcurve" smooth="yes"/>
      <point x="621" y="107"/>
      <point x="621" y="153" type="qcurve" smooth="yes"/>
      <point x="621" y="237"/>
      <point x="541" y="296" type="qcurve" smooth="yes"/>
      <point x="460" y="355"/>
      <point x="347" y="355" type="qcurve" smooth="yes"/>
      <point x="225" y="355"/>
      <point x="139" y="297" type="qcurve" smooth="yes"/>
      <point x="53" y="238"/>
      <point x="53" y="156" type="qcurve" smooth="yes"/>
      <point x="53" y="112"/>
      <point x="74" y="76" type="qcurve" smooth="yes"/>
      <point x="95" y="41"/>
      <point x="130" y="28" type="qcurve"/>
      <point x="118" y="39"/>
      <point x="111" y="59" type="qcurve" smooth="yes"/>
      <point x="104" y="79"/>
      <point x="104" y="105" type="qcurve" smooth="yes"/>
      <point x="104" y="154"/>
      <point x="138" y="188" type="qcurve" smooth="yes"/>
      <point x="172" y="223"/>
      <point x="220" y="223" type="qcurve" smooth="yes"/>
      <point x="268" y="223"/>
      <point x="302" y="189" type="qcurve" smooth="yes"/>
      <point x="336" y="154"/>
      <point x="336" y="106" type="qcurve" smooth="yes"/>
      <point x="336" y="58"/>
      <point x="298" y="24" type="qcurve" smooth="yes"/>
      <point x="260" y="-10"/>
      <point x="206" y="-10" type="qcurve" smooth="yes"/>
      <point x="128" y="-10"/>
      <point x="73" y="39" type="qcurve" smooth="yes"/>
      <point x="18" y="87"/>
      <point x="18" y="156" type="qcurve"/>
    </contour>
    <contour>
      <point x="246" y="96" type="line"/>
      <point x="246" y="128"/>
      <point x="230" y="150" type="qcurve" smooth="yes"/>
      <point x="213" y="173"/>
      <point x="190" y="173" type="qcurve" smooth="yes"/>
      <point x="169" y="173"/>
      <point x="154" y="150" type="qcurve" smooth="yes"/>
      <point x="139" y="128"/>
      <point x="139" y="96" type="qcurve" smooth="yes"/>
      <point x="139" y="67"/>
      <point x="154" y="46" type="qcurve" smooth="yes"/>
      <point x="169" y="25"/>
      <point x="190" y="25" type="qcurve" smooth="yes"/>
      <point x="213" y="25"/>
      <point x="230" y="46" type="qcurve" smooth="yes"/>
      <point x="246" y="67"/>
      <point x="246" y="96" type="qcurve"/>
    </contour>
    <contour>
      <point x="366" y="-13" type="line"/>
      <point x="366" y="-26"/>
      <point x="356" y="-36" type="qcurve" smooth="yes"/>
      <point x="347" y="-45"/>
      <point x="333" y="-45" type="qcurve" smooth="yes"/>
      <point x="320" y="-45"/>
      <point x="310" y="-36" type="qcurve" smooth="yes"/>
      <point x="301" y="-26"/>
      <point x="301" y="-13" type="qcurve" smooth="yes"/>
      <point x="301" y="1"/>
      <point x="310" y="10" type="qcurve" smooth="yes"/>
      <point x="320" y="20"/>
      <point x="333" y="20" type="qcurve" smooth="yes"/>
      <point x="347" y="20"/>
      <point x="356" y="10" type="qcurve" smooth="yes"/>
      <point x="366" y="1"/>
      <point x="366" y="-13" type="qcurve"/>
    </contour>
    <contour>
      <point x="346" y="-134" type="line"/>
      <point x="346" y="-115"/>
      <point x="337" y="-102" type="qcurve" smooth="yes"/>
      <point x="328" y="-89"/>
      <point x="315" y="-89" type="qcurve" smooth="yes"/>
      <point x="305" y="-89"/>
      <point x="297" y="-95" type="qcurve" smooth="yes"/>
      <point x="290" y="-101"/>
      <point x="290" y="-109" type="qcurve" smooth="yes"/>
      <point x="290" y="-148" type="line"/>
      <point x="346" y="-148" type="line"/>
      <point x="346" y="-134" type="line"/>
    </contour>
  </outline>
</glyph>
<glyph name="uni0BE6" format="1">
  <advance width="515"/>
  <unicode hex="0BE6"/>
  <outline>
    <contour>
      <point x="465" y="204" type="line"/>
      <point x="465" y="118"/>
      <point x="404" y="57" type="qcurve" smooth="yes"/>
      <point x="343" y="-4"/>
      <point x="257" y="-4" type="qcurve" smooth="yes"/>
      <point x="171" y="-4"/>
      <point x="111" y="57" type="qcurve" smooth="yes"/>
      <point x="50" y="118"/>
      <point x="50" y="204" type="qcurve" smooth="yes"/>
      <point x="50" y="291"/>
      <point x="111" y="352" type="qcurve" smooth="yes"/>
      <point x="171" y="413"/>
      <point x="257" y="413" type="qcurve" smooth="yes"/>
      <point x="343" y="413"/>
      <point x="404" y="352" type="qcurve" smooth="yes"/>
      <point x="465" y="291"/>
      <point x="465" y="204" type="qcurve"/>
    </contour>
    <contour>
      <point x="335" y="204" type="line"/>
      <point x="335" y="276"/>
      <point x="312" y="327" type="qcurve" smooth="yes"/>
      <point x="289" y="378"/>
      <point x="257" y="378" type="qcurve" smooth="yes"/>
      <point x="225" y="378"/>
      <point x="203" y="327" type="qcurve" smooth="yes"/>
      <point x="180" y="276"/>
      <point x="180" y="204" type="qcurve" smooth="yes"/>
      <point x="180" y="132"/>
      <point x="203" y="82" type="qcurve" smooth="yes"/>
      <point x="225" y="31"/>
      <point x="257" y="31" type="qcurve" smooth="yes"/>
      <point x="289" y="31"/>
      <point x="312" y="82" type="qcurve" smooth="yes"/>
      <point x="335" y="132"/>
      <point x="335" y="204" type="qcurve"/>
    </contour>
  </outline>
</glyph>
<glyph name="uni0BE7" format="1">
  <advance width="707"/>
  <unicode hex="0BE7"/>
  <outline>
    <contour>
      <point x="50" y="134" type="line"/>
      <point x="50" y="173"/>
      <point x="80" y="197" type="qcurve" smooth="yes"/>
      <point x="110" y="220"/>
      <point x="160" y="220" type="qcurve" smooth="yes"/>
      <point x="175" y="220" type="line"/>
      <point x="175" y="400" type="line"/>
      <point x="559" y="400" type="line"/>
      <point x="559" y="370" type="line"/>
      <point x="450" y="370" type="line"/>
      <point x="450" y="220" type="line"/>
      <point x="532" y="220" type="line" smooth="yes"/>
      <point x="589" y="220"/>
      <point x="623" y="191" type="qcurve" smooth="yes"/>
      <point x="657" y="162"/>
      <point x="657" y="114" type="qcurve" smooth="yes"/>
      <point x="657" y="53"/>
      <point x="609" y="26" type="qcurve" smooth="yes"/>
      <point x="561" y="0"/>
      <point x="451" y="0" type="qcurve"/>
      <point x="451" y="30" type="line"/>
      <point x="492" y="30"/>
      <point x="509" y="49" type="qcurve" smooth="yes"/>
      <point x="527" y="68"/>
      <point x="527" y="113" type="qcurve" smooth="yes"/>
      <point x="527" y="149"/>
      <point x="514" y="167" type="qcurve" smooth="yes"/>
      <point x="502" y="185"/>
      <point x="477" y="185" type="qcurve" smooth="yes"/>
      <point x="450" y="185" type="line"/>
      <point x="450" y="131" type="line" smooth="yes"/>
      <point x="450" y="65"/>
      <point x="388" y="32" type="qcurve" smooth="yes"/>
      <point x="326" y="-2"/>
      <point x="204" y="-2" type="qcurve" smooth="yes"/>
      <point x="140" y="-2"/>
      <point x="95" y="38" type="qcurve" smooth="yes"/>
      <point x="50" y="78"/>
      <point x="50" y="134" type="qcurve"/>
    </contour>
    <contour>
      <point x="320" y="220" type="line"/>
      <point x="320" y="370" type="line"/>
      <point x="210" y="370" type="line"/>
      <point x="210" y="220" type="line"/>
      <point x="320" y="220" type="line"/>
    </contour>
    <contour>
      <point x="320" y="138" type="line"/>
      <point x="320" y="185" type="line"/>
      <point x="152" y="185" type="line" smooth="yes"/>
      <point x="122" y="185"/>
      <point x="103" y="171" type="qcurve" smooth="yes"/>
      <point x="85" y="158"/>
      <point x="85" y="135" type="qcurve" smooth="yes"/>
      <point x="85" y="89"/>
      <point x="118" y="61" type="qcurve" smooth="yes"/>
      <point x="151" y="33"/>
      <point x="205" y="33" type="qcurve" smooth="yes"/>
      <point x="253" y="33"/>
      <point x="286" y="64" type="qcurve" smooth="yes"/>
      <point x="320" y="95"/>
      <point x="320" y="138" type="qcurve"/>
    </contour>
  </outline>
</glyph>
<glyph name="uni0BE8" format="1">
  <advance width="617"/>
  <unicode hex="0BE8"/>
  <outline>
    <contour>
      <point x="567" y="0" type="line"/>
      <point x="157" y="0" type="line" smooth="yes"/>
      <point x="113" y="0"/>
      <point x="81" y="19" type="qcurve" smooth="yes"/>
      <point x="50" y="37"/>
      <point x="50" y="64" type="qcurve" smooth="yes"/>
      <point x="50" y="91"/>
      <point x="77" y="111" type="qcurve" smooth="yes"/>
      <point x="104" y="130"/>
      <point x="143" y="130" type="qcurve" smooth="yes"/>
      <point x="302" y="130" type="line" smooth="yes"/>
      <point x="342" y="130"/>
      <point x="371" y="166" type="qcurve" smooth="yes"/>
      <point x="399" y="202"/>
      <point x="399" y="253" type="qcurve" smooth="yes"/>
      <point x="399" y="302"/>
      <point x="363" y="337" type="qcurve" smooth="yes"/>
      <point x="326" y="372"/>
      <point x="275" y="372" type="qcurve" smooth="yes"/>
      <point x="244" y="372" type="line"/>
      <point x="283" y="365"/>
      <point x="308" y="340" type="qcurve" smooth="yes"/>
      <point x="333" y="315"/>
      <point x="333" y="283" type="qcurve" smooth="yes"/>
      <point x="333" y="235"/>
      <point x="297" y="206" type="qcurve" smooth="yes"/>
      <point x="261" y="177"/>
      <point x="202" y="177" type="qcurve" smooth="yes"/>
      <point x="143" y="177"/>
      <point x="107" y="205" type="qcurve" smooth="yes"/>
      <point x="71" y="233"/>
      <point x="71" y="280" type="qcurve" smooth="yes"/>
      <point x="71" y="342"/>
      <point x="125" y="380" type="qcurve" smooth="yes"/>
      <point x="180" y="417"/>
      <point x="270" y="417" type="qcurve" smooth="yes"/>
      <point x="377" y="417"/>
      <point x="453" y="369" type="qcurve" smooth="yes"/>
      <point x="529" y="320"/>
      <point x="529" y="252" type="qcurve" smooth="yes"/>
      <point x="529" y="181"/>
      <point x="468" y="138" type="qcurve" smooth="yes"/>
      <point x="407" y="95"/>
      <point x="306" y="95" type="qcurve" smooth="yes"/>
      <point x="230" y="95" type="line" smooth="yes"/>
      <point x="209" y="95"/>
      <point x="194" y="86" type="qcurve" smooth="yes"/>
      <point x="179" y="76"/>
      <point x="179" y="63" type="qcurve" smooth="yes"/>
      <point x="179" y="49"/>
      <point x="194" y="40" type="qcurve" smooth="yes"/>
      <point x="208" y="30"/>
      <point x="229" y="30" type="qcurve" smooth="yes"/>
      <point x="567" y="30" type="line"/>
      <point x="567" y="0" type="line"/>
    </contour>
    <contour>
      <point x="203" y="283" type="line"/>
      <point x="203" y="311"/>
      <point x="188" y="331" type="qcurve" smooth="yes"/>
      <point x="173" y="351"/>
      <point x="152" y="351" type="qcurve" smooth="yes"/>
      <point x="133" y="351"/>
      <point x="119" y="330" type="qcurve" smooth="yes"/>
      <point x="106" y="308"/>
      <point x="106" y="278" type="qcurve" smooth="yes"/>
      <point x="106" y="254"/>
      <point x="119" y="236" type="qcurve" smooth="yes"/>
      <point x="133" y="219"/>
      <point x="152" y="219" type="qcurve" smooth="yes"/>
      <point x="173" y="219"/>
      <point x="188" y="238" type="qcurve" smooth="yes"/>
      <point x="203" y="256"/>
      <point x="203" y="283" type="qcurve"/>
    </contour>
  </outline>
</glyph>
<glyph name="uni0BE9" format="1">
  <advance width="690"/>
  <unicode hex="0BE9"/>
  <outline>
    <contour>
      <point x="640" y="0" type="line"/>
      <point x="223" y="0" type="line"/>
      <point x="223" y="30" type="line"/>
      <point x="389" y="30" type="line"/>
      <point x="417" y="45"/>
      <point x="433" y="77" type="qcurve" smooth="yes"/>
      <point x="449" y="109"/>
      <point x="449" y="149" type="qcurve" smooth="yes"/>
      <point x="449" y="185"/>
      <point x="431" y="210" type="qcurve" smooth="yes"/>
      <point x="413" y="235"/>
      <point x="388" y="235" type="qcurve" smooth="yes"/>
      <point x="374" y="235"/>
      <point x="363" y="221" type="qcurve" smooth="yes"/>
      <point x="353" y="207"/>
      <point x="353" y="187" type="qcurve" smooth="yes"/>
      <point x="353" y="110" type="line"/>
      <point x="223" y="110" type="line"/>
      <point x="223" y="370" type="line"/>
      <point x="85" y="370" type="line"/>
      <point x="85" y="0" type="line"/>
      <point x="50" y="0" type="line"/>
      <point x="50" y="400" type="line"/>
      <point x="514" y="400" type="line"/>
      <point x="514" y="370" type="line"/>
      <point x="353" y="370" type="line"/>
      <point x="353" y="257" type="line"/>
      <point x="387" y="280"/>
      <point x="442" y="280" type="qcurve" smooth="yes"/>
      <point x="504" y="280"/>
      <point x="542" y="243" type="qcurve" smooth="yes"/>
      <point x="579" y="207"/>
      <point x="579" y="146" type="qcurve" smooth="yes"/>
      <point x="579" y="110"/>
      <point x="553" y="78" type="qcurve" smooth="yes"/>
      <point x="527" y="46"/>
      <point x="485" y="30" type="qcurve"/>
      <point x="640" y="30" type="line"/>
      <point x="640" y="0" type="line"/>
    </contour>
  </outline>
</glyph>
<glyph name="uni0BEA" format="1">
  <advance width="700"/>
  <unicode hex="0BEA"/>
  <outline>
    <contour>
      <point x="650" y="185" type="line"/>
      <point x="450" y="185" type="line"/>
      <point x="450" y="131" type="line" smooth="yes"/>
      <point x="450" y="65"/>
      <point x="393" y="32" type="qcurve" smooth="yes"/>
      <point x="336" y="-2"/>
      <point x="224" y="-2" type="qcurve" smooth="yes"/>
      <point x="145" y="-2"/>
      <point x="98" y="35" type="qcurve" smooth="yes"/>
      <point x="50" y="72"/>
      <point x="50" y="134" type="qcurve" smooth="yes"/>
      <point x="50" y="173"/>
      <point x="80" y="197" type="qcurve" smooth="yes"/>
      <point x="110" y="220"/>
      <point x="160" y="220" type="qcurve" smooth="yes"/>
      <point x="165" y="220" type="line"/>
      <point x="165" y="400" type="line"/>
      <point x="550" y="400" type="line"/>
      <point x="550" y="370" type="line"/>
      <point x="450" y="370" type="line"/>
      <point x="450" y="220" type="line"/>
      <point x="520" y="220" type="line"/>
      <point x="520" y="264" type="line"/>
      <point x="650" y="264" type="line"/>
      <point x="650" y="185" type="line"/>
    </contour>
    <contour>
      <point x="320" y="220" type="line"/>
      <point x="320" y="370" type="line"/>
      <point x="200" y="370" type="line"/>
      <point x="200" y="220" type="line"/>
      <point x="320" y="220" type="line"/>
    </contour>
    <contour>
      <point x="320" y="138" type="line"/>
      <point x="320" y="185" type="line"/>
      <point x="153" y="185" type="line" smooth="yes"/>
      <point x="122" y="185"/>
      <point x="104" y="171" type="qcurve" smooth="yes"/>
      <point x="85" y="158"/>
      <point x="85" y="135" type="qcurve" smooth="yes"/>
      <point x="85" y="89"/>
      <point x="123" y="61" type="qcurve" smooth="yes"/>
      <point x="161" y="33"/>
      <point x="225" y="33" type="qcurve" smooth="yes"/>
      <point x="268" y="33"/>
      <point x="294" y="62" type="qcurve" smooth="yes"/>
      <point x="320" y="90"/>
      <point x="320" y="138" type="qcurve"/>
    </contour>
  </outline>
</glyph>
<glyph name="uni0BEB" format="1">
  <advance width="853"/>
  <unicode hex="0BEB"/>
  <outline>
    <contour>
      <point x="50" y="200" type="line"/>
      <point x="50" y="368"/>
      <point x="169" y="487" type="qcurve" smooth="yes"/>
      <point x="287" y="606"/>
      <point x="455" y="606" type="qcurve" smooth="yes"/>
      <point x="571" y="606"/>
      <point x="657" y="551" type="qcurve" smooth="yes"/>
      <point x="742" y="496"/>
      <point x="757" y="411" type="qcurve"/>
      <point x="726" y="411" type="line"/>
      <point x="708" y="482"/>
      <point x="633" y="526" type="qcurve" smooth="yes"/>
      <point x="557" y="571"/>
      <point x="455" y="571" type="qcurve" smooth="yes"/>
      <point x="341" y="571"/>
      <point x="261" y="462" type="qcurve" smooth="yes"/>
      <point x="180" y="354"/>
      <point x="180" y="200" type="qcurve" smooth="yes"/>
      <point x="180" y="38"/>
      <point x="250" y="-59" type="qcurve" smooth="yes"/>
      <point x="320" y="-157"/>
      <point x="437" y="-157" type="qcurve" smooth="yes"/>
      <point x="535" y="-157"/>
      <point x="604" y="-93" type="qcurve" smooth="yes"/>
      <point x="673" y="-30"/>
      <point x="673" y="60" type="qcurve" smooth="yes"/>
      <point x="673" y="113"/>
      <point x="652" y="151" type="qcurve" smooth="yes"/>
      <point x="632" y="188"/>
      <point x="603" y="188" type="qcurve" smooth="yes"/>
      <point x="591" y="188"/>
      <point x="582" y="176" type="qcurve" smooth="yes"/>
      <point x="574" y="165"/>
      <point x="574" y="148" type="qcurve" smooth="yes"/>
      <point x="574" y="0" type="line"/>
      <point x="444" y="0" type="line"/>
      <point x="444" y="370" type="line"/>
      <point x="303" y="370" type="line"/>
      <point x="303" y="0" type="line"/>
      <point x="268" y="0" type="line"/>
      <point x="268" y="400" type="line"/>
      <point x="673" y="400" type="line"/>
      <point x="673" y="370" type="line"/>
      <point x="574" y="370" type="line"/>
      <point x="574" y="214" type="line"/>
      <point x="611" y="238"/>
      <point x="655" y="238" type="qcurve" smooth="yes"/>
      <point x="716" y="238"/>
      <point x="760" y="185" type="qcurve" smooth="yes"/>
      <point x="803" y="133"/>
      <point x="803" y="58" type="qcurve" smooth="yes"/>
      <point x="803" y="-46"/>
      <point x="696" y="-119" type="qcurve" smooth="yes"/>
      <point x="588" y="-192"/>
      <point x="436" y="-192" type="qcurve" smooth="yes"/>
      <point x="261" y="-192"/>
      <point x="155" y="-85" type="qcurve" smooth="yes"/>
      <point x="50" y="22"/>
      <point x="50" y="200" type="qcurve"/>
    </contour>
  </outline>
</glyph>
<glyph name="uni0BEC" format="1">
  <advance width="916"/>
  <unicode hex="0BEC"/>
  <outline>
    <contour>
      <point x="50" y="134" type="line"/>
      <point x="50" y="173"/>
      <point x="77" y="197" type="qcurve" smooth="yes"/>
      <point x="105" y="220"/>
      <point x="150" y="220" type="qcurve" smooth="yes"/>
      <point x="165" y="220" type="line"/>
      <point x="165" y="400" type="line"/>
      <point x="596" y="400" type="line"/>
      <point x="596" y="370" type="line"/>
      <point x="450" y="370" type="line"/>
      <point x="450" y="220" type="line"/>
      <point x="866" y="220" type="line"/>
      <point x="866" y="185" type="line"/>
      <point x="800" y="185" type="line"/>
      <point x="800" y="0" type="line"/>
      <point x="670" y="0" type="line"/>
      <point x="670" y="185" type="line"/>
      <point x="616" y="185" type="line"/>
      <point x="616" y="0" type="line"/>
      <point x="486" y="0" type="line"/>
      <point x="486" y="185" type="line"/>
      <point x="450" y="185" type="line"/>
      <point x="450" y="131" type="line" smooth="yes"/>
      <point x="450" y="65"/>
      <point x="392" y="32" type="qcurve" smooth="yes"/>
      <point x="333" y="-2"/>
      <point x="219" y="-2" type="qcurve" smooth="yes"/>
      <point x="142" y="-2"/>
      <point x="96" y="35" type="qcurve" smooth="yes"/>
      <point x="50" y="72"/>
      <point x="50" y="134" type="qcurve"/>
    </contour>
    <contour>
      <point x="320" y="220" type="line"/>
      <point x="320" y="370" type="line"/>
      <point x="200" y="370" type="line"/>
      <point x="200" y="220" type="line"/>
      <point x="320" y="220" type="line"/>
    </contour>
    <contour>
      <point x="320" y="138" type="line"/>
      <point x="320" y="185" type="line"/>
      <point x="153" y="185" type="line" smooth="yes"/>
      <point x="122" y="185"/>
      <point x="104" y="171" type="qcurve" smooth="yes"/>
      <point x="85" y="158"/>
      <point x="85" y="135" type="qcurve" smooth="yes"/>
      <point x="85" y="89"/>
      <point x="122" y="61" type="qcurve" smooth="yes"/>
      <point x="159" y="33"/>
      <point x="220" y="33" type="qcurve" smooth="yes"/>
      <point x="265" y="33"/>
      <point x="293" y="62" type="qcurve" smooth="yes"/>
      <point x="320" y="90"/>
      <point x="320" y="138" type="qcurve"/>
    </contour>
  </outline>
</glyph>
<glyph name="uni0BED" format="1">
  <advance width="714"/>
  <unicode hex="0BED"/>
  <outline>
    <contour>
      <point x="458" y="0" type="line"/>
      <point x="458" y="370" type="line"/>
      <point x="278" y="370" type="line" smooth="yes"/>
      <point x="198" y="370"/>
      <point x="142" y="314" type="qcurve" smooth="yes"/>
      <point x="85" y="259"/>
      <point x="85" y="180" type="qcurve" smooth="yes"/>
      <point x="85" y="132"/>
      <point x="103" y="96" type="qcurve" smooth="yes"/>
      <point x="120" y="60"/>
      <point x="149" y="49" type="qcurve"/>
      <point x="135" y="66"/>
      <point x="128" y="85" type="qcurve" smooth="yes"/>
      <point x="121" y="103"/>
      <point x="121" y="120" type="qcurve" smooth="yes"/>
      <point x="121" y="178"/>
      <point x="166" y="219" type="qcurve" smooth="yes"/>
      <point x="210" y="260"/>
      <point x="273" y="260" type="qcurve" smooth="yes"/>
      <point x="336" y="260"/>
      <point x="380" y="220" type="qcurve" smooth="yes"/>
      <point x="425" y="180"/>
      <point x="425" y="123" type="qcurve" smooth="yes"/>
      <point x="425" y="68"/>
      <point x="377" y="29" type="qcurve" smooth="yes"/>
      <point x="330" y="-10"/>
      <point x="262" y="-10" type="qcurve" smooth="yes"/>
      <point x="174" y="-10"/>
      <point x="112" y="47" type="qcurve" smooth="yes"/>
      <point x="50" y="103"/>
      <point x="50" y="183" type="qcurve" smooth="yes"/>
      <point x="50" y="273"/>
      <point x="117" y="336" type="qcurve" smooth="yes"/>
      <point x="184" y="400"/>
      <point x="278" y="400" type="qcurve" smooth="yes"/>
      <point x="664" y="400" type="line"/>
      <point x="664" y="370" type="line"/>
      <point x="588" y="370" type="line"/>
      <point x="588" y="0" type="line"/>
      <point x="458" y="0" type="line"/>
    </contour>
    <contour>
      <point x="295" y="119" type="line"/>
      <point x="295" y="153"/>
      <point x="274" y="176" type="qcurve" smooth="yes"/>
      <point x="254" y="200"/>
      <point x="225" y="200" type="qcurve" smooth="yes"/>
      <point x="196" y="200"/>
      <point x="176" y="176" type="qcurve" smooth="yes"/>
      <point x="156" y="151"/>
      <point x="156" y="117" type="qcurve" smooth="yes"/>
      <point x="156" y="84"/>
      <point x="176" y="60" type="qcurve" smooth="yes"/>
      <point x="196" y="37"/>
      <point x="225" y="37" type="qcurve" smooth="yes"/>
      <point x="254" y="37"/>
      <point x="274" y="61" type="qcurve" smooth="yes"/>
      <point x="295" y="85"/>
      <point x="295" y="119" type="qcurve"/>
    </contour>
  </outline>
</glyph>
<glyph name="uni0BEE" format="1">
  <advance width="1003"/>
  <unicode hex="0BEE"/>
  <outline>
    <contour>
      <point x="50" y="27" type="line"/>
      <point x="50" y="50"/>
      <point x="69" y="67" type="qcurve" smooth="yes"/>
      <point x="87" y="83"/>
      <point x="114" y="83" type="qcurve" smooth="yes"/>
      <point x="614" y="83" type="line"/>
      <point x="649" y="149"/>
      <point x="649" y="215" type="qcurve" smooth="yes"/>
      <point x="649" y="282"/>
      <point x="612" y="330" type="qcurve" smooth="yes"/>
      <point x="575" y="377"/>
      <point x="522" y="377" type="qcurve"/>
      <point x="554" y="358"/>
      <point x="573" y="329" type="qcurve" smooth="yes"/>
      <point x="592" y="299"/>
      <point x="592" y="267" type="qcurve" smooth="yes"/>
      <point x="592" y="208"/>
      <point x="550" y="173" type="qcurve" smooth="yes"/>
      <point x="508" y="138"/>
      <point x="438" y="138" type="qcurve" smooth="yes"/>
      <point x="369" y="138"/>
      <point x="327" y="175" type="qcurve" smooth="yes"/>
      <point x="285" y="212"/>
      <point x="285" y="273" type="qcurve" smooth="yes"/>
      <point x="285" y="336"/>
      <point x="347" y="374" type="qcurve" smooth="yes"/>
      <point x="410" y="412"/>
      <point x="513" y="412" type="qcurve" smooth="yes"/>
      <point x="634" y="412"/>
      <point x="706" y="358" type="qcurve" smooth="yes"/>
      <point x="779" y="304"/>
      <point x="779" y="214" type="qcurve" smooth="yes"/>
      <point x="779" y="136"/>
      <point x="752" y="83" type="qcurve"/>
      <point x="823" y="83" type="line"/>
      <point x="823" y="400" type="line"/>
      <point x="953" y="400" type="line"/>
      <point x="953" y="-134" type="line"/>
      <point x="823" y="-134" type="line"/>
      <point x="823" y="48" type="line"/>
      <point x="734" y="48" type="line"/>
      <point x="689" y="-30"/>
      <point x="583" y="-75" type="qcurve" smooth="yes"/>
      <point x="477" y="-120"/>
      <point x="339" y="-120" type="qcurve" smooth="yes"/>
      <point x="219" y="-120"/>
      <point x="135" y="-77" type="qcurve" smooth="yes"/>
      <point x="50" y="-34"/>
      <point x="50" y="27" type="qcurve"/>
    </contour>
    <contour>
      <point x="492" y="270" type="line"/>
      <point x="492" y="306"/>
      <point x="466" y="332" type="qcurve" smooth="yes"/>
      <point x="440" y="358"/>
      <point x="403" y="358" type="qcurve" smooth="yes"/>
      <point x="369" y="358"/>
      <point x="344" y="332" type="qcurve" smooth="yes"/>
      <point x="320" y="306"/>
      <point x="320" y="270" type="qcurve" smooth="yes"/>
      <point x="320" y="236"/>
      <point x="344" y="212" type="qcurve" smooth="yes"/>
      <point x="369" y="188"/>
      <point x="403" y="188" type="qcurve" smooth="yes"/>
      <point x="440" y="188"/>
      <point x="466" y="212" type="qcurve" smooth="yes"/>
      <point x="492" y="236"/>
      <point x="492" y="270" type="qcurve"/>
    </contour>
    <contour>
      <point x="591" y="48" type="line"/>
      <point x="111" y="48" type="line" smooth="yes"/>
      <point x="100" y="48"/>
      <point x="93" y="42" type="qcurve" smooth="yes"/>
      <point x="85" y="36"/>
      <point x="85" y="28" type="qcurve" smooth="yes"/>
      <point x="85" y="-19"/>
      <point x="153" y="-52" type="qcurve" smooth="yes"/>
      <point x="220" y="-85"/>
      <point x="316" y="-85" type="qcurve" smooth="yes"/>
      <point x="404" y="-85"/>
      <point x="477" y="-50" type="qcurve" smooth="yes"/>
      <point x="551" y="-14"/>
      <point x="591" y="48" type="qcurve"/>
    </contour>
  </outline>
</glyph>
<glyph name="uni0BEF" format="1">
  <advance width="929"/>
  <unicode hex="0BEF"/>
  <outline>
    <contour>
      <point x="50" y="134" type="line"/>
      <point x="50" y="170"/>
      <point x="79" y="195" type="qcurve" smooth="yes"/>
      <point x="109" y="220"/>
      <point x="150" y="220" type="qcurve" smooth="yes"/>
      <point x="165" y="220" type="line"/>
      <point x="165" y="400" type="line"/>
      <point x="550" y="400" type="line"/>
      <point x="550" y="370" type="line"/>
      <point x="440" y="370" type="line"/>
      <point x="440" y="220" type="line"/>
      <point x="553" y="220" type="line"/>
      <point x="607" y="258"/>
      <point x="685" y="258" type="qcurve" smooth="yes"/>
      <point x="773" y="258"/>
      <point x="826" y="217" type="qcurve" smooth="yes"/>
      <point x="879" y="176"/>
      <point x="879" y="108" type="qcurve" smooth="yes"/>
      <point x="879" y="72"/>
      <point x="865" y="43" type="qcurve" smooth="yes"/>
      <point x="851" y="14"/>
      <point x="826" y="0" type="qcurve"/>
      <point x="713" y="0" type="line"/>
      <point x="713" y="30" type="line"/>
      <point x="730" y="40"/>
      <point x="739" y="62" type="qcurve" smooth="yes"/>
      <point x="749" y="84"/>
      <point x="749" y="112" type="qcurve" smooth="yes"/>
      <point x="749" y="154"/>
      <point x="725" y="183" type="qcurve" smooth="yes"/>
      <point x="700" y="213"/>
      <point x="666" y="213" type="qcurve" smooth="yes"/>
      <point x="655" y="213"/>
      <point x="633" y="208" type="qcurve" smooth="yes"/>
      <point x="611" y="203"/>
      <point x="622" y="203" type="qcurve" smooth="yes"/>
      <point x="654" y="196"/>
      <point x="674" y="167" type="qcurve" smooth="yes"/>
      <point x="694" y="138"/>
      <point x="694" y="101" type="qcurve" smooth="yes"/>
      <point x="694" y="52"/>
      <point x="665" y="22" type="qcurve" smooth="yes"/>
      <point x="636" y="-8"/>
      <point x="587" y="-8" type="qcurve" smooth="yes"/>
      <point x="538" y="-8"/>
      <point x="509" y="21" type="qcurve" smooth="yes"/>
      <point x="480" y="51"/>
      <point x="480" y="100" type="qcurve" smooth="yes"/>
      <point x="480" y="127"/>
      <point x="489" y="149" type="qcurve" smooth="yes"/>
      <point x="498" y="171"/>
      <point x="514" y="185" type="qcurve"/>
      <point x="440" y="185" type="line"/>
      <point x="440" y="131" type="line" smooth="yes"/>
      <point x="440" y="73"/>
      <point x="375" y="33" type="qcurve" smooth="yes"/>
      <point x="309" y="-8"/>
      <point x="217" y="-8" type="qcurve" smooth="yes"/>
      <point x="148" y="-8"/>
      <point x="99" y="34" type="qcurve" smooth="yes"/>
      <point x="50" y="75"/>
      <point x="50" y="134" type="qcurve"/>
    </contour>
    <contour>
      <point x="310" y="220" type="line"/>
      <point x="310" y="370" type="line"/>
      <point x="200" y="370" type="line"/>
      <point x="200" y="220" type="line"/>
      <point x="310" y="220" type="line"/>
    </contour>
    <contour>
      <point x="310" y="134" type="line"/>
      <point x="310" y="185" type="line"/>
      <point x="142" y="185" type="line" smooth="yes"/>
      <point x="118" y="185"/>
      <point x="102" y="170" type="qcurve" smooth="yes"/>
      <point x="85" y="156"/>
      <point x="85" y="135" type="qcurve" smooth="yes"/>
      <point x="85" y="90"/>
      <point x="121" y="59" type="qcurve" smooth="yes"/>
      <point x="158" y="27"/>
      <point x="209" y="27" type="qcurve" smooth="yes"/>
      <point x="251" y="27"/>
      <point x="280" y="58" type="qcurve" smooth="yes"/>
      <point x="310" y="90"/>
      <point x="310" y="134" type="qcurve"/>
    </contour>
    <contour>
      <point x="609" y="102" type="line"/>
      <point x="609" y="134"/>
      <point x="596" y="156" type="qcurve" smooth="yes"/>
      <point x="583" y="179"/>
      <point x="564" y="179" type="qcurve" smooth="yes"/>
      <point x="544" y="179"/>
      <point x="529" y="157" type="qcurve" smooth="yes"/>
      <point x="515" y="134"/>
      <point x="515" y="103" type="qcurve" smooth="yes"/>
      <point x="515" y="72"/>
      <point x="528" y="49" type="qcurve" smooth="yes"/>
      <point x="541" y="27"/>
      <point x="559" y="27" type="qcurve" smooth="yes"/>
      <point x="580" y="27"/>
      <point x="594" y="49" type="qcurve" smooth="yes"/>
      <point x="609" y="71"/>
      <point x="609" y="102" type="qcurve"/>
    </contour>
  </outline>
</glyph>
<glyph name="uni0BF0" format="1">
  <advance width="600"/>
  <unicode hex="0BF0"/>
  <outline>
    <contour>
      <point x="576" y="230" type="line"/>
      <point x="576" y="123"/>
      <point x="521" y="59" type="qcurve" smooth="yes"/>
      <point x="467" y="-5"/>
      <point x="376" y="-5" type="qcurve" smooth="yes"/>
      <point x="336" y="-5"/>
      <point x="303" y="14" type="qcurve" smooth="yes"/>
      <point x="270" y="33"/>
      <point x="253" y="66" type="qcurve"/>
      <point x="242" y="34"/>
      <point x="211" y="15" type="qcurve" smooth="yes"/>
      <point x="179" y="-5"/>
      <point x="139" y="-5" type="qcurve" smooth="yes"/>
      <point x="98" y="-5"/>
      <point x="70" y="25" type="qcurve" smooth="yes"/>
      <point x="41" y="55"/>
      <point x="41" y="98" type="qcurve" smooth="yes"/>
      <point x="41" y="400" type="line"/>
      <point x="76" y="400" type="line"/>
      <point x="76" y="98" type="line" smooth="yes"/>
      <point x="76" y="70"/>
      <point x="90" y="50" type="qcurve" smooth="yes"/>
      <point x="104" y="30"/>
      <point x="123" y="30" type="qcurve" smooth="yes"/>
      <point x="145" y="30"/>
      <point x="160" y="50" type="qcurve" smooth="yes"/>
      <point x="175" y="70"/>
      <point x="175" y="98" type="qcurve" smooth="yes"/>
      <point x="175" y="400" type="line"/>
      <point x="305" y="400" type="line"/>
      <point x="305" y="97" type="line" smooth="yes"/>
      <point x="305" y="69"/>
      <point x="320" y="50" type="qcurve" smooth="yes"/>
      <point x="335" y="30"/>
      <point x="356" y="30" type="qcurve" smooth="yes"/>
      <point x="393" y="30"/>
      <point x="420" y="89" type="qcurve" smooth="yes"/>
      <point x="446" y="148"/>
      <point x="446" y="231" type="qcurve" smooth="yes"/>
      <point x="446" y="323"/>
      <point x="406" y="388" type="qcurve" smooth="yes"/>
      <point x="366" y="453"/>
      <point x="310" y="453" type="qcurve" smooth="yes"/>
      <point x="41" y="453" type="line"/>
      <point x="41" y="488" type="line"/>
      <point x="320" y="488" type="line" smooth="yes"/>
      <point x="426" y="488"/>
      <point x="501" y="412" type="qcurve" smooth="yes"/>
      <point x="576" y="337"/>
      <point x="576" y="230" type="qcurve"/>
    </contour>
  </outline>
</glyph>
<glyph name="uni0BF1" format="1">
  <advance width="628"/>
  <unicode hex="0BF1"/>
  <outline>
    <contour>
      <point x="40" y="0" type="line"/>
      <point x="40" y="309" type="line" smooth="yes"/>
      <point x="40" y="347"/>
      <point x="75" y="373" type="qcurve" smooth="yes"/>
      <point x="111" y="400"/>
      <point x="161" y="400" type="qcurve" smooth="yes"/>
      <point x="211" y="400"/>
      <point x="247" y="382" type="qcurve" smooth="yes"/>
      <point x="283" y="364"/>
      <point x="292" y="335" type="qcurve"/>
      <point x="302" y="364"/>
      <point x="329" y="382" type="qcurve" smooth="yes"/>
      <point x="355" y="400"/>
      <point x="388" y="400" type="qcurve" smooth="yes"/>
      <point x="625" y="400" type="line"/>
      <point x="625" y="370" type="line"/>
      <point x="566" y="370" type="line"/>
      <point x="566" y="0" type="line"/>
      <point x="436" y="0" type="line"/>
      <point x="436" y="370" type="line"/>
      <point x="398" y="370" type="line" smooth="yes"/>
      <point x="372" y="370"/>
      <point x="354" y="350" type="qcurve" smooth="yes"/>
      <point x="336" y="330"/>
      <point x="336" y="301" type="qcurve" smooth="yes"/>
      <point x="336" y="0" type="line"/>
      <point x="206" y="0" type="line"/>
      <point x="206" y="305" type="line" smooth="yes"/>
      <point x="206" y="330"/>
      <point x="187" y="347" type="qcurve" smooth="yes"/>
      <point x="167" y="365"/>
      <point x="140" y="365" type="qcurve" smooth="yes"/>
      <point x="113" y="365"/>
      <point x="94" y="349" type="qcurve" smooth="yes"/>
      <point x="75" y="332"/>
      <point x="75" y="309" type="qcurve" smooth="yes"/>
      <point x="75" y="0" type="line"/>
      <point x="40" y="0" type="line"/>
    </contour>
  </outline>
</glyph>
<glyph name="uni0BF2" format="1">
  <advance width="788"/>
  <unicode hex="0BF2"/>
  <outline>
    <contour>
      <point x="13" y="122" type="line"/>
      <point x="13" y="161"/>
      <point x="41" y="188" type="qcurve" smooth="yes"/>
      <point x="69" y="215"/>
      <point x="108" y="215" type="qcurve" smooth="yes"/>
      <point x="126" y="215" type="line"/>
      <point x="126" y="400" type="line"/>
      <point x="520" y="400" type="line"/>
      <point x="520" y="370" type="line"/>
      <point x="385" y="370" type="line"/>
      <point x="385" y="215" type="line"/>
      <point x="682" y="215" type="line"/>
      <point x="682" y="180" type="line"/>
      <point x="575" y="180" type="line"/>
      <point x="575" y="107" type="line"/>
      <point x="618" y="129"/>
      <point x="665" y="129" type="qcurve" smooth="yes"/>
      <point x="712" y="129"/>
      <point x="746" y="97" type="qcurve" smooth="yes"/>
      <point x="779" y="65"/>
      <point x="779" y="20" type="qcurve" smooth="yes"/>
      <point x="779" y="-51"/>
      <point x="697" y="-94" type="qcurve" smooth="yes"/>
      <point x="614" y="-137"/>
      <point x="477" y="-137" type="qcurve" smooth="yes"/>
      <point x="173" y="-137" type="line" smooth="yes"/>
      <point x="140" y="-137"/>
      <point x="117" y="-144" type="qcurve" smooth="yes"/>
      <point x="94" y="-152"/>
      <point x="89" y="-164" type="qcurve"/>
      <point x="115" y="-154"/>
      <point x="138" y="-164" type="qcurve" smooth="yes"/>
      <point x="161" y="-174"/>
      <point x="161" y="-195" type="qcurve" smooth="yes"/>
      <point x="161" y="-210"/>
      <point x="140" y="-220" type="qcurve" smooth="yes"/>
      <point x="119" y="-231"/>
      <point x="90" y="-231" type="qcurve" smooth="yes"/>
      <point x="71" y="-231"/>
      <point x="57" y="-215" type="qcurve" smooth="yes"/>
      <point x="43" y="-199"/>
      <point x="43" y="-177" type="qcurve" smooth="yes"/>
      <point x="43" y="-146"/>
      <point x="81" y="-124" type="qcurve" smooth="yes"/>
      <point x="119" y="-102"/>
      <point x="173" y="-102" type="qcurve" smooth="yes"/>
      <point x="476" y="-102" type="line" smooth="yes"/>
      <point x="548" y="-102"/>
      <point x="598" y="-69" type="qcurve" smooth="yes"/>
      <point x="649" y="-36"/>
      <point x="649" y="10" type="qcurve" smooth="yes"/>
      <point x="649" y="39"/>
      <point x="636" y="59" type="qcurve" smooth="yes"/>
      <point x="622" y="79"/>
      <point x="603" y="79" type="qcurve" smooth="yes"/>
      <point x="591" y="79"/>
      <point x="583" y="69" type="qcurve" smooth="yes"/>
      <point x="575" y="58"/>
      <point x="575" y="44" type="qcurve" smooth="yes"/>
      <point x="575" y="0" type="line"/>
      <point x="445" y="0" type="line"/>
      <point x="445" y="180" type="line"/>
      <point x="385" y="180" type="line"/>
      <point x="385" y="134" type="line" smooth="yes"/>
      <point x="385" y="76"/>
      <point x="322" y="36" type="qcurve" smooth="yes"/>
      <point x="258" y="-5"/>
      <point x="169" y="-5" type="qcurve" smooth="yes"/>
      <point x="104" y="-5"/>
      <point x="59" y="32" type="qcurve" smooth="yes"/>
      <point x="13" y="69"/>
      <point x="13" y="122" type="qcurve"/>
    </contour>
    <contour>
      <point x="255" y="215" type="line"/>
      <point x="255" y="370" type="line"/>
      <point x="161" y="370" type="line"/>
      <point x="161" y="215" type="line"/>
      <point x="255" y="215" type="line"/>
    </contour>
    <contour>
      <point x="255" y="132" type="line"/>
      <point x="255" y="180" type="line"/>
      <point x="109" y="180" type="line" smooth="yes"/>
      <point x="84" y="180"/>
      <point x="66" y="164" type="qcurve" smooth="yes"/>
      <point x="48" y="147"/>
      <point x="48" y="124" type="qcurve" smooth="yes"/>
      <point x="48" y="92"/>
      <point x="73" y="66" type="qcurve" smooth="yes"/>
      <point x="97" y="40"/>
      <point x="136" y="31" type="qcurve" smooth="yes"/>
      <point x="182" y="21"/>
      <point x="218" y="52" type="qcurve" smooth="yes"/>
      <point x="255" y="83"/>
      <point x="255" y="132" type="qcurve"/>
    </contour>
  </outline>
</glyph>
<glyph name="uni0BF3" format="1">
  <advance width="740"/>
  <unicode hex="0BF3"/>
  <outline>
    <contour>
      <point x="20" y="182" type="line"/>
      <point x="20" y="281"/>
      <point x="101" y="351" type="qcurve" smooth="yes"/>
      <point x="182" y="421"/>
      <point x="297" y="421" type="qcurve" smooth="yes"/>
      <point x="412" y="421"/>
      <point x="493" y="356" type="qcurve" smooth="yes"/>
      <point x="574" y="290"/>
      <point x="574" y="198" type="qcurve" smooth="yes"/>
      <point x="574" y="145"/>
      <point x="554" y="100" type="qcurve" smooth="yes"/>
      <point x="534" y="56"/>
      <point x="499" y="30" type="qcurve"/>
      <point x="737" y="30" type="line"/>
      <point x="737" y="0" type="line"/>
      <point x="357" y="0" type="line"/>
      <point x="357" y="27" type="line"/>
      <point x="397" y="46"/>
      <point x="420" y="92" type="qcurve" smooth="yes"/>
      <point x="444" y="138"/>
      <point x="444" y="196" type="qcurve" smooth="yes"/>
      <point x="444" y="271"/>
      <point x="387" y="323" type="qcurve" smooth="yes"/>
      <point x="330" y="376"/>
      <point x="249" y="376" type="qcurve" smooth="yes"/>
      <point x="169" y="376"/>
      <point x="112" y="319" type="qcurve" smooth="yes"/>
      <point x="55" y="262"/>
      <point x="55" y="182" type="qcurve" smooth="yes"/>
      <point x="55" y="137"/>
      <point x="72" y="100" type="qcurve" smooth="yes"/>
      <point x="90" y="64"/>
      <point x="120" y="44" type="qcurve"/>
      <point x="107" y="59"/>
      <point x="101" y="79" type="qcurve" smooth="yes"/>
      <point x="94" y="100"/>
      <point x="94" y="123" type="qcurve" smooth="yes"/>
      <point x="94" y="180"/>
      <point x="131" y="214" type="qcurve" smooth="yes"/>
      <point x="167" y="248"/>
      <point x="228" y="248" type="qcurve" smooth="yes"/>
      <point x="289" y="248"/>
      <point x="325" y="214" type="qcurve" smooth="yes"/>
      <point x="362" y="179"/>
      <point x="362" y="122" type="qcurve" smooth="yes"/>
      <point x="362" y="65"/>
      <point x="317" y="30" type="qcurve" smooth="yes"/>
      <point x="271" y="-4"/>
      <point x="196" y="-4" type="qcurve" smooth="yes"/>
      <point x="116" y="-4"/>
      <point x="68" y="47" type="qcurve" smooth="yes"/>
      <point x="20" y="98"/>
      <point x="20" y="182" type="qcurve"/>
    </contour>
    <contour>
      <point x="232" y="119" type="line"/>
      <point x="232" y="150"/>
      <point x="217" y="171" type="qcurve" smooth="yes"/>
      <point x="202" y="193"/>
      <point x="180" y="193" type="qcurve" smooth="yes"/>
      <point x="159" y="193"/>
      <point x="144" y="172" type="qcurve" smooth="yes"/>
      <point x="129" y="150"/>
      <point x="129" y="120" type="qcurve" smooth="yes"/>
      <point x="129" y="89"/>
      <point x="143" y="68" type="qcurve" smooth="yes"/>
      <point x="158" y="46"/>
      <point x="178" y="46" type="qcurve" smooth="yes"/>
      <point x="200" y="46"/>
      <point x="216" y="67" type="qcurve" smooth="yes"/>
      <point x="232" y="89"/>
      <point x="232" y="119" type="qcurve"/>
    </contour>
  </outline>
</glyph>
